<svg xmlns="http://www.w3.org/2000/svg" width="48" height="48" fill="none" viewBox="0 0 48 48">
  <path fill="#FD7250" fill-rule="evenodd" d="M11.414 12c.347 0 .586.506.586 1.378v4.117l-5.565 5.889a1.649 1.649 0 0 0 0 2.232L12 31.505v4.117c0 .872-.24 1.378-.586 1.378-.141 0-.3-.084-.469-.262L.435 25.616a1.649 1.649 0 0 1 0-2.232l10.51-11.122c.168-.178.328-.262.469-.262Zm25.172 0c.141 0 .3.084.469.262l10.51 11.122a1.65 1.65 0 0 1 0 2.232l-10.51 11.122c-.168.178-.328.262-.469.262-.347 0-.586-.506-.586-1.378v-4.117l5.565-5.889a1.65 1.65 0 0 0 0-2.232L36 17.495v-4.117c0-.872.24-1.378.586-1.378Z" clip-rule="evenodd"/>
  <path fill="#FAD9D1" d="m24.947 8.897-8.17 30.495a2 2 0 1 0 3.863 1.035l8.171-30.494a2 2 0 0 0-3.864-1.036Z"/>
</svg>
