<svg width="48" height="48" viewBox="0 0 48 48" fill="none" xmlns="http://www.w3.org/2000/svg">
<g clip-path="url(#clip0_11_17)">
<path d="M1.7406 36.1489C1.24417 36.9585 0.686647 37.8979 0.213133 38.6463C-0.210698 39.3626 0.0168314 40.2863 0.724834 40.7237L10.6534 46.8335C11.0019 47.0487 11.4222 47.1149 11.82 47.0173C12.2177 46.9196 12.5596 46.6663 12.7689 46.3142C13.166 45.6498 13.6777 44.7867 14.2353 43.8626C18.1685 37.3709 22.1246 38.1652 29.2579 41.5714L39.1024 46.2531C39.4752 46.4306 39.904 46.4495 40.2911 46.3056C40.6781 46.1618 40.9904 45.8673 41.1568 45.4894L45.8843 34.7971C46.2183 34.0335 45.8785 33.143 45.1206 32.7961C43.0432 31.8186 38.9114 29.8711 35.1921 28.0763C21.8115 21.5769 10.4395 21.997 1.7406 36.1489Z" fill="url(#paint0_linear_11_17)"/>
<path d="M46.2594 11.8839C46.7558 11.0743 47.3134 10.1349 47.7869 9.38646C48.2107 8.67023 47.9832 7.74653 47.2752 7.30911L37.3466 1.19925C36.9953 0.962599 36.5614 0.882491 36.1487 0.978063C35.736 1.07364 35.3816 1.3363 35.17 1.70331C34.7729 2.36776 34.2612 3.23078 33.7036 4.15489C29.7704 10.6466 25.8143 9.85233 18.681 6.44609L8.86708 1.78732C8.49423 1.60986 8.06542 1.59091 7.67837 1.73479C7.29132 1.87868 6.97902 2.17313 6.81264 2.55105L2.08513 13.2433C1.75113 14.007 2.09099 14.8974 2.84887 15.2443C4.92622 16.2219 9.05801 18.1694 12.7774 19.9641C26.1885 26.4559 37.5605 26.0205 46.2594 11.8839Z" fill="url(#paint1_linear_11_17)"/>
</g>
<defs>
<linearGradient id="paint0_linear_11_17" x1="4561.7" y1="2619.5" x2="3449.86" y2="68.7859" gradientUnits="userSpaceOnUse">
<stop offset="0.18" stop-color="#0052CC"/>
<stop offset="1" stop-color="#2684FF"/>
</linearGradient>
<linearGradient id="paint1_linear_11_17" x1="44.5786" y1="-289.189" x2="1158.19" y2="2262.76" gradientUnits="userSpaceOnUse">
<stop offset="0.18" stop-color="#0052CC"/>
<stop offset="1" stop-color="#2684FF"/>
</linearGradient>
<clipPath id="clip0_11_17">
<rect width="48" height="48" fill="white"/>
</clipPath>
</defs>
</svg>
