<svg xmlns="http://www.w3.org/2000/svg" width="48" height="48" fill="none" viewBox="0 0 48 48">
  <path fill="#FAD9D1" fill-rule="evenodd" d="m27.222 9.045 14-2.777A4 4 0 0 1 46 10.192v22.39a4 4 0 0 1-3.222 3.923l-14 2.777A4 4 0 0 1 24 35.358v-22.39a4 4 0 0 1 3.222-3.923Z" clip-rule="evenodd" opacity=".7"/>
  <path fill="#F7C9BD" fill-rule="evenodd" d="m6.778 6.268 14 2.777A4 4 0 0 1 24 12.97v22.39a4 4 0 0 1-4.778 3.923l-14-2.777A4 4 0 0 1 2 32.58V10.19a4 4 0 0 1 4.778-3.923Z" clip-rule="evenodd"/>
  <path fill="#FD7250" fill-rule="evenodd" d="M22 10c1.167.23 2.018.625 2.554 1.188.536.562 1.018 1.687 1.446 3.374V39.22c0 1.698.424 3.74 1.273 6.125l-2.72-3.469-1.57 3.469C22.328 43.199 22 41.23 22 39.438V10Z" clip-rule="evenodd"/>
</svg>
