<svg width="24" height="24" viewBox="0 0 24 24" fill="none" xmlns="http://www.w3.org/2000/svg">
<path d="M4 4C2.895 4 2 4.895 2 6V18C2 19.105 2.895 20 4 20H20C21.105 20 22 19.105 22 18V6C22 4.895 21.105 4 20 4H4ZM4.6875 10H5.92578L7.5 13.8008V10H9.07422L10.1992 12.6992L11.3242 10H12.7871V14H11.8867V11.0996L10.6504 14H9.75L8.51367 11V14H6.59961L6.26367 13.0996H4.34961L4.01367 14H3L4.6875 10ZM14.0254 10H17.7363L18.6367 11.1992L19.7617 10H21L19.3125 12L21 14H19.875L18.75 12.6992L17.625 14H14.0254V10ZM5.25 10.8008L4.6875 12.1992H5.8125L5.25 10.8008ZM14.9258 10.9004V11.5996H16.9492V12.4004H14.9258V13.1992H17.0625L18.0742 12L17.1758 10.9004H14.9258Z" fill="#26353b"/>
</svg>
