<svg width="39" height="24" viewBox="0 0 39 24" fill="none" xmlns="http://www.w3.org/2000/svg">
<g clip-path="url(#clip0_299_115)">
<path d="M0 1.10345C0 0.494031 0.494031 0 1.10345 0H37.2966C37.906 0 38.4 0.494031 38.4 1.10345V22.731C38.4 23.3405 37.906 23.8345 37.2966 23.8345H1.10345C0.494031 23.8345 0 23.3405 0 22.731V1.10345Z" fill="#2E77BC"/>
<path d="M10.783 9.72019L10.4049 8.79578L10.0289 9.72019H10.783Z" fill="white"/>
<path d="M19.1134 9.35207C19.0375 9.3983 18.9477 9.39984 18.8401 9.39984H18.169V8.88475H18.8492C18.9454 8.88475 19.046 8.88916 19.1112 8.92658C19.1829 8.96044 19.2272 9.03227 19.2272 9.1316C19.2272 9.23295 19.185 9.31458 19.1134 9.35207Z" fill="white"/>
<path d="M23.9012 9.72019L23.5189 8.79578L23.1388 9.72019H23.9012Z" fill="white"/>
<path fill-rule="evenodd" clip-rule="evenodd" d="M9.01125 11.1764H9.9552L10.168 10.6613H10.6445L10.8568 11.1764H12.7142V10.7825L12.88 11.178H13.8441L14.0099 10.7767V11.1764H18.6257L18.6234 10.3308H18.7128C18.7753 10.333 18.7936 10.3388 18.7936 10.4425V11.1764H21.1809V10.9795C21.3734 11.083 21.6729 11.1764 22.067 11.1764H23.0713L23.2862 10.6613H23.7627L23.973 11.1764H25.9083V10.6871L26.2014 11.1764H27.7523V7.94202H26.2174V8.32399L26.0025 7.94202H24.4275V8.32399L24.2302 7.94202H22.1029C21.7467 7.94202 21.4337 7.99189 21.1809 8.13087V7.94202H19.7127V8.13087C19.5519 7.98762 19.3326 7.94202 19.0888 7.94202H13.7254L13.3655 8.77739L12.996 7.94202H11.3066V8.32399L11.121 7.94202H9.68024L9.01118 9.47979L9.01125 11.1764ZM14.9763 10.7208H14.41L14.4079 8.90462L13.6067 10.7208H13.1216L12.3185 8.90301V10.7208H11.1948L10.9825 10.2036H9.83222L9.61778 10.7208H9.01766L10.0071 8.40184H10.8278L11.7675 10.5975V8.40184H12.6692L13.3922 9.97501L14.0564 8.40184H14.9763L14.9763 10.7208ZM17.2336 10.7208H15.388V8.40184H17.2336V8.88475H15.9406V9.30275H17.2026V9.77811H15.9406V10.2412H17.2336V10.7208ZM19.8358 9.0264C19.8358 9.3962 19.5899 9.58716 19.4465 9.64451C19.5674 9.69068 19.6707 9.77223 19.7198 9.8398C19.7978 9.95514 19.8112 10.0582 19.8112 10.2653V10.7208H19.254L19.2519 10.4284C19.2519 10.2889 19.2652 10.0882 19.1647 9.97662C19.084 9.89506 18.9609 9.87736 18.7621 9.87736H18.169V10.7208H17.6165V8.40184H18.8873C19.1696 8.40184 19.3777 8.4094 19.5562 8.51292C19.731 8.61658 19.8358 8.76773 19.8358 9.0264ZM20.1563 8.40184H20.72V10.7208H20.1563V8.40184ZM27.2598 10.7208H26.477L25.4297 8.9803V10.7208H24.3046L24.0896 10.2036H22.942L22.7334 10.7208H22.0868C21.8184 10.7208 21.4783 10.6613 21.2858 10.4644C21.0916 10.2675 20.9906 10.0008 20.9906 9.57904C20.9906 9.23512 21.051 8.92071 21.2884 8.67226C21.467 8.48718 21.7467 8.40184 22.1274 8.40184H22.6623V8.89874H22.1386C21.9371 8.89874 21.8232 8.92882 21.7136 9.03619C21.6193 9.13376 21.5547 9.31835 21.5547 9.56142C21.5547 9.80987 21.6039 9.98907 21.7067 10.106C21.7917 10.1978 21.9462 10.2256 22.0916 10.2256H22.3398L23.1185 8.40191H23.9463L24.8817 10.5954V8.40191H25.7228L26.6939 10.017V8.40191H27.2598V10.7208Z" fill="white"/>
<path d="M28.508 12.8275H27.5011C27.4006 12.8275 27.3338 12.8312 27.2775 12.8693C27.2192 12.907 27.1968 12.9626 27.1968 13.0362C27.1968 13.1238 27.246 13.1832 27.3176 13.2091C27.3759 13.2294 27.4385 13.2353 27.5305 13.2353L27.8299 13.2433C28.1321 13.2508 28.3338 13.3029 28.4567 13.4301C28.4792 13.4477 28.4926 13.4676 28.508 13.4874V12.8275Z" fill="white"/>
<path d="M21.319 13.2868C21.2451 13.3308 21.1537 13.3346 21.0462 13.3346H20.3751V12.8136H21.0553C21.1537 12.8136 21.2522 12.8157 21.319 12.8555C21.3906 12.893 21.4334 12.9649 21.4334 13.0641C21.4334 13.1634 21.3906 13.2433 21.319 13.2868Z" fill="white"/>
<path d="M18.6231 13.4043H17.9091V12.8136H18.6295C18.829 12.8136 18.9674 12.8952 18.9674 13.098C18.9674 13.2987 18.8354 13.4043 18.6231 13.4043Z" fill="white"/>
<path d="M17.3589 14.4424L16.5107 13.4976L17.3589 12.5828V14.4424Z" fill="white"/>
<path d="M15.1684 14.17H13.81V13.7085H15.0229V13.2353H13.81V12.8136H15.1951L15.7994 13.4895L15.1684 14.17Z" fill="white"/>
<path fill-rule="evenodd" clip-rule="evenodd" d="M28.508 14.3567C28.3738 14.5536 28.1123 14.6534 27.7583 14.6534H26.6913V14.1561H27.7539C27.8593 14.1561 27.9332 14.1421 27.9775 14.0986C28.016 14.0627 28.0429 14.0106 28.0429 13.9473C28.0429 13.8797 28.016 13.8261 27.9753 13.7939C27.9353 13.7585 27.877 13.7424 27.7807 13.7424C27.262 13.7248 26.6148 13.7585 26.6148 13.0245C26.6148 12.688 26.8277 12.3339 27.4075 12.3339H28.508V11.8724H27.4855C27.177 11.8724 26.9527 11.9466 26.7941 12.0618V11.8724H25.2817C25.0399 11.8724 24.7559 11.9325 24.6217 12.0618V11.8724H21.921V12.0618C21.7061 11.9063 21.3434 11.8724 21.1761 11.8724H19.3947V12.0618C19.2247 11.8966 18.8466 11.8724 18.616 11.8724H16.6224L16.1661 12.3677L15.7389 11.8724H12.7608V15.1089H15.6829L16.1529 14.6058L16.5958 15.1089L18.3969 15.1105V14.3492H18.574C18.813 14.3529 19.0948 14.3432 19.3436 14.2354V15.1089H20.8291V14.2653H20.9009C20.9923 14.2653 21.0013 14.2692 21.0013 14.3609V15.1088H25.5144C25.801 15.1088 26.1005 15.0352 26.2663 14.9017V15.1088H27.6979C27.9957 15.1088 28.2867 15.0669 28.508 14.9596V14.3567ZM26.3042 13.4301C26.4118 13.5417 26.4695 13.6827 26.4695 13.9215C26.4695 14.4205 26.1588 14.6534 25.6015 14.6534H24.5255V14.1561H25.5973C25.7021 14.1561 25.7763 14.1421 25.8229 14.0986C25.8609 14.0627 25.8882 14.0106 25.8882 13.9473C25.8882 13.8797 25.8587 13.8261 25.8208 13.7939C25.7785 13.7585 25.7202 13.7424 25.624 13.7424C25.1073 13.7248 24.4603 13.7585 24.4603 13.0245C24.4603 12.688 24.671 12.3339 25.2502 12.3339H26.3578V12.8276H25.3443C25.2438 12.8276 25.1786 12.8313 25.1229 12.8695C25.0625 12.907 25.04 12.9628 25.04 13.0364C25.04 13.1239 25.0914 13.1834 25.1609 13.2092C25.2192 13.2295 25.2817 13.2354 25.3759 13.2354L25.6733 13.2435C25.9732 13.2508 26.179 13.3029 26.3042 13.4301ZM21.6527 13.5754C21.7756 13.621 21.8762 13.7026 21.9233 13.7702C22.0013 13.8834 22.0126 13.9891 22.0148 14.1936V14.6534H21.4602V14.3632C21.4602 14.2237 21.4735 14.017 21.3709 13.9092C21.2902 13.8261 21.1671 13.8062 20.9655 13.8062H20.3752V14.6534H19.82V12.3338H21.0955C21.3752 12.3338 21.5789 12.3462 21.7603 12.4433C21.9346 12.549 22.0443 12.6938 22.0443 12.9584C22.0442 13.3286 21.7981 13.5175 21.6527 13.5754ZM22.3506 12.3338H24.1945V12.8136H22.9007V13.2353H24.1629V13.7085H22.9007V14.17L24.1945 14.1721V14.6534H22.3506V12.3338ZM19.5606 13.098C19.5606 13.7424 19.0814 13.8754 18.5985 13.8754H17.9091V14.6534H16.8353L16.155 13.8856L15.4481 14.6534H13.2596V12.3338H15.4817L16.1614 13.0941L16.8641 12.3338H18.6295C19.068 12.3338 19.5606 12.4556 19.5606 13.098Z" fill="white"/>
</g>
<defs>
<clipPath id="clip0_299_115">
<rect width="38.4" height="24" fill="white"/>
</clipPath>
</defs>
</svg>
