<svg width="24" height="24" viewBox="0 0 24 24" fill="none" xmlns="http://www.w3.org/2000/svg">
<path d="M4 4C2.89844 4 2 4.89844 2 6V18C2 19.1016 2.89844 20 4 20H20C21.1016 20 22 19.1016 22 18V6C22 4.89844 21.1016 4 20 4H4ZM4 6H20V18H4V13H4.73047C5.84766 13 6.10938 11.9688 6.10938 11.5C6.10938 10.6172 5.54688 10 4.73438 10H4V6ZM20 13L19.1914 11.7344C19.5703 11.6484 19.7773 11.3477 19.7773 10.8867C19.7773 10.3242 19.4453 10 18.8711 10H18.125V13H18.625V11.7969H18.6914L19.3867 13H20ZM6.34375 10V13H6.84375V10H6.34375ZM7.96094 10C7.50781 10 7.16406 10.3555 7.16406 10.8281C7.16406 11.2227 7.32812 11.418 7.79688 11.6172C8.06641 11.7305 8.28906 11.8008 8.28906 12.0781C8.28906 12.3125 8.125 12.4844 7.89844 12.4844C7.66016 12.4844 7.46875 12.3516 7.35547 12.1016L7.03125 12.4531C7.26172 12.832 7.53906 13 7.92188 13C8.44141 13 8.80469 12.6094 8.80469 12.0508C8.80469 11.5938 8.63672 11.3867 8.06641 11.1562C7.76562 11.0312 7.67969 10.9453 7.67969 10.793C7.67969 10.6094 7.83594 10.4688 8.05078 10.4688C8.19922 10.4688 8.32422 10.5391 8.45312 10.7031L8.71875 10.3164C8.5 10.1055 8.24219 10 7.96094 10ZM12.4375 10C11.6953 10 11.0977 10.6719 11.0977 11.5C11.0977 12.3281 11.6953 13 12.4375 13C13.1758 13 13.7734 12.3281 13.7734 11.5C13.7734 10.6719 13.1758 10 12.4375 10ZM13.6836 10L14.7695 13H15.043L16.1484 10H15.6094L14.9102 11.9648L14.2305 10H13.6836ZM16.375 10V13H17.7969V12.4922H16.875V11.6836H17.7617V11.1719H16.875V10.5078H17.7969V10H16.375ZM10.3281 10.0078C9.57031 10.0078 8.96094 10.6758 8.96094 11.5078C8.96094 12.3477 9.55469 13 10.3164 13C10.5312 13 10.7188 12.9531 10.9453 12.832V12.1758C10.7461 12.3984 10.5703 12.4883 10.3438 12.4883C9.83594 12.4883 9.47656 12.082 9.47656 11.5C9.47656 10.9531 9.84766 10.5195 10.3164 10.5195C10.5586 10.5195 10.7344 10.6133 10.9453 10.8438V10.1836C10.7266 10.0586 10.5469 10.0078 10.3281 10.0078ZM18.625 10.4727H18.7812C19.0938 10.4727 19.2617 10.625 19.2617 10.918C19.2617 11.2188 19.0938 11.3789 18.7734 11.3789H18.625V10.4727ZM4.5 10.5078H4.66406C5.34766 10.5078 5.59375 11.0234 5.59375 11.4961C5.59766 11.7227 5.53516 12.4922 4.63281 12.4922H4.5V10.5078Z" fill="#26353b"/>
</svg>
