<svg width="24" height="24" viewBox="0 0 24 24" fill="none" xmlns="http://www.w3.org/2000/svg">
<path d="M6 2C4.89 2 4 2.89 4 4V20C4 20.5304 4.21071 21.0391 4.58579 21.4142C4.96086 21.7893 5.46957 22 6 22H12.68C12.2337 21.0628 12.0014 20.038 12 19C12 17.1435 12.7375 15.363 14.0503 14.0503C15.363 12.7375 17.1435 12 19 12C19.3348 12.0027 19.669 12.0295 20 12.08V8L14 2H6ZM13 3.5L18.5 9H13V3.5ZM18 14C17.9389 13.9989 17.8793 14.0193 17.8318 14.0577C17.7842 14.0961 17.7517 14.15 17.74 14.21L17.55 15.53C17.25 15.66 16.96 15.82 16.7 16L15.46 15.5C15.35 15.5 15.22 15.5 15.15 15.63L14.15 17.36C14.09 17.47 14.11 17.6 14.21 17.68L15.27 18.5C15.2301 18.8321 15.2301 19.1679 15.27 19.5L14.21 20.32C14.1651 20.3585 14.1346 20.4113 14.1237 20.4694C14.1128 20.5276 14.1221 20.5878 14.15 20.64L15.15 22.37C15.21 22.5 15.34 22.5 15.46 22.5L16.7 22C16.96 22.18 17.24 22.35 17.55 22.47L17.74 23.79C17.76 23.91 17.86 24 18 24H20C20.11 24 20.22 23.91 20.24 23.79L20.43 22.47C20.73 22.34 21 22.18 21.27 22L22.5 22.5C22.63 22.5 22.76 22.5 22.83 22.37L23.83 20.64C23.8579 20.5878 23.8672 20.5276 23.8563 20.4694C23.8454 20.4113 23.8149 20.3585 23.77 20.32L22.7 19.5C22.72 19.33 22.74 19.17 22.74 19C22.74 18.83 22.73 18.67 22.7 18.5L23.76 17.68C23.8049 17.6415 23.8354 17.5887 23.8463 17.5306C23.8572 17.4724 23.8479 17.4122 23.82 17.36L22.82 15.63C22.76 15.5 22.63 15.5 22.5 15.5L21.27 16C21 15.82 20.73 15.65 20.42 15.53L20.23 14.21C20.2237 14.153 20.1969 14.1003 20.1546 14.0617C20.1122 14.023 20.0573 14.0011 20 14H18ZM19 17.5C19.83 17.5 20.5 18.17 20.5 19C20.5 19.83 19.83 20.5 19 20.5C18.16 20.5 17.5 19.83 17.5 19C17.5 18.17 18.17 17.5 19 17.5Z" fill="#26353b"/>
</svg>
