<svg width="39" height="24" viewBox="0 0 39 24" fill="none" xmlns="http://www.w3.org/2000/svg">
<g clip-path="url(#clip0_299_113)">
<rect width="38.4" height="23.8345" rx="2" fill="#14457C"/>
<path fill-rule="evenodd" clip-rule="evenodd" d="M23.2746 5.96307C21.7497 5.96307 20.3605 6.54514 19.3132 7.50002C19.1002 7.69464 18.9012 7.90483 18.7178 8.12863H19.9098C20.0726 8.32813 20.2227 8.53785 20.3596 8.75753H18.2677C18.1426 8.95937 18.0288 9.16909 17.9278 9.38642H20.6995C20.7943 9.58995 20.8776 9.79958 20.9494 10.015H17.6779C17.6097 10.2199 17.5524 10.4296 17.5064 10.6435H21.1206C21.2071 11.0489 21.2531 11.4695 21.2531 11.901C21.2531 12.5602 21.1465 13.1947 20.9494 13.7873H17.6779C17.7496 14.0026 17.833 14.2124 17.9276 14.4162H20.6995C20.5982 14.633 20.4849 14.8429 20.3591 15.045H18.2677C18.4042 15.2641 18.5546 15.4741 18.7178 15.6733H19.9094C19.7263 15.8973 19.5272 16.1075 19.3135 16.3021C20.3607 17.257 21.7497 17.8387 23.2746 17.8387C26.5334 17.8387 29.1752 15.1804 29.1752 11.901C29.1752 8.62184 26.5334 5.96307 23.2746 5.96307Z" fill="#F1AB3E"/>
<path fill-rule="evenodd" clip-rule="evenodd" d="M20.8911 13.7873C21.0883 13.1946 21.1951 12.5604 21.1951 11.901C21.1951 11.4695 21.1494 11.0488 21.0625 10.6435H17.5064C17.5523 10.4296 17.6097 10.2199 17.6779 10.015H20.8913C20.8197 9.79973 20.7361 9.58993 20.6415 9.38642H17.9278C18.0288 9.16909 18.1426 8.95937 18.2677 8.75753H20.3014C20.1649 8.53785 20.0146 8.32781 19.8516 8.12863H18.7178C18.893 7.91489 19.0823 7.71356 19.2845 7.52636C18.2342 6.55564 16.8332 5.96307 15.2947 5.96307C12.0356 5.96307 9.39375 8.62156 9.39375 11.901C9.39375 15.1804 12.0356 17.8387 15.2947 17.8387C17.1299 17.8387 18.7694 16.9956 19.8516 15.6733H18.7178C18.5546 15.4741 18.4042 15.2641 18.2677 15.045H20.301C20.4264 14.8433 20.5401 14.6333 20.6411 14.4162H17.9276C17.833 14.2124 17.7496 14.0026 17.6779 13.7873H20.8911Z" fill="#D82332"/>
<path fill-rule="evenodd" clip-rule="evenodd" d="M28.3233 15.163C28.3233 15.0572 28.4087 14.9713 28.514 14.9713C28.6195 14.9713 28.7045 15.0572 28.7045 15.163C28.7045 15.269 28.6195 15.3549 28.514 15.3549C28.4087 15.3549 28.3233 15.269 28.3233 15.163ZM28.5139 15.3089C28.5936 15.3089 28.6587 15.2435 28.6587 15.163C28.6587 15.0822 28.5936 15.0173 28.5139 15.0173C28.4338 15.0173 28.3689 15.0822 28.3689 15.163C28.3689 15.2435 28.4338 15.3089 28.5139 15.3089ZM28.488 15.2472H28.4489V15.079H28.5198C28.5345 15.079 28.5496 15.079 28.5626 15.087C28.576 15.0966 28.5838 15.1126 28.5838 15.1294C28.5838 15.1484 28.5729 15.1662 28.5547 15.173L28.5857 15.2472H28.5423L28.5166 15.1807H28.488V15.2472ZM28.4882 15.1517H28.5098C28.5178 15.1517 28.5264 15.1523 28.5337 15.1484C28.54 15.1442 28.5435 15.1367 28.5435 15.129C28.5435 15.1226 28.5392 15.1151 28.5339 15.1118C28.527 15.1078 28.5161 15.1086 28.5089 15.1086H28.4882V15.1517Z" fill="#F1AB3E"/>
<path fill-rule="evenodd" clip-rule="evenodd" d="M28.3233 13.2866C28.3233 13.1802 28.4089 13.0947 28.5136 13.0947C28.6191 13.0947 28.7041 13.1802 28.7041 13.2866C28.7041 13.3921 28.6191 13.4783 28.5136 13.4783C28.4089 13.4783 28.3233 13.3921 28.3233 13.2866ZM28.5135 13.4322C28.5938 13.4322 28.6587 13.3668 28.6587 13.2865C28.6587 13.2061 28.5938 13.1407 28.5135 13.1407C28.4336 13.1407 28.3689 13.2061 28.3689 13.2865C28.3689 13.3668 28.4336 13.4322 28.5135 13.4322ZM28.4878 13.3703H28.4489V13.2021H28.5196C28.5345 13.2021 28.5494 13.2026 28.5623 13.2107C28.5761 13.2198 28.5836 13.2359 28.5836 13.2526C28.5836 13.2717 28.5727 13.2895 28.5549 13.2963L28.5857 13.3703H28.5423L28.5166 13.3038H28.4878V13.3703ZM28.4879 13.275H28.5095C28.5174 13.275 28.5265 13.2757 28.5334 13.2717C28.5397 13.2676 28.543 13.2596 28.543 13.2522C28.543 13.2459 28.5393 13.2387 28.5338 13.2348C28.5271 13.231 28.5161 13.2321 28.5088 13.2321H28.4879V13.275Z" fill="#FFFFFE"/>
<path fill-rule="evenodd" clip-rule="evenodd" d="M21.7087 10.6319C21.3001 10.9402 21.0493 11.503 21.0493 12.2026C21.0493 13.0039 21.4789 13.5029 22.1687 13.5029C22.3068 13.5029 22.4298 13.4887 22.5886 13.4519L22.5633 13.6069C22.3271 13.6716 22.1744 13.6951 21.9969 13.6951C21.3075 13.6951 20.8773 13.1961 20.8773 12.3947C20.8773 12.2206 20.8934 12.0524 20.9228 11.8927C20.6965 11.8871 20.584 11.9325 20.5477 12.0678L20.5289 12.0783C20.6245 11.7235 20.7304 11.6376 20.9349 11.6584C20.9852 11.3904 21.0731 11.1514 21.1474 11.0052C21.1867 11.0098 21.2289 11.0194 21.2744 11.0345C21.396 10.8659 21.5423 10.729 21.7087 10.6319ZM19.9867 11.2033H19.8275C19.7736 11.7144 19.6913 12.2298 19.6092 12.7437L19.6092 12.7438C19.5695 12.9924 19.5299 13.2407 19.4935 13.488L19.4644 13.6527H20.1053C20.1181 13.569 20.1302 13.4888 20.1417 13.412H19.6507L19.6798 13.2472C19.7166 12.9966 19.7568 12.745 19.797 12.493C19.8657 12.0629 19.9345 11.6319 19.9867 11.2033ZM22.7622 13.2471L22.8473 12.7283C22.8141 12.7448 22.7818 12.7599 22.7504 12.7737C22.7948 12.5601 22.9044 12.3895 23.0716 12.2685C22.9687 12.4145 22.9144 12.5979 22.9144 12.8139C22.9144 13.2101 23.1521 13.4831 23.4996 13.4831C23.7928 13.4831 24.0088 13.3873 24.1708 13.187L24.1587 13.4406H24.526C24.5147 13.5231 24.5065 13.5888 24.503 13.6283H23.9723L23.9843 13.3747C23.8224 13.575 23.6064 13.6708 23.3131 13.6708C23.0434 13.6708 22.8397 13.5062 22.7622 13.2471ZM23.302 11.2084C23.2506 11.2218 23.1963 11.2369 23.1385 11.254C23.1385 11.254 23.0564 11.7641 23.0496 11.8047C23.1562 11.7697 23.4144 11.6911 23.7277 11.6949C23.9982 11.6949 24.1151 11.7441 24.1352 11.8731C24.1866 11.8762 24.2427 11.8815 24.2996 11.8889C24.3195 11.8079 24.3248 11.7734 24.3248 11.7295C24.3248 11.5675 24.2136 11.5072 23.9142 11.5072C23.6008 11.5034 23.3426 11.582 23.236 11.617C23.2405 11.5904 23.2772 11.3626 23.302 11.2084ZM21.9107 11.3685C22.0552 11.1498 22.2673 11.0209 22.519 11.0209C22.6611 11.0209 22.7954 11.0508 22.9604 11.1218L22.9196 11.3758C22.6911 11.2598 22.5251 11.2133 22.3471 11.2133C22.1819 11.2133 22.0338 11.2687 21.9107 11.3685ZM27.8785 13.4789H27.5121L27.5421 13.2509C27.4554 13.3441 27.3676 13.4112 27.2728 13.4552L27.2572 13.5728H27.8633L27.8785 13.4789ZM27.9588 10.5611L27.8321 11.3376C27.7662 11.2504 27.6985 11.1815 27.6264 11.1295L27.7194 10.5611H27.9588ZM27.0163 11.0338C26.9996 11.0322 26.9828 11.0314 26.9656 11.0314C26.6466 11.0314 26.356 11.2715 26.1632 11.6268C26.1611 11.6373 26.1591 11.6478 26.1571 11.6584C25.9917 11.6416 25.8907 11.6944 25.8075 11.9023C25.8884 11.8377 25.97 11.7987 26.0784 11.8042C25.9805 12.0428 25.9233 12.3173 25.9233 12.599C25.9233 13.2111 26.2309 13.6153 26.6968 13.6153C26.8453 13.6153 26.9719 13.5827 27.0894 13.5109C27.0455 13.518 26.9996 13.5214 26.9515 13.5214C26.4859 13.5214 26.178 13.1177 26.178 12.5049C26.178 11.7906 26.5451 11.1747 27.0163 11.0338ZM25.3518 13.412H24.8725L24.9017 13.2472C24.9382 12.9992 24.9779 12.7502 25.0177 12.5009L25.0177 12.5008C25.091 12.0415 25.1645 11.581 25.2178 11.1236H25.0496C24.9959 11.6328 24.914 12.1462 24.8322 12.6583L24.8322 12.6584L24.8322 12.6584C24.7922 12.9089 24.7523 13.159 24.7158 13.4082L24.6863 13.573H25.3274C25.3357 13.5184 25.3439 13.4648 25.3518 13.412ZM27.1731 12.9129C27.4716 12.9129 27.681 12.5727 27.681 12.0876C27.681 11.7763 27.5617 11.6073 27.3415 11.6073C27.2505 11.6073 27.1677 11.6408 27.0969 11.7017C27.3105 11.7069 27.4261 11.875 27.4261 12.1813C27.4261 12.5146 27.3272 12.7795 27.1688 12.9129C27.1702 12.9129 27.1716 12.9129 27.1731 12.9129ZM24.0806 12.3395C24.1267 12.3395 24.1564 12.3417 24.2232 12.3496C24.2151 12.6234 24.1055 12.8331 23.94 12.9192C23.9976 12.8176 24.0324 12.687 24.0368 12.5373C23.9699 12.5294 23.9403 12.5272 23.8942 12.5272C23.7541 12.5272 23.6406 12.5459 23.5542 12.5831C23.6111 12.4212 23.7874 12.3395 24.0806 12.3395ZM19.2691 13.4276C19.1063 13.4652 18.945 13.4833 18.7769 13.4831C18.064 13.4826 17.6926 13.1078 17.6926 12.3905C17.6926 11.9638 17.8152 11.5945 18.0204 11.3349C17.7052 11.5841 17.5061 12.0346 17.5061 12.5782C17.5061 13.2955 17.8775 13.6703 18.5905 13.6708C18.8139 13.671 19.0252 13.6391 19.244 13.5717L19.2691 13.4276ZM19.4405 12.4255H18.3208C18.3122 12.4961 18.3143 12.5585 18.326 12.6132H19.4024C19.4174 12.5458 19.4301 12.4837 19.4405 12.4255ZM19.0727 11.9315L19.074 11.9176C19.0826 11.8322 19.1167 11.4943 18.7762 11.4943C18.6345 11.4943 18.521 11.5705 18.4453 11.7124C18.4893 11.6923 18.5377 11.682 18.5898 11.682C18.8012 11.682 18.8682 11.8123 18.8865 11.9315H19.0727ZM17.2829 13.483C17.1794 13.5066 17.0857 13.5173 16.9868 13.5173C16.6593 13.5173 16.4805 13.3279 16.4805 12.9795C16.4769 12.8931 16.5088 12.696 16.5425 12.4882L16.5425 12.4882L16.5425 12.4882L16.5425 12.4882L16.5425 12.4882L16.5425 12.4881C16.5512 12.4343 16.5601 12.3799 16.5684 12.3265C16.597 12.1488 16.7484 11.2409 16.8149 10.8426H16.6599C16.6599 10.8426 16.419 12.2851 16.3821 12.5142C16.3759 12.5537 16.3695 12.5937 16.363 12.6337C16.3633 12.6438 16.3634 12.6541 16.3634 12.6645C16.3634 12.8056 16.3435 12.9276 16.303 13.0311C16.2964 13.0882 16.2928 13.1353 16.2941 13.1672C16.2941 13.5156 16.473 13.705 16.8005 13.705C16.9487 13.705 17.0854 13.6809 17.2606 13.6254L17.2829 13.483ZM15.6124 11.7138C15.6494 11.7066 15.6918 11.703 15.7395 11.703C15.8651 11.703 16.037 11.717 16.1998 11.7401L16.233 11.5336C16.1207 11.5219 16.0123 11.5153 15.9259 11.5153C15.7198 11.5153 15.6134 11.5827 15.6124 11.7138ZM15.077 11.2865C14.9878 11.4224 14.9502 11.5882 14.951 11.7656C14.951 12.0758 15.1004 12.289 15.439 12.4497C15.6983 12.5724 15.7384 12.6087 15.7384 12.72C15.7384 12.8299 15.6792 12.8964 15.5516 12.925C15.5519 12.9194 15.5521 12.9136 15.5521 12.9077C15.5521 12.7964 15.512 12.7601 15.2527 12.6374C15.0099 12.5221 14.8644 12.3799 14.8015 12.1944C14.8045 12.1754 14.8073 12.1573 14.81 12.1401C14.8422 11.9363 14.8629 11.7806 14.8618 11.6548C14.8618 11.6132 14.8596 11.5733 14.8551 11.5352C14.9052 11.4382 14.9779 11.3534 15.077 11.2865ZM14.4553 13.4406H14.088L14.1001 13.187C13.9383 13.3873 13.7222 13.4831 13.4287 13.4831C13.0816 13.4831 12.8436 13.2101 12.8436 12.8139C12.8436 12.598 12.8978 12.4147 13.0007 12.2687C12.7779 12.4301 12.6573 12.6795 12.6573 13.0016C12.6573 13.3977 12.8952 13.6708 13.2424 13.6708C13.5359 13.6708 13.7519 13.575 13.9138 13.3747L13.9017 13.6283H14.4324C14.4358 13.5888 14.444 13.5231 14.4553 13.4406ZM14.5468 13.4406L14.5223 13.5981L14.5259 13.5989C14.67 13.6307 14.801 13.6596 15.1888 13.6708C15.63 13.6708 15.9162 13.5605 16.0619 13.3284C15.9008 13.4327 15.6734 13.4831 15.3751 13.4831C14.9873 13.4719 14.8564 13.443 14.7123 13.4112L14.7086 13.4104L14.7606 13.0763C14.7309 13.0689 14.7008 13.0606 14.6702 13.0516C14.6446 13.2266 14.6247 13.3726 14.6187 13.4406H14.5468ZM13.2314 11.2084C13.1799 11.2218 13.1257 11.2369 13.0679 11.254C13.0679 11.254 12.9858 11.7641 12.9791 11.8047C13.0854 11.7697 13.3437 11.6911 13.6573 11.6949C13.9275 11.6949 14.0447 11.7441 14.0648 11.8731C14.1163 11.8762 14.1724 11.8815 14.2293 11.8889C14.2491 11.8079 14.2544 11.7734 14.2544 11.7295C14.2544 11.5675 14.1427 11.5072 13.8436 11.5072C13.53 11.5034 13.2717 11.582 13.1654 11.617C13.1698 11.5905 13.2065 11.3626 13.2314 11.2084ZM17.29 11.8018H17.462L17.4897 11.6141H17.3204C17.3107 11.6752 17.3004 11.7382 17.29 11.8018ZM14.0099 12.3395C14.0561 12.3395 14.0857 12.3417 14.1528 12.3496C14.1445 12.6234 14.035 12.8331 13.8694 12.9192C13.927 12.8175 13.9618 12.687 13.9664 12.5373C13.8993 12.5294 13.8696 12.5272 13.8235 12.5272C13.6833 12.5272 13.5698 12.5459 13.4833 12.5831C13.5402 12.4212 13.7166 12.3395 14.0099 12.3395ZM12.3661 13.4789H11.8811L12.2481 11.1637L11.9645 11.9651L11.6947 13.6666H12.3353L12.3661 13.4789ZM11.4005 12.3316L11.9596 10.655H11.8358L11.3956 11.9752L11.4005 12.3316ZM9.95285 13.4789L10.4225 10.655H10.2674L9.76653 13.6666H10.3661L10.3976 13.4789H9.95285ZM10.9381 11.1772L10.7708 12.1757L10.8058 13.6666H11.2424L11.3088 13.4789H10.9921L10.9381 11.1772Z" fill="#0C2D5A"/>
<path fill-rule="evenodd" clip-rule="evenodd" d="M23.0913 11.1834L23.1962 10.5298C23.1022 10.4927 22.7719 10.3734 22.4921 10.3734C21.6433 10.3734 21.0494 11.1259 21.0494 12.2026C21.0494 13.0038 21.479 13.5029 22.1687 13.5029C22.3463 13.5029 22.4989 13.4793 22.7348 13.4146L22.8473 12.7282C22.6353 12.8336 22.461 12.8827 22.3033 12.8827C21.9309 12.8827 21.7054 12.6065 21.7054 12.1495C21.7054 11.486 22.0408 11.0209 22.5191 11.0209C22.6969 11.0209 22.8626 11.0677 23.0913 11.1834ZM27.5122 13.4788H28.1181L28.6061 10.4672H27.9743L27.8322 11.3376C27.657 11.1056 27.4689 11.0035 27.2204 11.0035C26.6557 11.0035 26.1781 11.6902 26.1781 12.5049C26.1781 13.1176 26.486 13.5213 26.9516 13.5213C27.1863 13.5213 27.3665 13.4398 27.5423 13.2509L27.5122 13.4788ZM27.6811 12.0876C27.6811 12.5727 27.4717 12.9128 27.1732 12.9128C26.9554 12.9128 26.8448 12.7509 26.8448 12.4302C26.8448 11.9486 27.0511 11.6073 27.3416 11.6073C27.5619 11.6073 27.6811 11.7763 27.6811 12.0876ZM25.0178 12.5008L25.0178 12.5008C25.0997 11.9876 25.1819 11.4729 25.2359 10.9627H25.8245C25.8283 11.0523 25.8147 11.1406 25.8009 11.2298L25.8009 11.2299L25.8009 11.2299L25.8009 11.2299L25.8009 11.2299L25.8009 11.2299L25.8009 11.2299L25.8009 11.2299L25.8009 11.23C25.7956 11.2645 25.7902 11.2992 25.7858 11.3342C25.9822 11.0443 26.1321 10.8917 26.4004 10.948C26.3209 11.0833 26.2144 11.3518 26.1573 11.6583C25.7977 11.6218 25.7425 11.9141 25.5134 13.412H24.8727L24.9018 13.2472C24.9383 12.9992 24.978 12.7502 25.0178 12.5008ZM24.2232 12.3495C24.1563 12.3416 24.1266 12.3395 24.0806 12.3395C23.7176 12.3395 23.5338 12.4647 23.5338 12.7121C23.5338 12.8644 23.6235 12.9619 23.7633 12.9619C24.0241 12.9619 24.2124 12.7119 24.2232 12.3495ZM24.6894 13.4406H24.1587L24.1707 13.1869C24.0087 13.3873 23.7928 13.4831 23.4995 13.4831C23.152 13.4831 22.9144 13.21 22.9144 12.8138C22.9144 12.2172 23.328 11.8698 24.0388 11.8698C24.1115 11.8698 24.2044 11.8765 24.2996 11.8889C24.3194 11.8078 24.3248 11.7734 24.3248 11.7294C24.3248 11.5675 24.2135 11.5071 23.9141 11.5071C23.6008 11.5034 23.3426 11.5819 23.236 11.6169C23.2428 11.5764 23.3248 11.0662 23.3248 11.0662C23.6441 10.972 23.8545 10.9364 24.0914 10.9364C24.6415 10.9364 24.933 11.1852 24.9324 11.6548C24.9336 11.7806 24.9129 11.9363 24.8806 12.1401C24.825 12.4945 24.7058 13.2557 24.6894 13.4406ZM20.0144 10.9627C19.9604 11.4703 19.8787 11.9823 19.7971 12.4929C19.7569 12.7449 19.7167 12.9965 19.68 13.2472L19.6508 13.412H20.2917C20.521 11.9141 20.576 11.6218 20.935 11.6583C20.9925 11.3518 21.0993 11.0833 21.1785 10.948C20.9104 10.8917 20.7604 11.0443 20.5643 11.3342C20.5687 11.2989 20.5741 11.2639 20.5795 11.229C20.5931 11.14 20.6067 11.052 20.6026 10.9627H20.0144ZM18.7769 13.4831C19.0002 13.4832 19.2116 13.4513 19.4304 13.384L19.5364 12.7746C19.3076 12.8816 19.1019 12.9291 18.874 12.9291C18.5037 12.9291 18.2776 12.7808 18.3207 12.4254H19.5888C19.6438 12.178 19.6671 12.0028 19.6671 11.8233C19.6671 11.2816 19.332 10.9364 18.8065 10.9364C18.1651 10.9364 17.6925 11.5529 17.6925 12.3904C17.6925 13.1077 18.0639 13.4826 18.7769 13.4831ZM19.0739 11.9176L19.0726 11.9315H18.3693C18.4284 11.6501 18.5734 11.4943 18.7762 11.4943C19.1166 11.4943 19.0825 11.8322 19.0739 11.9176ZM17.4469 13.4376C17.2717 13.4932 17.135 13.5173 16.9868 13.5173C16.6593 13.5173 16.4805 13.3278 16.4805 12.9794C16.4769 12.8931 16.5089 12.6959 16.5425 12.4881L16.5425 12.4881L16.5425 12.4881L16.5426 12.488L16.5426 12.4878C16.5513 12.4341 16.5601 12.3797 16.5684 12.3264C16.6054 12.0973 16.8462 10.6549 16.8462 10.6549H17.4829L17.4085 11.0255H17.7354L17.6483 11.6141H17.3204C17.2915 11.7961 17.2578 11.9955 17.2274 12.1755L17.2274 12.1755C17.1799 12.4565 17.1404 12.6902 17.1397 12.7371C17.1397 12.8638 17.2068 12.9186 17.3592 12.9186C17.4321 12.9186 17.4886 12.9114 17.5319 12.8955L17.4469 13.4376ZM15.439 12.4496C15.1005 12.2889 14.9511 12.0757 14.9511 11.7656C14.9489 11.3131 15.1969 10.9364 15.9135 10.9364C16.0601 10.9364 16.3115 10.958 16.4774 10.9844L16.3862 11.5524C16.2234 11.5293 16.0515 11.5152 15.9259 11.5152C15.7188 11.5152 15.6124 11.5833 15.6124 11.7157C15.6124 11.8302 15.6433 11.8577 15.9118 11.9821C16.2327 12.1303 16.3634 12.3277 16.3634 12.6644C16.3634 13.2242 16.0512 13.4831 15.3752 13.4831C14.9874 13.4718 14.8564 13.4429 14.7123 13.4111L14.7086 13.4103L14.7966 12.8452C15.0017 12.9117 15.1794 12.9415 15.3706 12.9415C15.6241 12.9415 15.7385 12.8727 15.7385 12.72C15.7385 12.6087 15.6984 12.5724 15.439 12.4496ZM14.1528 12.3495C14.0856 12.3416 14.056 12.3395 14.0098 12.3395C13.6467 12.3395 13.4629 12.4647 13.4629 12.7121C13.4629 12.8644 13.5526 12.9619 13.6926 12.9619C13.9536 12.9619 14.1417 12.7119 14.1528 12.3495ZM14.6187 13.4406H14.088L14.1002 13.1869C13.9383 13.3873 13.7222 13.4831 13.4288 13.4831C13.0816 13.4831 12.8436 13.21 12.8436 12.8138C12.8436 12.2172 13.2576 11.8698 13.9682 11.8698C14.0409 11.8698 14.134 11.8765 14.2293 11.8889C14.2492 11.8078 14.2544 11.7734 14.2544 11.7294C14.2544 11.5675 14.1428 11.5071 13.8436 11.5071C13.53 11.5034 13.2717 11.5819 13.1654 11.6169C13.1721 11.5764 13.2543 11.0662 13.2543 11.0662C13.5735 10.972 13.784 10.9364 14.021 10.9364C14.5711 10.9364 14.8624 11.1852 14.8618 11.6548C14.8629 11.7806 14.8422 11.9363 14.8101 12.1401C14.7544 12.4945 14.635 13.2557 14.6187 13.4406ZM11.8811 13.4788H12.5216L13.017 10.4672H12.0222L11.4006 12.3316L11.3749 10.4672H10.4537L9.95288 13.4788H10.5525L10.9382 11.1771L10.9921 13.4788H11.4287L12.2481 11.1637L11.8811 13.4788Z" fill="#FFFFFE"/>
</g>
<defs>
<clipPath id="clip0_299_113">
<rect width="38.4" height="24" fill="white"/>
</clipPath>
</defs>
</svg>
