<svg width="24" height="24" viewBox="0 0 24 24" fill="none" xmlns="http://www.w3.org/2000/svg">
<path d="M11 17.0156V6.98438H3.96875V17.0156H11ZM11 3C11.5312 3 11.9844 3.20312 12.3594 3.60938C12.7656 3.98438 12.9688 4.45312 12.9688 5.01562V18.9844C12.9688 19.5469 12.7656 20.0312 12.3594 20.4375C11.9844 20.8125 11.5312 21 11 21H3.96875C3.4375 21 2.96875 20.8125 2.5625 20.4375C2.1875 20.0312 2 19.5469 2 18.9844V5.01562C2 4.45312 2.1875 3.98438 2.5625 3.60938C2.96875 3.20312 3.4375 3 3.96875 3H11ZM16.4844 3H21.5C21.9062 3 22.25 3.15625 22.5312 3.46875C22.8438 3.75 23 4.09375 23 4.5V7.5C23 7.90625 22.8438 8.26562 22.5312 8.57812C22.25 8.85938 21.9062 9 21.5 9H17.9844L14.9844 12V4.5C14.9844 4.09375 15.125 3.75 15.4062 3.46875C15.7188 3.15625 16.0781 3 16.4844 3Z" fill="#26353b"/>
</svg>
