<svg width="101" height="14" viewBox="0 0 101 14" fill="none" xmlns="http://www.w3.org/2000/svg">
<g clip-path="url(#clip0_1958_22310)">
<path fill-rule="evenodd" clip-rule="evenodd" d="M51.812 6.43514H54.5398C56.0429 6.43514 56.8594 5.68739 56.8594 4.44689C56.8594 3.20656 56.0429 2.45864 54.5398 2.45864H51.812V6.43514ZM51.812 7.65752V12.4001H50.3462V1.20004H54.577C56.8594 1.20004 58.3066 2.33106 58.3066 4.44689C58.3066 6.30755 57.1934 7.36546 55.412 7.6027L58.6539 12.4001H56.984L53.8346 7.65752H51.812Z" fill="#26353b"/>
<path fill-rule="evenodd" clip-rule="evenodd" d="M67.709 1.20004V2.47675H62.0914V6.43513H66.6354V7.71185H62.0914V11.1049H67.7528V12.4001H60.6318V1.20004H67.709Z" fill="#26353b"/>
<path fill-rule="evenodd" clip-rule="evenodd" d="M69.335 1.20004H78.4336L77.1777 2.47675H74.5933V12.4001H73.1753V2.47675H69.335V1.20004Z" fill="#26353b"/>
<path fill-rule="evenodd" clip-rule="evenodd" d="M80.4817 1.20004H88.324V2.47675H84.484V12.4001H83.0664V2.47675H79.2256L80.4817 1.20004Z" fill="#26353b"/>
<path fill-rule="evenodd" clip-rule="evenodd" d="M34.9817 11.178C36.4503 11.178 37.4781 10.6306 37.4781 9.39029C37.4781 8.51475 36.9826 7.94907 35.6792 7.62081L33.6599 7.09185C32.0995 6.69048 30.9614 5.90618 30.9614 4.20983C30.9614 2.31261 32.5402 1.20004 34.6695 1.20004H38.5629L37.278 2.47659H34.6695C33.3295 2.47659 32.338 2.95089 32.338 4.10017C32.338 5.04895 32.9624 5.50497 34.1372 5.81514L36.0649 6.30738C37.8639 6.76357 38.8735 7.73029 38.8735 9.31734C38.8735 11.3421 37.2212 12.4001 34.9817 12.4001H31.0344V11.178H34.9817Z" fill="#26353b"/>
<path fill-rule="evenodd" clip-rule="evenodd" d="M40.9211 1.20004H48.764V2.47675H44.9233V12.4001H43.5056V2.47675H39.665L40.9211 1.20004Z" fill="#26353b"/>
<path fill-rule="evenodd" clip-rule="evenodd" d="M94.4564 2.61499C92.0648 2.61499 90.1194 4.58208 90.1194 7.00013C90.1194 9.41798 92.0648 11.3851 94.4564 11.3851C96.8479 11.3851 98.7933 9.41798 98.7933 7.00013C98.7933 4.58208 96.8479 2.61499 94.4564 2.61499ZM94.4564 12.8001C91.2933 12.8001 88.7202 10.1982 88.7202 7.00013C88.7202 3.8019 91.2933 1.20004 94.4564 1.20004C97.6195 1.20004 100.193 3.8019 100.193 7.00013C100.193 10.1982 97.6195 12.8001 94.4564 12.8001Z" fill="#26353b"/>
<path fill-rule="evenodd" clip-rule="evenodd" d="M6.04253 3.36853H21.2092L24.6159 -3.05176e-05H9.44922L6.04253 3.36853ZM22.4103 8.68435H0.666504L4.0732 5.31577H25.817L22.4103 8.68435ZM17.0344 14H2.43479L5.84148 10.6316H20.4411L17.0344 14Z" fill="#FD7250"/>
</g>
<defs>
<clipPath id="clip0_1958_22310">
<rect width="100" height="14" fill="white" transform="translate(0.5)"/>
</clipPath>
</defs>
</svg>
