<svg width="24" height="24" viewBox="0 0 24 24" fill="none" xmlns="http://www.w3.org/2000/svg">
<path d="M3 3H17C17.5304 3 18.0391 3.21071 18.4142 3.58579C18.7893 3.96086 19 4.46957 19 5V12.08C17.4954 11.8272 15.951 12.1561 14.68 13H11V17H12.08C11.97 17.68 11.97 18.35 12.08 19H3C2.46957 19 1.96086 18.7893 1.58579 18.4142C1.21071 18.0391 1 17.5304 1 17V5C1 3.9 1.9 3 3 3ZM3 7V11H9V7H3ZM11 7V11H17V7H11ZM3 13V17H9V13H3ZM22.78 19.32L21.71 18.5C21.73 18.33 21.75 18.17 21.75 18C21.75 17.83 21.74 17.67 21.71 17.5L22.77 16.68C22.8149 16.6415 22.8454 16.5887 22.8563 16.5306C22.8672 16.4724 22.8579 16.4122 22.83 16.36L21.83 14.63C21.77 14.5 21.64 14.5 21.5 14.5L20.28 15C20 14.82 19.74 14.65 19.43 14.53L19.24 13.21C19.23 13.09 19.12 13 19 13H17C16.88 13 16.77 13.09 16.75 13.21L16.56 14.53C16.26 14.66 15.97 14.82 15.71 15L14.47 14.5C14.36 14.5 14.23 14.5 14.16 14.63L13.16 16.36C13.1 16.47 13.12 16.6 13.22 16.68L14.28 17.5C14.2401 17.8321 14.2401 18.1679 14.28 18.5L13.22 19.32C13.1751 19.3585 13.1446 19.4113 13.1337 19.4694C13.1228 19.5276 13.1321 19.5878 13.16 19.64L14.16 21.37C14.22 21.5 14.35 21.5 14.47 21.5L15.71 21C15.97 21.18 16.25 21.35 16.56 21.47L16.75 22.79C16.77 22.91 16.87 23 17 23H19C19.12 23 19.23 22.91 19.25 22.79L19.44 21.47C19.74 21.34 20 21.18 20.28 21L21.5 21.5C21.64 21.5 21.77 21.5 21.84 21.37L22.84 19.64C22.8679 19.5878 22.8772 19.5276 22.8663 19.4694C22.8554 19.4113 22.8249 19.3585 22.78 19.32ZM18 19.5C17.17 19.5 16.5 18.83 16.5 18C16.5 17.17 17.18 16.5 18 16.5C18.82 16.5 19.5 17.17 19.5 18C19.5 18.83 18.84 19.5 18 19.5Z" fill="#26353b"/>
</svg>
