<svg width="24" height="24" viewBox="0 0 24 24" fill="none" xmlns="http://www.w3.org/2000/svg">
<path d="M4 4C2.895 4 2 4.895 2 6V18C2 19.105 2.895 20 4 20H20C21.105 20 22 19.105 22 18V6C22 4.895 21.105 4 20 4H4ZM14.3887 9C15.0087 9 15.7324 9.31055 15.7324 9.31055L15.4219 10.5508C15.4219 10.5508 14.9047 10.1367 14.3887 10.1367C13.6657 10.1367 13.459 10.4478 13.459 10.7578C13.459 11.4808 15.5254 11.5823 15.5254 13.0293C15.5244 14.2673 14.0784 15.0942 13.1484 14.9902C12.1154 14.9902 11.5996 14.6816 11.5996 14.6816L11.8066 13.4414C11.8066 13.4414 12.426 13.752 13.252 13.752C14.078 13.752 14.1816 13.4404 14.1816 13.2344C14.1816 12.3044 12.1152 12.6149 12.1152 10.7559C12.1152 9.82586 12.8387 9 14.3887 9ZM7.88086 9.10352H9.32617L7.15625 14.8887H5.60742L4.4707 10.2402C4.4707 10.2402 5.71059 10.9627 6.43359 12.7188C6.43359 12.9257 6.53711 13.2363 6.53711 13.2363L7.88086 9.10352ZM17.9004 9.10352H19.4492L20.5859 14.8887H19.3457L19.1387 14.0625H17.2793L16.9707 14.8887H15.5234L17.9004 9.10352ZM9.94531 9.20508H11.4941L10.5645 14.9902H9.11914L9.94531 9.20508ZM2.71484 9.20703H4.98828C5.60828 9.20703 5.81445 9.72266 5.81445 9.72266L6.33008 12.3047C5.71008 10.1357 2.71484 9.20703 2.71484 9.20703ZM18.416 10.8594L17.5898 13.0293H18.8281L18.416 10.8594Z" fill="#26353b"/>
</svg>
