<svg width="39" height="24" viewBox="0 0 39 24" fill="none" xmlns="http://www.w3.org/2000/svg">
<rect width="38.4" height="24" rx="1" fill="#26353b"/>
<path d="M11.6816 14.6471H7.96254L7.25549 16.8529H5L8.83221 6.14706H10.7978L14.6512 16.8529H12.3957L11.6816 14.6471ZM8.53525 12.8603H11.1089L9.81501 8.85294L8.53525 12.8603Z" fill="white"/>
<path d="M23.3837 13.2868C23.3036 14.4387 22.8935 15.3456 22.1534 16.0074C21.4181 16.6691 20.4471 17 19.2404 17C17.9206 17 16.8812 16.5392 16.1223 15.6176C15.3681 14.6912 14.991 13.4216 14.991 11.8088V11.1544C14.991 10.125 15.1654 9.21814 15.5142 8.43382C15.8631 7.64951 16.3603 7.04902 17.0061 6.63235C17.6566 6.21078 18.4108 6 19.2687 6C20.4565 6 21.4134 6.33088 22.1393 6.99265C22.8652 7.65441 23.2847 8.58333 23.3979 9.77941H21.2767C21.2249 9.08824 21.0387 8.58824 20.7181 8.27941C20.4023 7.96569 19.9192 7.80882 19.2687 7.80882C18.5616 7.80882 18.0313 8.07353 17.6778 8.60294C17.329 9.12745 17.1499 9.94363 17.1405 11.0515V11.8603C17.1405 13.0172 17.3078 13.8627 17.6425 14.3971C17.9818 14.9314 18.5145 15.1985 19.2404 15.1985C19.8956 15.1985 20.3835 15.0441 20.704 14.7353C21.0292 14.4216 21.2154 13.9387 21.2626 13.2868H23.3837Z" fill="white"/>
<path d="M33 16.8529H30.8789V12.2647H26.7426V16.8529H24.6215V6.14706H26.7426V10.4853H30.8789V6.14706H33V16.8529Z" fill="white"/>
</svg>
