<svg width="24" height="24" viewBox="0 0 24 24" fill="none" xmlns="http://www.w3.org/2000/svg">
<path d="M20 4H4C3.46957 4 2.96086 4.21071 2.58579 4.58579C2.21071 4.96086 2 5.46957 2 6V18C2 18.5304 2.21071 19.0391 2.58579 19.4142C2.96086 19.7893 3.46957 20 4 20H13.09C13.0294 19.6701 12.9993 19.3354 13 19C13 17.4087 13.6321 15.8826 14.7574 14.7574C15.8826 13.6321 17.4087 13 19 13C20.0545 12.9961 21.0907 13.2759 22 13.81V6C22 5.46957 21.7893 4.96086 21.4142 4.58579C21.0391 4.21071 20.5304 4 20 4ZM20 11H4V8H20V11ZM20 15V18H23V20H20V23H18V20H15V18H18V15H20Z" fill="#26353b"/>
</svg>
