<svg width="24" height="24" viewBox="0 0 24 24" fill="none" xmlns="http://www.w3.org/2000/svg">
<path d="M14 3C10.59 3 7.69 4.07 6.54 5.57L11.79 10.82C12.5 10.93 13.22 11 14 11C18.42 11 22 9.21 22 7C22 4.79 18.42 3 14 3ZM5.92 7.08L4.5 8.5L7 11H2V13H7L4.5 15.5L5.92 16.92L10.84 12L5.92 7.08ZM22 9C22 11.21 18.42 13 14 13C13.34 13 12.7 12.95 12.09 12.87L9.62 15.34C10.88 15.75 12.38 16 14 16C18.42 16 22 14.21 22 12V9ZM22 14C22 16.21 18.42 18 14 18C11.72 18 9.67 17.5 8.21 16.75L6.53 18.43C7.68 19.93 10.59 21 14 21C18.42 21 22 19.21 22 17" fill="#26353b"/>
</svg>
