<svg width="24" height="24" viewBox="0 0 24 24" fill="none" xmlns="http://www.w3.org/2000/svg">
<path d="M17.81 4.47C17.73 4.47 17.65 4.45 17.58 4.41C15.66 3.42 14 3 12 3C10.03 3 8.15001 3.47 6.44001 4.41C6.20001 4.54 5.90001 4.45 5.76001 4.21C5.69764 4.09305 5.68366 3.95629 5.72105 3.82913C5.75845 3.70197 5.84425 3.59457 5.96001 3.53C7.82001 2.5 9.86001 2 12 2C14.14 2 16 2.47 18.04 3.5C18.29 3.65 18.38 3.95 18.25 4.19C18.2115 4.27412 18.1494 4.3453 18.0714 4.39497C17.9933 4.44465 17.9025 4.4707 17.81 4.47ZM3.50001 9.72C3.40001 9.72 3.30001 9.69 3.21001 9.63C3.10439 9.55072 3.03311 9.43403 3.01079 9.30387C2.98848 9.1737 3.01682 9.03993 3.09001 8.93C4.08001 7.53 5.34001 6.43 6.84001 5.66C10 4.04 14 4.03 17.15 5.65C18.65 6.42 19.91 7.5 20.9 8.9C21.06 9.12 21 9.44 20.78 9.6C20.55 9.76 20.24 9.71 20.08 9.5C19.2107 8.24949 18.0463 7.23278 16.69 6.54C13.82 5.07 10.15 5.07 7.29001 6.55C5.93001 7.25 4.79001 8.25 3.89001 9.5C3.81001 9.65 3.66001 9.72 3.50001 9.72ZM9.75001 21.79C9.62001 21.79 9.50001 21.74 9.40001 21.64C8.53001 20.77 8.06001 20.21 7.39001 19C6.70001 17.77 6.34001 16.27 6.34001 14.66C6.34001 11.69 8.88001 9.27 12 9.27C15.12 9.27 17.66 11.69 17.66 14.66C17.66 14.7926 17.6073 14.9198 17.5136 15.0136C17.4198 15.1073 17.2926 15.16 17.16 15.16C17.0274 15.16 16.9002 15.1073 16.8065 15.0136C16.7127 14.9198 16.66 14.7926 16.66 14.66C16.66 12.24 14.57 10.27 12 10.27C9.43001 10.27 7.34001 12.24 7.34001 14.66C7.34001 16.1 7.66001 17.43 8.27001 18.5C8.91001 19.66 9.35001 20.15 10.12 20.93C10.31 21.13 10.31 21.44 10.12 21.64C10 21.74 9.88001 21.79 9.75001 21.79ZM16.92 19.94C15.73 19.94 14.68 19.64 13.82 19.05C12.33 18.04 11.44 16.4 11.44 14.66C11.44 14.5274 11.4927 14.4002 11.5865 14.3064C11.6802 14.2127 11.8074 14.16 11.94 14.16C12.0726 14.16 12.1998 14.2127 12.2936 14.3064C12.3873 14.4002 12.44 14.5274 12.44 14.66C12.44 16.07 13.16 17.4 14.38 18.22C15.09 18.7 15.92 18.93 16.92 18.93C17.16 18.93 17.56 18.9 17.96 18.83C18.23 18.78 18.5 18.96 18.54 19.24C18.59 19.5 18.41 19.77 18.13 19.82C17.56 19.93 17.06 19.94 16.92 19.94ZM14.91 22H14.78C13.19 21.54 12.15 20.95 11.06 19.88C10.3685 19.1986 9.82031 18.3857 9.44764 17.4892C9.07498 16.5928 8.88538 15.6308 8.89001 14.66C8.89001 13.04 10.27 11.72 11.97 11.72C13.67 11.72 15.05 13.04 15.05 14.66C15.05 15.73 16 16.6 17.13 16.6C18.28 16.6 19.21 15.73 19.21 14.66C19.21 10.89 15.96 7.83 11.96 7.83C9.12001 7.83 6.50001 9.41 5.35001 11.86C4.96001 12.67 4.76001 13.62 4.76001 14.66C4.76001 15.44 4.83001 16.67 5.43001 18.27C5.53001 18.53 5.40001 18.82 5.14001 18.91C5.01657 18.9545 4.88065 18.9491 4.76114 18.8949C4.64163 18.8408 4.54795 18.7421 4.50001 18.62C4.00001 17.31 3.77001 16 3.77001 14.66C3.77001 13.46 4.00001 12.37 4.45001 11.42C5.78001 8.63 8.73001 6.82 11.96 6.82C16.5 6.82 20.21 10.33 20.21 14.65C20.21 16.27 18.83 17.59 17.13 17.59C15.43 17.59 14.05 16.27 14.05 14.65C14.05 13.58 13.12 12.71 11.97 12.71C10.82 12.71 9.89001 13.58 9.89001 14.65C9.89001 16.36 10.55 17.96 11.76 19.16C12.71 20.1 13.62 20.62 15.03 21C15.3 21.08 15.45 21.36 15.38 21.62C15.33 21.85 15.12 22 14.91 22Z" fill="#26353b"/>
</svg>
