<svg width="24" height="24" viewBox="0 0 24 24" fill="none" xmlns="http://www.w3.org/2000/svg">
<path d="M7.02911 20.9998H3.29732V8.98237H7.02911V20.9998ZM5.16121 7.34308C3.9679 7.34308 3 6.35469 3 5.16139C3 4.5882 3.2277 4.03849 3.633 3.63319C4.03831 3.22788 4.58802 3.00018 5.16121 3.00018C5.73439 3.00018 6.2841 3.22788 6.68941 3.63319C7.09471 4.03849 7.32241 4.5882 7.32241 5.16139C7.32241 6.35469 6.35411 7.34308 5.16121 7.34308ZM20.996 20.9998H17.2722V15.1498C17.2722 13.7556 17.2441 11.9676 15.332 11.9676C13.3918 11.9676 13.0945 13.4824 13.0945 15.0493V20.9998H9.3667V8.98237H12.9458V10.6217H12.998C13.4963 9.67746 14.7133 8.68103 16.5289 8.68103C20.3057 8.68103 21 11.1681 21 14.3984V20.9998H20.996Z" fill="#26353b"/>
</svg>
