<svg width="24" height="24" viewBox="0 0 24 24" fill="none" xmlns="http://www.w3.org/2000/svg">
<path d="M4 4C2.895 4 2 4.895 2 6V18C2 19.105 2.895 20 4 20H20C21.105 20 22 19.105 22 18V6C22 4.895 21.105 4 20 4H4ZM10 8C10.733 8 11.412 8.21069 12.002 8.55469C12.593 8.21169 13.269 8 14 8C16.206 8 18 9.794 18 12C18 14.206 16.206 16 14 16C13.269 16 12.593 15.7893 12.002 15.4453C11.412 15.7893 10.733 16 10 16C7.791 16 6 14.209 6 12C6 9.791 7.791 8 10 8ZM14 10C13.821 10 13.6513 10.0302 13.4863 10.0742C13.8043 10.6482 14 11.298 14 12C14 12.702 13.8043 13.3518 13.4863 13.9258C13.6513 13.9698 13.821 14 14 14C15.103 14 16 13.103 16 12C16 10.897 15.103 10 14 10Z" fill="#26353b"/>
</svg>
