<svg width="24" height="24" viewBox="0 0 24 24" fill="none" xmlns="http://www.w3.org/2000/svg">
<path d="M12 2C9.34784 2 6.8043 3.05357 4.92893 4.92893C3.05357 6.8043 2 9.34784 2 12C2 14.6522 3.05357 17.1957 4.92893 19.0711C6.8043 20.9464 9.34784 22 12 22C14.6522 22 17.1957 20.9464 19.0711 19.0711C20.9464 17.1957 22 14.6522 22 12C22 9.34784 20.9464 6.8043 19.0711 4.92893C17.1957 3.05357 14.6522 2 12 2ZM12 19.7778C9.93721 19.7778 7.9589 18.9583 6.50028 17.4997C5.04166 16.0411 4.22222 14.0628 4.22222 12C4.22222 9.93721 5.04166 7.9589 6.50028 6.50028C7.9589 5.04166 9.93721 4.22222 12 4.22222C14.0628 4.22222 16.0411 5.04166 17.4997 6.50028C18.9583 7.9589 19.7778 9.93721 19.7778 12C19.7778 14.0628 18.9583 16.0411 17.4997 17.4997C16.0411 18.9583 14.0628 19.7778 12 19.7778ZM13.1111 17.5556H10.8889V6.44444H13.1111V17.5556Z" fill="#26353b"/>
</svg>
