<svg width="105" height="56" viewBox="0 0 105 56" fill="none" xmlns="http://www.w3.org/2000/svg">
<path d="M38 25.24L30.81 24.62L28 18L25.19 24.63L18 25.24L23.46 29.97L21.82 37L28 33.27L34.18 37L32.55 29.97L38 25.24ZM28 31.4L24.24 33.67L25.24 29.39L21.92 26.51L26.3 26.13L28 22.1L29.71 26.14L34.09 26.52L30.77 29.4L31.77 33.68L28 31.4Z" fill="#26353b"/>
<path d="M77 33.27L83.18 37L81.54 29.97L87 25.24L79.81 24.63L77 18L74.19 24.63L67 25.24L72.46 29.97L70.82 37L77 33.27Z" fill="#26353b"/>
<rect x="0.5" y="0.5" width="104" height="55" rx="4.5" stroke="#7B61FF" stroke-dasharray="10 5"/>
</svg>
