<?xml version="1.0" encoding="utf-8"?>
<svg xmlns="http://www.w3.org/2000/svg" style="display: none" width="0" height="0">

<symbol id="mdi-account-card" viewBox="0 0 24 24">
  <path d="M7 12c2.2 0 4-1.8 4-4S9.2 4 7 4 3 5.8 3 8s1.8 4 4 4Zm4 8v-5.3c-1.1-.4-2.5-.7-4-.7-3.9 0-7 1.8-7 4v2h11Zm4-16c-1.1 0-2 .9-2 2v12c0 1.1.9 2 2 2h7c1.1 0 2-.9 2-2V6c0-1.1-.9-2-2-2h-7Z"/>
</symbol>

<symbol id="mdi-account-cash" viewBox="0 0 24 24">
  <path d="M11 8c0 2.21-1.79 4-4 4s-4-1.79-4-4 1.79-4 4-4 4 1.79 4 4Zm0 6.72V20H0v-2c0-2.21 3.13-4 7-4 1.5 0 2.87.27 4 .72ZM24 20H13V3h11v17Zm-8-8.5a2.5 2.5 0 1 1 5 0 2.5 2.5 0 0 1-5 0ZM22 7a2 2 0 0 1-2-2h-3c0 1.11-.89 2-2 2v9a2 2 0 0 1 2 2h3c0-1.1.9-2 2-2V7Z"/>
</symbol>

<symbol id="mdi-account-circle" viewBox="0 0 24 24">
  <path d="M12 19.2c-2.5 0-4.71-1.28-6-3.2.03-2 4-3.1 6-3.1s5.97 1.1 6 3.1a7.232 7.232 0 0 1-6 3.2ZM12 5a3 3 0 1 1 0 6 3 3 0 0 1 0-6Zm0-3a10 10 0 1 0 10 10c0-5.53-4.5-10-10-10Z"/>
</symbol>

<symbol id="mdi-account-cog" viewBox="0 0 24 24">
  <path d="M10 4a4 4 0 1 0 0 8 4 4 0 0 0 0-8Zm7 8a.26.26 0 0 0-.26.21l-.19 1.32c-.3.13-.59.29-.85.47l-1.24-.5c-.11 0-.24 0-.31.13l-1 1.73c-.06.11-.04.24.06.32l1.06.82c-.04.332-.04.668 0 1l-1.06.82a.26.26 0 0 0-.06.32l1 1.73c.06.13.19.13.31.13l1.24-.5c.26.18.54.35.85.47l.19 1.32c.02.12.12.21.26.21h2c.11 0 .22-.09.24-.21l.19-1.32c.3-.13.57-.29.84-.47l1.23.5c.13 0 .26 0 .33-.13l1-1.73a.26.26 0 0 0-.06-.32l-1.07-.82c.02-.17.04-.33.04-.5 0-.17-.01-.33-.04-.5l1.06-.82a.26.26 0 0 0 .06-.32l-1-1.73c-.06-.13-.19-.13-.32-.13l-1.23.5c-.27-.18-.54-.35-.85-.47l-.19-1.32A.236.236 0 0 0 19 12h-2Zm-7 2c-4.42 0-8 1.79-8 4v2h9.68a7 7 0 0 1-.68-3 7 7 0 0 1 .64-2.91c-.53-.06-1.08-.09-1.64-.09Zm8 1.5c.83 0 1.5.67 1.5 1.5s-.67 1.5-1.5 1.5c-.84 0-1.5-.67-1.5-1.5s.67-1.5 1.5-1.5Z"/>
</symbol>

<symbol id="mdi-account-group" viewBox="0 0 24 24">
  <path d="M12 5.5a3.5 3.5 0 1 1 0 7 3.5 3.5 0 0 1 0-7ZM5 8c.56 0 1.08.15 1.53.42-.15 1.43.27 2.85 1.13 3.96A2.997 2.997 0 0 1 2 11a3 3 0 0 1 3-3Zm14 0a3 3 0 0 1 0 6c-1.16 0-2.16-.66-2.66-1.62a5.536 5.536 0 0 0 1.13-3.96c.45-.27.97-.42 1.53-.42ZM5.5 18.25c0-2.07 2.91-3.75 6.5-3.75s6.5 1.68 6.5 3.75V20h-13v-1.75ZM0 20v-1.5c0-1.39 1.89-2.56 4.45-2.9-.59.68-.95 1.62-.95 2.65V20H0Zm24 0h-3.5v-1.75c0-1.03-.36-1.97-.95-2.65 2.56.34 4.45 1.51 4.45 2.9V20Z"/>
</symbol>

<symbol id="mdi-account-multiple" viewBox="0 0 24 24">
  <path d="M16 17v2H2v-2s0-4 7-4 7 4 7 4Zm-3.5-9.5a3.5 3.5 0 1 0-7 0 3.5 3.5 0 0 0 7 0Zm3.44 5.5A5.32 5.32 0 0 1 18 17v2h4v-2s0-3.63-6.06-4ZM15 4a3.39 3.39 0 0 0-1.93.59 5 5 0 0 1 0 5.82A3.39 3.39 0 0 0 15 11a3.5 3.5 0 0 0 0-7Z"/>
</symbol>

<symbol id="mdi-account-plus" viewBox="0 0 24 24">
  <path d="M15 14c-2.67 0-8 1.33-8 4v2h16v-2c0-2.67-5.33-4-8-4Zm-9-4V7H4v3H1v2h3v3h2v-3h3v-2H6Zm9 2a4 4 0 1 0 0-8 4 4 0 0 0 0 8Z"/>
</symbol>

<symbol id="mdi-account-remove" viewBox="0 0 24 24">
  <path d="M15 14c2.67 0 8 1.33 8 4v2H7v-2c0-2.67 5.33-4 8-4Zm0-2a4 4 0 1 1 0-8 4 4 0 0 1 0 8ZM5 9.59l2.12-2.13 1.42 1.42L6.41 11l2.13 2.12-1.42 1.42L5 12.41l-2.12 2.13-1.42-1.42L3.59 11 1.46 8.88l1.42-1.42L5 9.59Z"/>
</symbol>

<symbol id="mdi-account-switch" viewBox="0 0 24 24">
  <path d="M16 9c6 0 6 4 6 4v2h-6v-2s0-1.69-1.15-3.2c-.17-.23-.38-.45-.6-.66C14.77 9.06 15.34 9 16 9ZM2 13s0-4 6-4 6 4 6 4v2H2v-2Zm7 4v2h6v-2l3 3-3 3v-2H9v2l-3-3 3-3ZM8 1C6.34 1 5 2.34 5 4s1.34 3 3 3 3-1.34 3-3-1.34-3-3-3Zm8 0c-1.66 0-3 1.34-3 3s1.34 3 3 3 3-1.34 3-3-1.34-3-3-3Z"/>
</symbol>

<symbol id="mdi-account" viewBox="0 0 24 24">
  <path d="M12 4a4 4 0 1 1 0 8 4 4 0 0 1 0-8Zm0 10c4.42 0 8 1.79 8 4v2H4v-2c0-2.21 3.58-4 8-4Z"/>
</symbol>

<symbol id="mdi-plus-circle" viewBox="0 0 24 24">
  <path d="M17 13h-4v4h-2v-4H7v-2h4V7h2v4h4m-5-9a10 10 0 1 0 0 20 10 10 0 0 0 0-20Z"/>
</symbol>

<symbol id="mdi-alert-circle" viewBox="0 0 24 24">
  <path d="M13 13h-2V7h2v6Zm0 4h-2v-2h2v2ZM12 2a10 10 0 1 0 0 20 10 10 0 0 0 0-20Z"/>
</symbol>

<symbol id="mdi-alert-rhombus" viewBox="0 0 24 24">
  <path d="M12 2c-.5 0-1 .19-1.41.59l-8 8c-.79.78-.79 2.04 0 2.82l8 8c.78.79 2.04.79 2.82 0l8-8c.79-.78.79-2.04 0-2.82l-8-8C13 2.19 12.5 2 12 2Zm-1 5h2v6h-2V7Zm0 8h2v2h-2v-2Z"/>
</symbol>

<symbol id="mdi-alert" viewBox="0 0 24 24">
  <path d="M13 14h-2V9h2v5Zm0 4h-2v-2h2v2ZM1 21h22L12 2 1 21Z"/>
</symbol>

<symbol id="mdi-application-cog" viewBox="0 0 24 24">
  <path d="M21.7 18.6v-1l1.1-.8c.1-.1.2-.2.1-.3l-1-1.7c0-.1-.2-.1-.3-.1l-1.2.5c-.3-.2-.6-.4-.9-.5l-.2-1.3c0-.1-.1-.2-.2-.2h-2c-.2 0-.3.1-.3.2l-.2 1.3c-.3.2-.5.3-.8.5l-1.2-.5c-.1 0-.2 0-.3.1l-1 1.7c0 .1 0 .2.1.3l1.1.8v1l-1.1.8c-.1.1-.2.2-.1.3l1 1.7c.1.1.2.1.3.1l1.2-.5c.2.2.5.4.8.5l.2 1.3c.1.1.2.2.3.2h2c.1 0 .2-.1.2-.2l.2-1.3c.3-.2.5-.3.8-.5l1.2.4c.1 0 .2 0 .3-.1l1-1.7c.1-.1.1-.2 0-.2l-1.1-.8Zm-3.7.9c-.8 0-1.5-.7-1.5-1.5s.7-1.5 1.5-1.5 1.5.7 1.5 1.5-.7 1.5-1.5 1.5Zm-6.71.5H5a2 2 0 0 1-2-2V6a2 2 0 0 1 2-2h14a2 2 0 0 1 2 2v5.68a7.03 7.03 0 0 0-2-.6V8H5v10h6c0 .7.11 1.37.29 2Z"/>
</symbol>

<symbol id="mdi-application-import" viewBox="0 0 24 24">
  <path d="M1 12h9.76l-2.5-2.5 1.41-1.42L14.59 13l-4.92 4.92-1.41-1.42 2.5-2.5H1v-2Zm18-9a2 2 0 0 1 2 2v14a2 2 0 0 1-2 2H5a2 2 0 0 1-2-2v-3h2v3h14V7H5v3H3V5a2 2 0 0 1 2-2h14Z"/>
</symbol>

<symbol id="mdi-archive" viewBox="0 0 24 24">
  <path d="M3 3h18v4H3V3Zm1 5h16v13H4V8Zm5.5 3a.5.5 0 0 0-.5.5V13h6v-1.5a.5.5 0 0 0-.5-.5h-5Z"/>
</symbol>

<symbol id="mdi-arrow-collapse-horizontal" viewBox="0 0 24 24">
  <path d="M13 20V4h2.03v16H13Zm-3 0V4h2.03v16H10ZM5 8l4.03 4L5 16v-3H2v-2h3V8Zm15 8-4-4 4-4v3h3v2h-3v3Z"/>
</symbol>

<symbol id="mdi-arrow-collapse" viewBox="0 0 24 24">
  <path d="M19.5 3.09 15 7.59V4h-2v7h7V9h-3.59l4.5-4.5-1.41-1.41ZM4 13v2h3.59l-4.5 4.5 1.41 1.41 4.5-4.5V20h2v-7H4Z"/>
</symbol>

<symbol id="mdi-arrow-down-thick" viewBox="0 0 24 24">
  <path d="M10 4h4v9l3.5-3.5 2.42 2.42L12 19.84l-7.92-7.92L6.5 9.5 10 13V4Z"/>
</symbol>

<symbol id="mdi-arrow-down" viewBox="0 0 24 24">
  <path d="M11 4h2v12l5.5-5.5 1.42 1.42L12 19.84l-7.92-7.92L5.5 10.5 11 16V4Z"/>
</symbol>

<symbol id="mdi-arrow-expand-left" viewBox="0 0 24 24">
  <path d="M20 22h2V2h-2v9H5.83l5.5-5.5-1.41-1.42L2 12l7.92 7.92 1.41-1.42-5.5-5.5H20v9Z"/>
</symbol>

<symbol id="mdi-arrow-expand-right" viewBox="0 0 24 24">
  <path d="M4 2H2v20h2v-9h14.17l-5.5 5.5 1.41 1.42L22 12l-7.92-7.92-1.41 1.42 5.5 5.5H4V2Z"/>
</symbol>

<symbol id="mdi-arrow-left-thick" viewBox="0 0 24 24">
  <path d="M20 10v4h-9l3.5 3.5-2.42 2.42L4.16 12l7.92-7.92L14.5 6.5 11 10h9Z"/>
</symbol>

<symbol id="mdi-arrow-left" viewBox="0 0 24 24">
  <path d="M20 11v2H8l5.5 5.5-1.42 1.42L4.16 12l7.92-7.92L13.5 5.5 8 11h12Z"/>
</symbol>

<symbol id="mdi-arrow-right-thick" viewBox="0 0 24 24">
  <path d="M4 10v4h9l-3.5 3.5 2.42 2.42L19.84 12l-7.92-7.92L9.5 6.5 13 10H4Z"/>
</symbol>

<symbol id="mdi-arrow-right" viewBox="0 0 24 24">
  <path d="M4 11v2h12l-5.5 5.5 1.42 1.42L19.84 12l-7.92-7.92L10.5 5.5 16 11H4Z"/>
</symbol>

<symbol id="mdi-arrow-up-thick" viewBox="0 0 24 24">
  <path d="M14 20h-4v-9l-3.5 3.5-2.42-2.42L12 4.16l7.92 7.92-2.42 2.42L14 11v9Z"/>
</symbol>

<symbol id="mdi-arrow-up" viewBox="0 0 24 24">
  <path d="M13 20h-2V8l-5.5 5.5-1.42-1.42L12 4.16l7.92 7.92-1.42 1.42L13 8v12Z"/>
</symbol>

<symbol id="mdi-auto-fix" viewBox="0 0 24 24">
  <path d="M7.5 5.6 5 7l1.4-2.5L5 2l2.5 1.4L10 2 8.6 4.5 10 7 7.5 5.6Zm12 9.8L22 14l-1.4 2.5L22 19l-2.5-1.4L17 19l1.4-2.5L17 14l2.5 1.4ZM22 2l-1.4 2.5L22 7l-2.5-1.4L17 7l1.4-2.5L17 2l2.5 1.4L22 2Zm-8.66 10.78 2.44-2.44-2.12-2.12-2.44 2.44 2.12 2.12Zm1.03-5.49 2.34 2.34c.39.37.39 1.02 0 1.41L5.04 22.71c-.39.39-1.04.39-1.41 0l-2.34-2.34c-.39-.37-.39-1.02 0-1.41L12.96 7.29c.39-.39 1.04-.39 1.41 0Z"/>
</symbol>

<symbol id="mdi-bank" viewBox="0 0 24 24">
  <path d="m12 1.5-9.5 5v2h19v-2l-9.5-5Zm4.5 9v7h3v-7h-3Zm-14 12h19v-3h-19v3Zm8-12v7h3v-7h-3Zm-6 0v7h3v-7h-3Z"/>
</symbol>

<symbol id="mdi-bell" viewBox="0 0 24 24">
  <path d="M21 19v1H3v-1l2-2v-6c0-3.1 2.03-5.83 5-6.71V4a2 2 0 1 1 4 0v.29c2.97.88 5 3.61 5 6.71v6l2 2Zm-7 2a2 2 0 0 1-4 0"/>
</symbol>

<symbol id="mdi-book-open" viewBox="0 0 24 24">
  <path d="M13 12h7v1.5h-7V12Zm0-2.5h7V11h-7V9.5Zm0 5h7V16h-7v-1.5ZM21 4H3a2 2 0 0 0-2 2v13a2 2 0 0 0 2 2h18a2 2 0 0 0 2-2V6a2 2 0 0 0-2-2Zm0 15h-9V6h9"/>
</symbol>

<symbol id="mdi-bookmark-box-multiple" viewBox="0 0 24 24">
  <path d="M4 6H2v14a2 2 0 0 0 2 2h14v-2H4V6Zm16-4H8a2 2 0 0 0-2 2v12a2 2 0 0 0 2 2h12a2 2 0 0 0 2-2V4a2 2 0 0 0-2-2Zm0 10-2.5-1.5L15 12V4h5v8Z"/>
</symbol>

<symbol id="mdi-briefcase-check" viewBox="0 0 24 24">
  <path d="M10 2h4a2 2 0 0 1 2 2v2h4a2 2 0 0 1 2 2v11a2 2 0 0 1-2 2H4a2 2 0 0 1-2-2V8a2 2 0 0 1 2-2h4V4a2 2 0 0 1 2-2Zm4 4V4h-4v2h4Zm-3.5 11.5 6.59-6.59-1.41-1.41-5.18 5.17-2.09-2.08L7 14l3.5 3.5Z"/>
</symbol>

<symbol id="mdi-briefcase" viewBox="0 0 24 24">
  <path d="M20 6h-4V4c0-1.11-.89-2-2-2h-4c-1.11 0-2 .89-2 2v2H4c-1.11 0-1.99.89-1.99 2L2 19c0 1.11.89 2 2 2h16c1.11 0 2-.89 2-2V8c0-1.11-.89-2-2-2Zm-6 0h-4V4h4v2Z"/>
</symbol>

<symbol id="mdi-calendar-clock" viewBox="0 0 24 24">
  <path d="M15 13h1.5v2.82l2.44 1.41-.75 1.3L15 16.69V13Zm4-5H5v11h4.67c-.43-.91-.67-1.93-.67-3a7 7 0 0 1 7-7c1.07 0 2.09.24 3 .67V8ZM5 21a2 2 0 0 1-2-2V5c0-1.11.89-2 2-2h1V1h2v2h8V1h2v2h1a2 2 0 0 1 2 2v6.1c1.24 1.26 2 2.99 2 4.9a7 7 0 0 1-7 7c-1.91 0-3.64-.76-4.9-2H5Zm11-9.85a4.85 4.85 0 1 0 0 9.7 4.85 4.85 0 0 0 0-9.7Z"/>
</symbol>

<symbol id="mdi-calendar-multiple" viewBox="0 0 24 24">
  <path d="M21 17V8H7v9h14Zm0-14a2 2 0 0 1 2 2v12a2 2 0 0 1-2 2H7a2 2 0 0 1-2-2V5a2 2 0 0 1 2-2h1V1h2v2h8V1h2v2h1ZM3 21h14v2H3a2 2 0 0 1-2-2V9h2v12Zm16-6h-4v-4h4v4Z"/>
</symbol>

<symbol id="mdi-calendar" viewBox="0 0 24 24">
  <path d="M19 19H5V8h14v11ZM16 1v2H8V1H6v2H5c-1.11 0-2 .89-2 2v14a2 2 0 0 0 2 2h14a2 2 0 0 0 2-2V5a2 2 0 0 0-2-2h-1V1h-2Zm1 11h-5v5h5v-5Z"/>
</symbol>

<symbol id="mdi-cancel" viewBox="0 0 24 24">
  <path d="M12 2c5.5 0 10 4.5 10 10s-4.5 10-10 10S2 17.5 2 12 6.5 2 12 2Zm0 2c-1.9 0-3.6.6-4.9 1.7l11.2 11.2c1-1.4 1.7-3.1 1.7-4.9 0-4.4-3.6-8-8-8Zm4.9 14.3L5.7 7.1C4.6 8.4 4 10.1 4 12c0 4.4 3.6 8 8 8 1.9 0 3.6-.6 4.9-1.7Z"/>
</symbol>

<symbol id="mdi-card-account-details" viewBox="0 0 24 24">
  <path d="M2 3h20c1.05 0 2 .95 2 2v14c0 1.05-.95 2-2 2H2c-1.05 0-2-.95-2-2V5c0-1.05.95-2 2-2Zm12 3v1h8V6h-8Zm0 2v1h8V8h-8Zm0 2v1h7v-1h-7Zm-6 3.91C6 13.91 2 15 2 17v1h12v-1c0-2-4-3.09-6-3.09ZM8 6a3 3 0 1 0 0 6 3 3 0 0 0 0-6Z"/>
</symbol>

<symbol id="mdi-cards-heart" viewBox="0 0 24 24">
  <path d="m12 21.35-1.45-1.32C5.4 15.36 2 12.27 2 8.5 2 5.41 4.42 3 7.5 3c1.74 0 3.41.81 4.5 2.08C13.09 3.81 14.76 3 16.5 3 19.58 3 22 5.41 22 8.5c0 3.77-3.4 6.86-8.55 11.53L12 21.35Z"/>
</symbol>

<symbol id="mdi-cash-100" viewBox="0 0 24 24">
  <path d="M2 5h20v15H2V5Zm18 13V7H4v11h16ZM17 8a2 2 0 0 0 2 2v5a2 2 0 0 0-2 2H7a2 2 0 0 0-2-2v-5a2 2 0 0 0 2-2h10Zm0 5v-1c0-1.1-.67-2-1.5-2s-1.5.9-1.5 2v1c0 1.1.67 2 1.5 2s1.5-.9 1.5-2Zm-1.5-2a.5.5 0 0 1 .5.5v2a.5.5 0 0 1-1 0v-2a.5.5 0 0 1 .5-.5ZM13 13v-1c0-1.1-.67-2-1.5-2s-1.5.9-1.5 2v1c0 1.1.67 2 1.5 2s1.5-.9 1.5-2Zm-1.5-2a.5.5 0 0 1 .5.5v2a.5.5 0 0 1-1 0v-2a.5.5 0 0 1 .5-.5ZM8 15h1v-5H8l-1 .5v1l1-.5v4Z"/>
</symbol>

<symbol id="mdi-cash-refund" viewBox="0 0 24 24">
  <path d="M12.3 8.93 9.88 6.5h5.62V10H17V5H9.88l2.42-2.43-1.06-1.07L7 5.75 11.24 10l1.06-1.07ZM12 14a3 3 0 1 0 0 5.999A3 3 0 0 0 12 14Zm-9-3v12h18V11H3Zm16 8a2 2 0 0 0-2 2H7a2 2 0 0 0-2-2v-4a2 2 0 0 0 2-2h10a2 2 0 0 0 2 2v4Z"/>
</symbol>

<symbol id="mdi-cellphone" viewBox="0 0 24 24">
  <path d="M17 19H7V5h10v14Zm0-18H7c-1.11 0-2 .89-2 2v18a2 2 0 0 0 2 2h10a2 2 0 0 0 2-2V3a2 2 0 0 0-2-2Z"/>
</symbol>

<symbol id="mdi-certificate" viewBox="0 0 24 24">
  <path d="M4 3c-1.11 0-2 .89-2 2v10a2 2 0 0 0 2 2h8v5l3-3 3 3v-5h2a2 2 0 0 0 2-2V5a2 2 0 0 0-2-2H4Zm8 2 3 2 3-2v3.5l3 1.5-3 1.5V15l-3-2-3 2v-3.5L9 10l3-1.5V5ZM4 5h5v2H4V5Zm0 4h3v2H4V9Zm0 4h5v2H4v-2Z"/>
</symbol>

<symbol id="mdi-check-circle" viewBox="0 0 24 24">
  <path d="M12 2C6.5 2 2 6.5 2 12s4.5 10 10 10 10-4.5 10-10S17.5 2 12 2Zm-2 15-5-5 1.41-1.41L10 14.17l7.59-7.59L19 8l-9 9Z"/>
</symbol>

<symbol id="mdi-check" viewBox="0 0 24 24">
  <path d="M21 7 9 19l-5.5-5.5 1.41-1.41L9 16.17 19.59 5.59 21 7Z"/>
</symbol>

<symbol id="mdi-chevron-down" viewBox="0 0 24 24">
  <path d="M7.41 8.58 12 13.17l4.59-4.59L18 10l-6 6-6-6 1.41-1.42Z"/>
</symbol>

<symbol id="mdi-chevron-left" viewBox="0 0 24 24">
  <path d="M15.41 16.58 10.83 12l4.58-4.59L14 6l-6 6 6 6 1.41-1.42Z"/>
</symbol>

<symbol id="mdi-chevron-right" viewBox="0 0 24 24">
  <path d="M8.59 16.58 13.17 12 8.59 7.41 10 6l6 6-6 6-1.41-1.42Z"/>
</symbol>

<symbol id="mdi-chevron-up" viewBox="0 0 24 24">
  <path d="M7.41 15.41 12 10.83l4.59 4.58L18 14l-6-6-6 6 1.41 1.41Z"/>
</symbol>

<symbol id="mdi-city" viewBox="0 0 24 24">
  <path d="M19 15h-2v-2h2v2Zm0 4h-2v-2h2v2ZM13 7h-2V5h2v2Zm0 4h-2V9h2v2Zm0 4h-2v-2h2v2Zm0 4h-2v-2h2v2Zm-6-8H5V9h2v2Zm0 4H5v-2h2v2Zm0 4H5v-2h2v2Zm8-8V5l-3-3-3 3v2H3v14h18V11h-6Z"/>
</symbol>

<symbol id="mdi-account-check" viewBox="0 0 24 24">
  <path d="m21.1 12.5 1.4 1.41-6.53 6.59L12.5 17l1.4-1.41 2.07 2.08 5.13-5.17ZM11 4a4 4 0 1 1 0 8 4 4 0 0 1 0-8Zm0 2a2 2 0 1 0 0 4 2 2 0 0 0 0-4Zm0 7c.68 0 1.5.09 2.41.26l-1.67 1.67-.74-.03c-2.97 0-6.1 1.46-6.1 2.1v1.1h6.2L13 20H3v-3c0-2.66 5.33-4 8-4Z"/>
</symbol>

<symbol id="mdi-clipboard-check" viewBox="0 0 24 24">
  <path d="m10 17-4-4 1.41-1.41L10 14.17l6.59-6.59L18 9l-8 8Zm2-14a1 1 0 1 1 0 2 1 1 0 0 1 0-2Zm7 0h-4.18C14.4 1.84 13.3 1 12 1c-1.3 0-2.4.84-2.82 2H5a2 2 0 0 0-2 2v14a2 2 0 0 0 2 2h14a2 2 0 0 0 2-2V5a2 2 0 0 0-2-2Z"/>
</symbol>

<symbol id="mdi-clock" viewBox="0 0 24 24">
  <path d="M12 2a10 10 0 1 0 0 20 10 10 0 0 0 0-20m4.2 14.2L11 13V7h1.5v5.2l4.5 2.7-.8 1.3Z"/>
</symbol>

<symbol id="mdi-close-circle" viewBox="0 0 24 24">
  <path d="M12 2c5.53 0 10 4.47 10 10s-4.47 10-10 10S2 17.53 2 12 6.47 2 12 2Zm3.59 5L12 10.59 8.41 7 7 8.41 10.59 12 7 15.59 8.41 17 12 13.41 15.59 17 17 15.59 13.41 12 17 8.41 15.59 7Z"/>
</symbol>

<symbol id="mdi-close" viewBox="0 0 24 24">
  <path d="M19 6.41 17.59 5 12 10.59 6.41 5 5 6.41 10.59 12 5 17.59 6.41 19 12 13.41 17.59 19 19 17.59 13.41 12 19 6.41Z"/>
</symbol>

<symbol id="mdi-cog-transfer" viewBox="0 0 24 24">
  <path d="M14 18v-2l-4 3.5 4 3.5v-2h3v-3h-3Zm8-2.5L18 12v2h-3v3h3v2l4-3.5Zm-.34-6.77-2-3.46c-.12-.22-.38-.31-.61-.22l-2.49 1c-.51-.41-1.06-.74-1.69-1l-.37-2.63A.506.506 0 0 0 14 2h-4c-.25 0-.46.18-.5.42l-.37 2.65c-.63.26-1.17.59-1.69 1L5 5.05c-.23-.09-.5 0-.61.22l-2 3.46c-.13.21-.08.49.11.64L4.57 11c-.04.33-.07.67-.07 1 0 .33.03.67.07 1l-2.11 1.63c-.2.15-.25.43-.12.64l2 3.46c.11.27.4.38.66.27l2.5-1c.24.19.5.37.76.53l3.51-3A3.518 3.518 0 0 1 8.5 11.8c.15-1.93 1.82-3.39 3.75-3.25 1.44.09 2.67 1.07 3.1 2.45h4.08l2.11-1.63c.19-.15.24-.43.12-.64Z"/>
</symbol>

<symbol id="mdi-cog" viewBox="0 0 24 24">
  <path d="M12 15.5a3.5 3.5 0 1 1 0-7 3.5 3.5 0 0 1 0 7Zm7.43-2.53c.04-.32.07-.64.07-.97 0-.33-.03-.66-.07-1l2.11-1.63c.19-.15.24-.42.12-.64l-2-3.46c-.12-.22-.39-.31-.61-.22l-2.49 1c-.52-.39-1.06-.73-1.69-.98l-.37-2.65A.507.507 0 0 0 14 2h-4c-.25 0-.46.18-.5.42l-.37 2.65c-.63.25-1.17.59-1.69.98l-2.49-1c-.22-.09-.49 0-.61.22l-2 3.46c-.13.22-.07.49.12.64L4.57 11c-.04.34-.07.67-.07 1 0 .33.03.65.07.97l-2.11 1.66c-.19.15-.25.42-.12.64l2 3.46c.12.22.39.3.61.22l2.49-1.01c.52.4 1.06.74 1.69.99l.37 2.65c.04.24.25.42.5.42h4c.25 0 .46-.18.5-.42l.37-2.65c.63-.26 1.17-.59 1.69-.99l2.49 1.01c.22.08.49 0 .61-.22l2-3.46c.12-.22.07-.49-.12-.64l-2.11-1.66Z"/>
</symbol>

<symbol id="mdi-comment-plus-outline" viewBox="0 0 24 24">
  <path d="M9 22a1 1 0 0 1-1-1v-3H4a2 2 0 0 1-2-2V4a2 2 0 0 1 2-2h16a2 2 0 0 1 2 2v12a2 2 0 0 1-2 2h-6.1l-3.7 3.71c-.2.19-.45.29-.7.29H9Zm1-6v3.08L13.08 16H20V4H4v12h6Zm1-10h2v3h3v2h-3v3h-2v-3H8V9h3V6Z"/>
</symbol>

<symbol id="mdi-card-account-mail" viewBox="0 0 24 24">
  <path d="M21 8V7l-3 2-3-2v1l3 2 3-2Zm1-5H2C.9 3 0 3.9 0 5v14c0 1.1.9 2 2 2h20c1.1 0 1.99-.9 1.99-2L24 5c0-1.1-.9-2-2-2ZM8 6c1.66 0 3 1.34 3 3s-1.34 3-3 3-3-1.34-3-3 1.34-3 3-3Zm6 12H2v-1c0-2 4-3.1 6-3.1s6 1.1 6 3.1v1Zm8-6h-8V6h8v6Z"/>
</symbol>

<symbol id="mdi-content-copy" viewBox="0 0 24 24">
  <path d="M19 21H8V7h11v14Zm0-16H8a2 2 0 0 0-2 2v14a2 2 0 0 0 2 2h11a2 2 0 0 0 2-2V7a2 2 0 0 0-2-2Zm-3-4H4a2 2 0 0 0-2 2v14h2V3h12V1Z"/>
</symbol>

<symbol id="mdi-content-duplicate" viewBox="0 0 24 24">
  <path d="M11 17H4a2 2 0 0 1-2-2V3a2 2 0 0 1 2-2h12v2H4v12h7v-2l4 3-4 3v-2Zm8 4V7H8v6H6V7a2 2 0 0 1 2-2h11a2 2 0 0 1 2 2v14a2 2 0 0 1-2 2H8a2 2 0 0 1-2-2v-2h2v2h11Z"/>
</symbol>

<symbol id="mdi-credit-card-plus" viewBox="0 0 24 24">
  <path d="M20 4H4a2 2 0 0 0-2 2v12a2 2 0 0 0 2 2h9.09c-.06-.33-.09-.665-.09-1a6 6 0 0 1 6-6 5.88 5.88 0 0 1 3 .81V6a2 2 0 0 0-2-2Zm0 7H4V8h16v3Zm0 4v3h3v2h-3v3h-2v-3h-3v-2h3v-3h2Z"/>
</symbol>

<symbol id="mdi-credit-card-refund" viewBox="0 0 24 24">
  <path d="M18 11H6a2 2 0 0 0-2 2v8a2 2 0 0 0 2 2h12a2 2 0 0 0 2-2v-8a2 2 0 0 0-2-2Zm0 6H6v-3h12v3ZM17 5v5h-1.5V6.5H9.88l2.42 2.43L11.24 10 7 5.75l4.24-4.25 1.06 1.07L9.88 5H17Z"/>
</symbol>

<symbol id="mdi-credit-card" viewBox="0 0 24 24">
  <path d="M20 4H4a2 2 0 0 0-2 2v12a2 2 0 0 0 2 2h16a2 2 0 0 0 2-2V6a2 2 0 0 0-2-2Zm0 7H4V8h16v3Z"/>
</symbol>

<symbol id="mdi-crosshairs-gps" viewBox="0 0 24 24">
  <path d="M12 8a4 4 0 1 1 0 8 4 4 0 0 1 0-8Zm-8.95 5H1v-2h2.05C3.5 6.83 6.83 3.5 11 3.05V1h2v2.05c4.17.45 7.5 3.78 7.95 7.95H23v2h-2.05c-.45 4.17-3.78 7.5-7.95 7.95V23h-2v-2.05C6.83 20.5 3.5 17.17 3.05 13ZM12 5a7 7 0 1 0 0 14 7 7 0 0 0 0-14Z"/>
</symbol>

<symbol id="mdi-currency-usd-off" viewBox="0 0 24 24">
  <path d="M3 4.27 4.28 3 21 19.72 19.73 21l-3.67-3.67c-.62.67-1.52 1.22-2.56 1.49V21h-3v-2.18C8.47 18.31 7 16.79 7 15h2c0 1.08 1.37 2 3 2 1.13 0 2.14-.44 2.65-1.08l-2.97-2.97C9.58 12.42 7 11.75 7 9c0-.23 0-.45.07-.66L3 4.27Zm7.5.91V3h3v2.18C15.53 5.69 17 7.21 17 9h-2c0-1.08-1.37-2-3-2-.37 0-.72.05-1.05.13L9.4 5.58l1.1-.4Z"/>
</symbol>

<symbol id="mdi-currency-usd" viewBox="0 0 24 24">
  <path d="M7 15h2c0 1.08 1.37 2 3 2s3-.92 3-2c0-1.1-1.04-1.5-3.24-2.03C9.64 12.44 7 11.78 7 9c0-1.79 1.47-3.31 3.5-3.82V3h3v2.18C15.53 5.69 17 7.21 17 9h-2c0-1.08-1.37-2-3-2s-3 .92-3 2c0 1.1 1.04 1.5 3.24 2.03C14.36 11.56 17 12.22 17 15c0 1.79-1.47 3.31-3.5 3.82V21h-3v-2.18C8.47 18.31 7 16.79 7 15Z"/>
</symbol>

<symbol id="mdi-database-cog" viewBox="0 0 24 24">
  <path d="M4 7c0-2.21 3.58-4 8-4s8 1.79 8 4-3.58 4-8 4-8-1.79-8-4Zm8.08 11H12c-4.42 0-8-1.79-8-4v3c0 2.21 3.58 4 8 4h.29a7.38 7.38 0 0 1-.29-2c0-.34.03-.67.08-1ZM20 12.08V9c0 2.21-3.58 4-8 4s-8-1.79-8-4v3c0 2.21 3.58 4 8 4h.69c1.13-2.37 3.53-4 6.31-4 .34 0 .67.03 1 .08Zm3.8 8.32c.1 0 .1.1 0 .2l-1 1.7c-.1.1-.2.1-.3.1l-1.2-.4c-.3.2-.5.3-.8.5l-.2 1.3c0 .1-.1.2-.2.2h-2c-.1 0-.2-.1-.3-.2l-.2-1.3c-.3-.1-.6-.3-.8-.5l-1.2.5c-.1 0-.2 0-.3-.1l-1-1.7c-.1-.1 0-.2.1-.3l1.1-.8v-1l-1.1-.8c-.1-.1-.1-.2-.1-.3l1-1.7c.1-.1.2-.1.3-.1l1.2.5c.3-.2.5-.3.8-.5l.2-1.3c0-.1.1-.2.3-.2h2c.1 0 .2.1.2.2l.2 1.3c.3.1.6.3.9.5l1.2-.5c.1 0 .3 0 .3.1l1 1.7c.1.1 0 .2-.1.3l-1.1.8v1l1.1.8ZM20.5 19c0-.8-.7-1.5-1.5-1.5s-1.5.7-1.5 1.5.7 1.5 1.5 1.5 1.5-.7 1.5-1.5Z"/>
</symbol>

<symbol id="mdi-database-import" viewBox="0 0 24 24">
  <path d="M14 3c-3.41 0-6.31 1.07-7.46 2.57l5.25 5.25c.71.11 1.43.18 2.21.18 4.42 0 8-1.79 8-4s-3.58-4-8-4ZM5.92 7.08 4.5 8.5 7 11H2v2h5l-2.5 2.5 1.42 1.42L10.84 12 5.92 7.08ZM22 9c0 2.21-3.58 4-8 4-.66 0-1.3-.05-1.91-.13l-2.47 2.47c1.26.41 2.76.66 4.38.66 4.42 0 8-1.79 8-4V9Zm0 5c0 2.21-3.58 4-8 4-2.28 0-4.33-.5-5.79-1.25l-1.68 1.68C7.68 19.93 10.59 21 14 21c4.42 0 8-1.79 8-4"/>
</symbol>

<symbol id="mdi-delete" viewBox="0 0 24 24">
  <path d="M19 4h-3.5l-1-1h-5l-1 1H5v2h14V4ZM6 19a2 2 0 0 0 2 2h8a2 2 0 0 0 2-2V7H6v12Z"/>
</symbol>

<symbol id="mdi-desktop-classic" viewBox="0 0 24 24">
  <path d="M6 2c-1.11 0-2 .89-2 2v8c0 1.11.89 2 2 2h12c1.11 0 2-.89 2-2V4c0-1.11-.89-2-2-2H6Zm0 2h12v8H6V4ZM4 15c-1.11 0-2 .89-2 2v3c0 1.11.89 2 2 2h16c1.11 0 2-.89 2-2v-3c0-1.11-.89-2-2-2H4Zm4 2h12v3H8v-3Zm1 .75v1.5h4v-1.5H9Zm6 0v1.5h4v-1.5h-4Z"/>
</symbol>

<symbol id="mdi-monitor" viewBox="0 0 24 24">
  <path d="M21 16H3V4h18m0-2H3c-1.11 0-2 .89-2 2v12a2 2 0 0 0 2 2h7v2H8v2h8v-2h-2v-2h7a2 2 0 0 0 2-2V4a2 2 0 0 0-2-2Z"/>
</symbol>

<symbol id="mdi-dots-horizontal" viewBox="0 0 24 24">
  <path d="M16 12a2 2 0 1 1 4 0 2 2 0 0 1-4 0Zm-6 0a2 2 0 1 1 4 0 2 2 0 0 1-4 0Zm-6 0a2 2 0 1 1 4 0 2 2 0 0 1-4 0Z"/>
</symbol>

<symbol id="mdi-dots-vertical" viewBox="0 0 24 24">
  <path d="M12 16a2 2 0 1 1 0 4 2 2 0 0 1 0-4Zm0-6a2 2 0 1 1 0 4 2 2 0 0 1 0-4Zm0-6a2 2 0 1 1 0 4 2 2 0 0 1 0-4Z"/>
</symbol>

<symbol id="mdi-download" viewBox="0 0 24 24">
  <path d="M5 20h14v-2H5v2ZM19 9h-4V3H9v6H5l7 7 7-7Z"/>
</symbol>

<symbol id="mdi-drag-horizontal-variant" viewBox="0 0 24 24">
  <path d="M21 11H3V9h18v2Zm0 2H3v2h18v-2Z"/>
</symbol>

<symbol id="mdi-drag" viewBox="0 0 24 24">
  <path d="M7 19v-2h2v2H7Zm4 0v-2h2v2h-2Zm4 0v-2h2v2h-2Zm-8-4v-2h2v2H7Zm4 0v-2h2v2h-2Zm4 0v-2h2v2h-2Zm-8-4V9h2v2H7Zm4 0V9h2v2h-2Zm4 0V9h2v2h-2ZM7 7V5h2v2H7Zm4 0V5h2v2h-2Zm4 0V5h2v2h-2Z"/>
</symbol>

<symbol id="mdi-email-alert" viewBox="0 0 24 24">
  <path d="m18 8-8 5-8-5V6l8 5 8-5v2Zm0-4H2C.9 4 0 4.9 0 6v12c0 1.1.9 2 2 2h16c1.1 0 2-.9 2-2V6c0-1.1-.9-2-2-2Zm6 3h-2v6h2V7Zm0 8h-2v2h2v-2Z"/>
</symbol>

<symbol id="mdi-email-check" viewBox="0 0 24 24">
  <path d="M21 13.34c-.63-.22-1.3-.34-2-.34a6 6 0 0 0-6 6c0 .34.03.67.08 1H3a2 2 0 0 1-2-2V6c0-1.11.89-2 2-2h16a2 2 0 0 1 2 2v7.34ZM23.5 17l-5 5-3.5-3.5 1.5-1.5 2 2 3.5-3.5 1.5 1.5ZM3 6v2l8 5 8-5V6l-8 5-8-5Z"/>
</symbol>

<symbol id="mdi-email-sync" viewBox="0 0 24 24">
  <path d="M3 4c-1.11 0-2 .89-2 2v12a2 2 0 0 0 2 2h10.5a6.5 6.5 0 0 1 6-9 6.5 6.5 0 0 1 1.5.18V6a2 2 0 0 0-2-2H3Zm0 2 8 5 8-5v2l-8 5-8-5V6Zm16 6-2.25 2.25L19 16.5V15a2.5 2.5 0 0 1 2.5 2.5c0 .4-.09.78-.26 1.12l1.09 1.09c.42-.63.67-1.39.67-2.21 0-2.21-1.79-4-4-4V12Zm-3.33 3.29c-.42.63-.67 1.39-.67 2.21 0 2.21 1.79 4 4 4V23l2.25-2.25L19 18.5V20a2.5 2.5 0 0 1-2.5-2.5c0-.4.09-.78.26-1.12l-1.09-1.09Z"/>
</symbol>

<symbol id="mdi-email" viewBox="0 0 24 24">
  <path d="m20 8-8 5-8-5V6l8 5 8-5v2Zm0-4H4c-1.11 0-2 .89-2 2v12a2 2 0 0 0 2 2h16a2 2 0 0 0 2-2V6a2 2 0 0 0-2-2Z"/>
</symbol>

<symbol id="mdi-arrow-expand-all" viewBox="0 0 24 24">
  <path d="m9.5 13.09 1.41 1.41-4.5 4.5H10v2H3v-7h2v3.59l4.5-4.5Zm1.41-3.59L9.5 10.91 5 6.41V10H3V3h7v2H6.41l4.5 4.5Zm3.59 3.59 4.5 4.5V14h2v7h-7v-2h3.59l-4.5-4.5 1.41-1.41ZM13.09 9.5l4.5-4.5H14V3h7v7h-2V6.41l-4.5 4.5-1.41-1.41Z"/>
</symbol>

<symbol id="mdi-eye-off" viewBox="0 0 24 24">
  <path d="M11.83 9 15 12.16V12a3 3 0 0 0-3-3h-.17Zm-4.3.8 1.55 1.55c-.05.21-.08.42-.08.65a3 3 0 0 0 3 3c.22 0 .44-.03.65-.08l1.55 1.55c-.67.33-1.41.53-2.2.53a5 5 0 0 1-5-5c0-.79.2-1.53.53-2.2ZM2 4.27l2.28 2.28.45.45C3.08 8.3 1.78 10 1 12c1.73 4.39 6 7.5 11 7.5 1.55 0 3.03-.3 4.38-.84l.43.42L19.73 22 21 20.73 3.27 3 2 4.27ZM12 7a5 5 0 0 1 5 5c0 .64-.13 1.26-.36 1.82l2.93 2.93c1.5-1.25 2.7-2.89 3.43-4.75-1.73-4.39-6-7.5-11-7.5-1.4 0-2.74.25-4 .7l2.17 2.15C10.74 7.13 11.35 7 12 7Z"/>
</symbol>

<symbol id="mdi-eye" viewBox="0 0 24 24">
  <path d="M12 9a3 3 0 1 0 0 6 3 3 0 0 0 0-6Zm0 8a5 5 0 1 1 0-10 5 5 0 0 1 0 10Zm0-12.5C7 4.5 2.73 7.61 1 12c1.73 4.39 6 7.5 11 7.5s9.27-3.11 11-7.5c-1.73-4.39-6-7.5-11-7.5Z"/>
</symbol>

<symbol id="mdi-fax" viewBox="0 0 24 24">
  <path d="M11 6h5v2h-5V6ZM8 9V3h11v6a3 3 0 0 1 3 3v6h-3v3H8v-3H7V9h1Zm2-4v4h7V5h-7Zm0 10v4h7v-4h-7Zm9-4a1 1 0 1 0 0 2 1 1 0 0 0 0-2ZM4 9h1a1 1 0 0 1 1 1v7a1 1 0 0 1-1 1H4a2 2 0 0 1-2-2v-5a2 2 0 0 1 2-2Z"/>
</symbol>

<symbol id="mdi-file-account" viewBox="0 0 24 24">
  <path d="M13 9h5.5L13 3.5V9ZM6 2h8l6 6v12a2 2 0 0 1-2 2H6a2 2 0 0 1-2-2V4c0-1.11.89-2 2-2Zm8 18v-1c0-1.33-2.67-2-4-2s-4 .67-4 2v1h8Zm-4-8a2 2 0 1 0 0 4 2 2 0 0 0 0-4Z"/>
</symbol>

<symbol id="mdi-file-alert" viewBox="0 0 24 24">
  <path d="M14 2H6c-1.1 0-2 .9-2 2v16c0 1.1.9 2 2 2h12c1.1 0 2-.9 2-2V8l-6-6ZM9 19H7v-2h2v2Zm0-4H7V9h2v6Zm4-6V3.5L18.5 9H13Z"/>
</symbol>

<symbol id="mdi-file-cog" viewBox="0 0 24 24">
  <path d="M6 2c-1.11 0-2 .89-2 2v16a2 2 0 0 0 2 2h6.68a7 7 0 0 1-.68-3 7 7 0 0 1 7-7c.335.003.669.03 1 .08V8l-6-6H6Zm7 1.5L18.5 9H13V3.5ZM18 14a.26.26 0 0 0-.26.21l-.19 1.32c-.3.13-.59.29-.85.47l-1.24-.5c-.11 0-.24 0-.31.13l-1 1.73c-.06.11-.04.24.06.32l1.06.82c-.04.332-.04.668 0 1l-1.06.82a.26.26 0 0 0-.06.32l1 1.73c.06.13.19.13.31.13l1.24-.5c.26.18.54.35.85.47l.19 1.32c.02.12.12.21.26.21h2c.11 0 .22-.09.24-.21l.19-1.32c.3-.13.57-.29.84-.47l1.23.5c.13 0 .26 0 .33-.13l1-1.73a.26.26 0 0 0-.06-.32l-1.07-.82c.02-.17.04-.33.04-.5 0-.17-.01-.33-.04-.5l1.06-.82a.26.26 0 0 0 .06-.32l-1-1.73c-.06-.13-.19-.13-.32-.13l-1.23.5c-.27-.18-.54-.35-.85-.47l-.19-1.32A.236.236 0 0 0 20 14h-2Zm1 3.5c.83 0 1.5.67 1.5 1.5s-.67 1.5-1.5 1.5c-.84 0-1.5-.67-1.5-1.5s.67-1.5 1.5-1.5Z"/>
</symbol>

<symbol id="mdi-file-document-edit" viewBox="0 0 24 24">
  <path d="M6 2c-1.11 0-2 .89-2 2v16a2 2 0 0 0 2 2h4v-1.91L12.09 18H6v-2h8.09l2-2H6v-2h12.09L20 10.09V8l-6-6H6Zm7 1.5L18.5 9H13V3.5Zm7.15 9.5a.55.55 0 0 0-.4.16l-1.02 1.02 2.09 2.08 1.02-1.01c.21-.22.21-.58 0-.79l-1.3-1.3a.544.544 0 0 0-.39-.16Zm-2.01 1.77L12 20.92V23h2.08l6.15-6.15-2.09-2.08Z"/>
</symbol>

<symbol id="mdi-file-document-multiple" viewBox="0 0 24 24">
  <path d="M4 4v18h16v2H4c-1.1 0-2-.9-2-2V4h2Zm11 3h5.5L15 1.5V7ZM8 0h8l6 6v12c0 1.11-.89 2-2 2H8a2 2 0 0 1-2-2V2c0-1.11.89-2 2-2Zm9 16v-2H8v2h9Zm3-4v-2H8v2h12Z"/>
</symbol>

<symbol id="mdi-file-document" viewBox="0 0 24 24">
  <path d="M13 9h5.5L13 3.5V9ZM6 2h8l6 6v12a2 2 0 0 1-2 2H6a2 2 0 0 1-2-2V4c0-1.11.89-2 2-2Zm9 16v-2H6v2h9Zm3-4v-2H6v2h12Z"/>
</symbol>

<symbol id="mdi-file-excel" viewBox="0 0 24 24">
  <path d="M14 2H6a2 2 0 0 0-2 2v16a2 2 0 0 0 2 2h12a2 2 0 0 0 2-2V8l-6-6Zm1.8 18H14l-2-3.4-2 3.4H8.2l2.9-4.5L8.2 11H10l2 3.4 2-3.4h1.8l-2.9 4.5 2.9 4.5ZM13 9V3.5L18.5 9H13Z"/>
</symbol>

<symbol id="mdi-file-export" viewBox="0 0 24 24">
  <path d="M6 2a2 2 0 0 0-2 2v16a2 2 0 0 0 2 2h12a2 2 0 0 0 2-2V8l-6-6H6Zm7 1.5L18.5 9H13V3.5Zm-4.07 8.72H16v7.07l-2.12-2.12L11.05 20l-2.83-2.83 2.83-2.82"/>
</symbol>

<symbol id="mdi-file-find" viewBox="0 0 24 24">
  <path d="M9 13a3 3 0 1 0 6 0 3 3 0 0 0-6 0Zm11 6.59V8l-6-6H6a2 2 0 0 0-2 2v16a2 2 0 0 0 2 2h12c.45 0 .85-.15 1.19-.4l-4.43-4.43c-.8.52-1.76.83-2.76.83a5 5 0 1 1 5-5c0 1-.31 1.96-.83 2.75L20 19.59Z"/>
</symbol>

<symbol id="mdi-file-import" viewBox="0 0 24 24">
  <path d="M6 2a2 2 0 0 0-2 2v16a2 2 0 0 0 2 2h12a2 2 0 0 0 2-2V8l-6-6H6Zm7 1.5L18.5 9H13V3.5Zm-2.95 7.72 2.83 2.83L15 11.93V19H7.93l2.12-2.12-2.83-2.83"/>
</symbol>

<symbol id="mdi-file-multiple" viewBox="0 0 24 24">
  <path d="M15 7h5.5L15 1.5V7ZM8 0h8l6 6v12a2 2 0 0 1-2 2H8a2 2 0 0 1-2-2V2a2 2 0 0 1 2-2ZM4 4v18h16v2H4a2 2 0 0 1-2-2V4h2Z"/>
</symbol>

<symbol id="mdi-file-pdf" viewBox="0 0 24 24">
  <path d="M13 9h5.5L13 3.5V9ZM6 2h8l6 6v12a2 2 0 0 1-2 2H6a2 2 0 0 1-2-2V4a2 2 0 0 1 2-2Zm4.1 9.4c-.02.04-.29 1.76-2.1 4.69 0 0-3.5 1.82-2.67 3.18.67 1.08 2.32-.04 3.74-2.68 0 0 1.82-.64 4.24-.82 0 0 3.86 1.73 4.39-.11.52-1.86-3.06-1.44-3.7-1.25 0 0-2-1.35-2.5-3.21 0 0 1.14-3.95-.61-3.9-1.75.05-1.09 3.13-.79 4.1Zm.81 1.04c.03.01.47 1.21 1.89 2.46 0 0-2.33.46-3.39.9 0 0 1-1.73 1.5-3.36Zm3.93 2.72c.58-.16 2.33.15 2.26.48-.06.33-2.26-.48-2.26-.48ZM7.77 17c-.53 1.24-1.44 2-1.67 2-.23 0 .7-1.6 1.67-2Zm3.14-6.93c0-.07-.36-2.2 0-2.15.54.08 0 2.08 0 2.15Z"/>
</symbol>

<symbol id="mdi-file-excel-box" viewBox="0 0 24 24">
  <path d="M16.2 17h-2L12 13.2 9.8 17h-2l3.2-5-3.2-5h2l2.2 3.8L14.2 7h2L13 12m6-9H5c-1.11 0-2 .89-2 2v14a2 2 0 0 0 2 2h14a2 2 0 0 0 2-2V5a2 2 0 0 0-2-2Z"/>
</symbol>

<symbol id="mdi-file-pdf-box" viewBox="0 0 24 24">
  <path d="M19 3H5c-1.1 0-2 .9-2 2v14c0 1.1.9 2 2 2h14c1.1 0 2-.9 2-2V5c0-1.1-.9-2-2-2Zm-9.5 8.5c0 .8-.7 1.5-1.5 1.5H7v2H5.5V9H8c.8 0 1.5.7 1.5 1.5v1Zm5 2c0 .8-.7 1.5-1.5 1.5h-2.5V9H13c.8 0 1.5.7 1.5 1.5v3Zm4-3H17v1h1.5V13H17v2h-1.5V9h3v1.5Zm-6.5 0h1v3h-1v-3Zm-5 0h1v1H7v-1Z"/>
</symbol>

<symbol id="mdi-file-word-box" viewBox="0 0 24 24">
  <path d="M15.5 17H14l-2-7.5-2 7.5H8.5L6.1 7h1.7l1.54 7.5L11.3 7h1.4l1.97 7.5L16.2 7h1.7M19 3H5c-1.11 0-2 .89-2 2v14a2 2 0 0 0 2 2h14a2 2 0 0 0 2-2V5a2 2 0 0 0-2-2Z"/>
</symbol>

<symbol id="mdi-file-restore" viewBox="0 0 24 24">
  <path d="M14 2H6a2 2 0 0 0-2 2v16a2 2 0 0 0 2 2h12a2 2 0 0 0 2-2V8l-6-6Zm-2 16c-2.05 0-3.81-1.24-4.58-3h1.71c.63.9 1.68 1.5 2.87 1.5a3.5 3.5 0 1 0 0-7c-1.35 0-2.5.78-3.1 1.9l1.6 1.6h-4V9l1.3 1.3C8.69 8.92 10.23 8 12 8a5 5 0 1 1 0 10Z"/>
</symbol>

<symbol id="mdi-file-table" viewBox="0 0 24 24">
  <path d="M14 2H6a2 2 0 0 0-2 2v16a2 2 0 0 0 2 2h12a2 2 0 0 0 2-2V8l-6-6Zm-4 17H7v-2h3v2Zm0-3H7v-2h3v2Zm0-3H7v-2h3v2Zm4 6h-3v-2h3v2Zm0-3h-3v-2h3v2Zm0-3h-3v-2h3v2Zm-1-4V3.5L18.5 9H13Z"/>
</symbol>

<symbol id="mdi-file-word" viewBox="0 0 24 24">
  <path d="M14 2H6a2 2 0 0 0-2 2v16a2 2 0 0 0 2 2h12a2 2 0 0 0 2-2V8l-6-6Zm1.2 18h-1.4L12 13.2 10.2 20H8.8l-2.2-9h1.5l1.4 6.8 1.8-6.8h1.3l1.8 6.8 1.4-6.8h1.5l-2.1 9ZM13 9V3.5L18.5 9H13Z"/>
</symbol>

<symbol id="mdi-file" viewBox="0 0 24 24">
  <path d="M13 9V3.5L18.5 9H13ZM6 2c-1.11 0-2 .89-2 2v16a2 2 0 0 0 2 2h12a2 2 0 0 0 2-2V8l-6-6H6Z"/>
</symbol>

<symbol id="mdi-fingerprint" viewBox="0 0 24 24">
  <path d="M17.81 4.47c-.08 0-.16-.02-.23-.06C15.66 3.42 14 3 12 3c-1.97 0-3.85.47-5.56 1.41-.24.13-.54.04-.68-.2a.506.506 0 0 1 .2-.68C7.82 2.5 9.86 2 12 2s4 .47 6.04 1.5c.25.15.34.45.21.69a.48.48 0 0 1-.44.28ZM3.5 9.72c-.1 0-.2-.03-.29-.09a.517.517 0 0 1-.12-.7c.99-1.4 2.25-2.5 3.75-3.27C10 4.04 14 4.03 17.15 5.65c1.5.77 2.76 1.85 3.75 3.25.16.22.1.54-.12.7-.23.16-.54.11-.7-.1a9.257 9.257 0 0 0-3.39-2.96c-2.87-1.47-6.54-1.47-9.4.01-1.36.7-2.5 1.7-3.4 2.95-.08.15-.23.22-.39.22Zm6.25 12.07c-.13 0-.25-.05-.35-.15-.87-.87-1.34-1.43-2.01-2.64-.69-1.23-1.05-2.73-1.05-4.34 0-2.97 2.54-5.39 5.66-5.39s5.66 2.42 5.66 5.39a.5.5 0 0 1-1 0c0-2.42-2.09-4.39-4.66-4.39-2.57 0-4.66 1.97-4.66 4.39 0 1.44.32 2.77.93 3.84.64 1.16 1.08 1.65 1.85 2.43.19.2.19.51 0 .71-.12.1-.24.15-.37.15Zm7.17-1.85c-1.19 0-2.24-.3-3.1-.89-1.49-1.01-2.38-2.65-2.38-4.39a.5.5 0 0 1 1 0c0 1.41.72 2.74 1.94 3.56.71.48 1.54.71 2.54.71.24 0 .64-.03 1.04-.1.27-.05.54.13.58.41.05.26-.13.53-.41.58-.57.11-1.07.12-1.21.12ZM14.91 22h-.13c-1.59-.46-2.63-1.05-3.72-2.12a7.28 7.28 0 0 1-2.17-5.22c0-1.62 1.38-2.94 3.08-2.94 1.7 0 3.08 1.32 3.08 2.94 0 1.07.95 1.94 2.08 1.94 1.15 0 2.08-.87 2.08-1.94 0-3.77-3.25-6.83-7.25-6.83-2.84 0-5.46 1.58-6.61 4.03-.39.81-.59 1.76-.59 2.8 0 .78.07 2.01.67 3.61.1.26-.03.55-.29.64a.504.504 0 0 1-.64-.29c-.5-1.31-.73-2.62-.73-3.96 0-1.2.23-2.29.68-3.24 1.33-2.79 4.28-4.6 7.51-4.6 4.54 0 8.25 3.51 8.25 7.83 0 1.62-1.38 2.94-3.08 2.94-1.7 0-3.08-1.32-3.08-2.94 0-1.07-.93-1.94-2.08-1.94s-2.08.87-2.08 1.94c0 1.71.66 3.31 1.87 4.51.95.94 1.86 1.46 3.27 1.84.27.08.42.36.35.62-.05.23-.26.38-.47.38Z"/>
</symbol>

<symbol id="mdi-flash" viewBox="0 0 24 24">
  <path d="M7 2v11h3v9l7-12h-4l4-8H7Z"/>
</symbol>

<symbol id="mdi-folder-account" viewBox="0 0 24 24">
  <path d="M19 17h-8v-1c0-1.33 2.67-2 4-2s4 .67 4 2v1Zm-4-8a2 2 0 1 1 0 4 2 2 0 0 1 0-4Zm5-3h-8l-2-2H4c-1.11 0-2 .89-2 2v12a2 2 0 0 0 2 2h16a2 2 0 0 0 2-2V8a2 2 0 0 0-2-2Z"/>
</symbol>

<symbol id="mdi-folder-cog" viewBox="0 0 24 24">
  <path d="M4 4c-1.11 0-2 .89-2 2v12a2 2 0 0 0 2 2h8.08a7.005 7.005 0 0 1-.08-1 7 7 0 0 1 7-7 6.999 6.999 0 0 1 3 .69V8a2 2 0 0 0-2-2h-8l-2-2H4Zm14 10a.26.26 0 0 0-.26.21l-.19 1.32c-.3.13-.59.29-.85.47l-1.24-.5c-.11 0-.24 0-.31.13l-1 1.73c-.06.11-.04.24.06.32l1.06.82c-.04.332-.04.668 0 1l-1.06.82a.26.26 0 0 0-.06.32l1 1.73c.06.13.19.13.31.13l1.24-.5c.26.18.54.35.85.47l.19 1.32c.02.12.12.21.26.21h2c.11 0 .22-.09.24-.21l.19-1.32c.3-.13.57-.29.84-.47l1.23.5c.13 0 .26 0 .33-.13l1-1.73a.26.26 0 0 0-.06-.32l-1.07-.82c.02-.17.04-.33.04-.5 0-.17-.01-.33-.04-.5l1.06-.82a.26.26 0 0 0 .06-.32l-1-1.73c-.06-.13-.19-.13-.32-.13l-1.23.5c-.27-.18-.54-.35-.85-.47l-.19-1.32A.236.236 0 0 0 20 14h-2Zm1 3.5c.83 0 1.5.67 1.5 1.5s-.67 1.5-1.5 1.5c-.84 0-1.5-.67-1.5-1.5s.67-1.5 1.5-1.5Z"/>
</symbol>

<symbol id="mdi-folder-move" viewBox="0 0 24 24">
  <path d="M14 18v-3h-4v-4h4V8l5 5-5 5Zm6-12h-8l-2-2H4c-1.11 0-2 .89-2 2v12a2 2 0 0 0 2 2h16a2 2 0 0 0 2-2V8a2 2 0 0 0-2-2Z"/>
</symbol>

<symbol id="mdi-folder-open" viewBox="0 0 24 24">
  <path d="M19 20H4a2 2 0 0 1-2-2V6c0-1.11.89-2 2-2h6l2 2h7a2 2 0 0 1 2 2H4v10l2.14-8h17.07l-2.28 8.5c-.23.87-1.01 1.5-1.93 1.5Z"/>
</symbol>

<symbol id="mdi-folder" viewBox="0 0 24 24">
  <path d="M10 4H4c-1.11 0-2 .89-2 2v12a2 2 0 0 0 2 2h16a2 2 0 0 0 2-2V8a2 2 0 0 0-2-2h-8l-2-2Z"/>
</symbol>

<symbol id="mdi-format-list-bulleted" viewBox="0 0 24 24">
  <path d="M7 5h14v2H7V5Zm0 8v-2h14v2H7ZM4 4.5a1.5 1.5 0 1 1 0 3 1.5 1.5 0 0 1 0-3Zm0 6a1.5 1.5 0 1 1 0 3 1.5 1.5 0 0 1 0-3ZM7 19v-2h14v2H7Zm-3-2.5a1.5 1.5 0 1 1 0 3 1.5 1.5 0 0 1 0-3Z"/>
</symbol>

<symbol id="mdi-format-list-checks" viewBox="0 0 24 24">
  <path d="M3 5h6v6H3V5Zm2 2v2h2V7H5Zm6 0h10v2H11V7Zm0 8h10v2H11v-2Zm-6 5-3.5-3.5 1.41-1.41L5 17.17l4.59-4.58L11 14l-6 6Z"/>
</symbol>

<symbol id="mdi-forward" viewBox="0 0 24 24">
  <path d="M12 8V4l8 8-8 8v-4H4V8h8Z"/>
</symbol>

<symbol id="mdi-gavel" viewBox="0 0 24 24">
  <path d="m2.3 20.28 9.6-9.6-1.4-1.42-.72.71a.996.996 0 0 1-1.41 0l-.71-.71a.996.996 0 0 1 0-1.41l5.66-5.66a.996.996 0 0 1 1.41 0l.71.71c.39.39.39 1.02 0 1.41l-.71.69 1.42 1.43a.996.996 0 0 1 1.41 0c.39.39.39 1.03 0 1.42l1.41 1.41.71-.71c.39-.39 1.03-.39 1.42 0l.7.71c.39.39.39 1.03 0 1.42l-5.65 5.65c-.39.39-1.03.39-1.42 0l-.7-.7a.99.99 0 0 1 0-1.42l.7-.71-1.41-1.41-9.61 9.61a.996.996 0 0 1-1.41 0c-.39-.39-.39-1.03 0-1.42ZM20 19a2 2 0 0 1 2 2v1H12v-1a2 2 0 0 1 2-2h6Z"/>
</symbol>

<symbol id="mdi-menu" viewBox="0 0 24 24">
  <path d="M3 6h18v2H3V6Zm0 5h18v2H3v-2Zm0 5h18v2H3v-2Z"/>
</symbol>

<symbol id="mdi-headset" viewBox="0 0 24 24">
  <path d="M12 1c-5 0-9 4-9 9v7a3 3 0 0 0 3 3h3v-8H5v-2a7 7 0 0 1 14 0v2h-4v8h4v1h-7v2h6a3 3 0 0 0 3-3V10c0-5-4.03-9-9-9Z"/>
</symbol>

<symbol id="mdi-help-circle" viewBox="0 0 24 24">
  <path d="m15.07 11.25-.9.92C13.45 12.89 13 13.5 13 15h-2v-.5c0-1.11.45-2.11 1.17-2.83l1.24-1.26c.37-.36.59-.86.59-1.41a2 2 0 1 0-4 0H8a4 4 0 0 1 8 0 3.2 3.2 0 0 1-.93 2.25ZM13 19h-2v-2h2v2ZM12 2a10 10 0 1 0 10 10c0-5.53-4.5-10-10-10Z"/>
</symbol>

<symbol id="mdi-image" viewBox="0 0 24 24">
  <path d="m8.5 13.5 2.5 3 3.5-4.5 4.5 6H5l3.5-4.5ZM21 19V5a2 2 0 0 0-2-2H5a2 2 0 0 0-2 2v14a2 2 0 0 0 2 2h14a2 2 0 0 0 2-2Z"/>
</symbol>

<symbol id="mdi-import" viewBox="0 0 24 24">
  <path d="m14 12-4-4v3H2v2h8v3l4-4Zm6 6V6a2 2 0 0 0-2-2H6a2 2 0 0 0-2 2v3h2V6h12v12H6v-3H4v3a2 2 0 0 0 2 2h12a2 2 0 0 0 2-2Z"/>
</symbol>

<symbol id="mdi-inbox-arrow-down" viewBox="0 0 24 24">
  <path d="M16 10h-2V7h-4v3H8l4 4 4-4Zm3 5h-4a3 3 0 0 1-6 0H5V5h14v10Zm0-12H5a2 2 0 0 0-2 2v14a2 2 0 0 0 2 2h14a2 2 0 0 0 2-2V5a2 2 0 0 0-2-2Z"/>
</symbol>

<symbol id="mdi-inbox" viewBox="0 0 24 24">
  <path d="M19 15h-4a3 3 0 0 1-6 0H5V5h14v10Zm0-12H5a2 2 0 0 0-2 2v14a2 2 0 0 0 2 2h14a2 2 0 0 0 2-2V5a2 2 0 0 0-2-2Z"/>
</symbol>

<symbol id="mdi-information" viewBox="0 0 24 24">
  <path d="M13 9h-2V7h2v2Zm0 8h-2v-6h2v6ZM12 2a10 10 0 1 0 0 20 10 10 0 0 0 0-20Z"/>
</symbol>

<symbol id="mdi-key" viewBox="0 0 24 24">
  <path d="M7 14a2 2 0 1 1 0-4 2 2 0 0 1 0 4Zm5.65-4A5.99 5.99 0 0 0 7 6a6 6 0 1 0 3.461 10.899A5.99 5.99 0 0 0 12.65 14H17v4h4v-4h2v-4H12.65Z"/>
</symbol>

<symbol id="mdi-lan-disconnect" viewBox="0 0 24 24">
  <path d="M4 1c-1.11 0-2 .89-2 2v4c0 1.11.89 2 2 2H1v2h12V9h-3c1.11 0 2-.89 2-2V3c0-1.11-.89-2-2-2H4Zm0 2h6v4H4V3Zm10 10c-1.11 0-2 .89-2 2v4c0 1.11.89 2 2 2h-3v2h12v-2h-3c1.11 0 2-.89 2-2v-4c0-1.11-.89-2-2-2h-6Zm-10.12.46-1.42 1.42L4.59 17l-2.13 2.12 1.42 1.42L6 18.41l2.12 2.13 1.42-1.42L7.41 17l2.13-2.12-1.42-1.42L6 15.59l-2.12-2.13ZM14 15h6v4h-6v-4Z"/>
</symbol>

<symbol id="mdi-laptop" viewBox="0 0 24 24">
  <path d="M4 6h16v10H4V6Zm16 12a2 2 0 0 0 2-2V6a2 2 0 0 0-2-2H4c-1.11 0-2 .89-2 2v10a2 2 0 0 0 2 2H0v2h24v-2h-4Z"/>
</symbol>

<symbol id="mdi-lifebuoy" viewBox="0 0 24 24">
  <path d="M19.79 15.41c.95-2.17.95-4.66 0-6.82l-2.74 1.24c.6 1.38.6 2.95.01 4.34l2.73 1.24Zm-4.37-11.2a8.54 8.54 0 0 0-6.83 0l1.24 2.73c1.39-.59 2.96-.59 4.35.01l1.24-2.74ZM4.21 8.58a8.564 8.564 0 0 0 0 6.84l2.74-1.25c-.6-1.38-.6-2.96 0-4.35L4.21 8.58Zm4.38 11.21a8.5 8.5 0 0 0 6.83-.01l-1.24-2.73a5.499 5.499 0 0 1-4.34.01l-1.25 2.73ZM12 2a10 10 0 1 1 0 20 10 10 0 0 1 0-20Zm0 6a4 4 0 1 0 0 8 4 4 0 0 0 0-8Z"/>
</symbol>

<symbol id="mdi-linkedin" viewBox="0 0 24 24">
  <path d="M19 3a2 2 0 0 1 2 2v14a2 2 0 0 1-2 2H5a2 2 0 0 1-2-2V5a2 2 0 0 1 2-2h14Zm-.5 15.5v-5.3a3.26 3.26 0 0 0-3.26-3.26c-.85 0-1.84.52-2.32 1.3v-1.11h-2.79v8.37h2.79v-4.93c0-.77.62-1.4 1.39-1.4a1.4 1.4 0 0 1 1.4 1.4v4.93h2.79ZM6.88 8.56a1.68 1.68 0 0 0 1.68-1.68c0-.93-.75-1.69-1.68-1.69a1.69 1.69 0 0 0-1.69 1.69c0 .93.76 1.68 1.69 1.68m1.39 9.94v-8.37H5.5v8.37h2.77Z"/>
</symbol>

<symbol id="mdi-lock-open" viewBox="0 0 24 24">
  <path d="M18 8a2 2 0 0 1 2 2v10a2 2 0 0 1-2 2H6a2 2 0 0 1-2-2V10a2 2 0 0 1 2-2h9V6a3 3 0 0 0-6 0H7a5 5 0 1 1 10 0v2h1Zm-6 9a2 2 0 1 0 0-4 2 2 0 0 0 0 4Z"/>
</symbol>

<symbol id="mdi-lock" viewBox="0 0 24 24">
  <path d="M12 17a2 2 0 1 0 0-4 2 2 0 0 0 0 4Zm6-9a2 2 0 0 1 2 2v10a2 2 0 0 1-2 2H6a2 2 0 0 1-2-2V10a2 2 0 0 1 2-2h1V6a5 5 0 1 1 10 0v2h1Zm-6-5a3 3 0 0 0-3 3v2h6V6a3 3 0 0 0-3-3Z"/>
</symbol>

<symbol id="mdi-magnify" viewBox="0 0 24 24">
  <path d="M9.5 3A6.5 6.5 0 0 1 16 9.5c0 1.61-.59 3.09-1.56 4.23l.27.27h.79l5 5-1.5 1.5-5-5v-.79l-.27-.27A6.516 6.516 0 0 1 9.5 16a6.5 6.5 0 1 1 0-13Zm0 2C7 5 5 7 5 9.5S7 14 9.5 14 14 12 14 9.5 12 5 9.5 5Z"/>
</symbol>

<symbol id="mdi-map-marker-multiple" viewBox="0 0 24 24">
  <path d="M14 11.5a2.5 2.5 0 1 0 0-5.001 2.5 2.5 0 0 0 0 5.001ZM14 2c3.86 0 7 3.13 7 7 0 5.25-7 13-7 13S7 14.25 7 9a7 7 0 0 1 7-7ZM5 9c0 4.5 5.08 10.66 6 11.81L10 22S3 14.25 3 9c0-3.17 2.11-5.85 5-6.71C6.16 3.94 5 6.33 5 9Z"/>
</symbol>

<symbol id="mdi-map-marker" viewBox="0 0 24 24">
  <path d="M12 11.5a2.5 2.5 0 1 1 0-5 2.5 2.5 0 0 1 0 5ZM12 2a7 7 0 0 0-7 7c0 5.25 7 13 7 13s7-7.75 7-13a7 7 0 0 0-7-7Z"/>
</symbol>

<symbol id="mdi-menu-down" viewBox="0 0 24 24">
  <path d="m7 10 5 5 5-5H7Z"/>
</symbol>

<symbol id="mdi-menu-left" viewBox="0 0 24 24">
  <path d="m14 7-5 5 5 5V7Z"/>
</symbol>

<symbol id="mdi-menu-right" viewBox="0 0 24 24">
  <path d="m10 17 5-5-5-5v10Z"/>
</symbol>

<symbol id="mdi-menu-up" viewBox="0 0 24 24">
  <path d="m7 15 5-5 5 5H7Z"/>
</symbol>

<symbol id="mdi-minus-circle" viewBox="0 0 24 24">
  <path d="M17 13H7v-2h10v2ZM12 2a10 10 0 1 0 0 20 10 10 0 0 0 0-20Z"/>
</symbol>

<symbol id="mdi-monitor-arrow-down" viewBox="0 0 24 24">
  <path d="m17 14 5-5-1.4-1.4-2.6 2.6V3h-2v7.2l-2.6-2.6L12 9l5 5Zm6 0v2c0 1.1-.9 2-2 2h-7v2h2v2H8v-2h2v-2H3c-1.1 0-2-.9-2-2V4c0-1.1.9-2 2-2h9v2H3v12h18v-2h2Z"/>
</symbol>

<symbol id="mdi-moon-waning-crescent" viewBox="0 0 24 24">
  <path d="M2 12a10 10 0 0 0 13 9.54 10 10 0 0 1 0-19.08A10 10 0 0 0 2 12Z"/>
</symbol>

<symbol id="mdi-note-multiple" viewBox="0 0 24 24">
  <path d="M16 9h5.5L16 3.5V9ZM7 2h10l6 6v10a2 2 0 0 1-2 2H7a2 2 0 0 1-2-2V4a2 2 0 0 1 2-2ZM3 6v16h18v2H3a2 2 0 0 1-2-2V6h2Z"/>
</symbol>

<symbol id="mdi-note-plus" viewBox="0 0 24 24">
  <path d="M19 13c.7 0 1.37.13 2 .35V9l-6-6H5c-1.11 0-2 .89-2 2v14a2 2 0 0 0 2 2h8.35c-.22-.63-.35-1.3-.35-2 0-3.31 2.69-6 6-6Zm-5-8.5 5.5 5.5H14V4.5ZM23 18v2h-3v3h-2v-3h-3v-2h3v-3h2v3h3Z"/>
</symbol>

<symbol id="mdi-note-text" viewBox="0 0 24 24">
  <path d="M14 10h5.5L14 4.5V10ZM5 3h10l6 6v10a2 2 0 0 1-2 2H5a2 2 0 0 1-2-2V5c0-1.11.89-2 2-2Zm0 9v2h14v-2H5Zm0 4v2h9v-2H5Z"/>
</symbol>

<symbol id="mdi-open-in-app" viewBox="0 0 24 24">
  <path d="m12 10-4 4h3v6h2v-6h3l-4-4Zm7-6H5a2 2 0 0 0-2 2v12a2 2 0 0 0 2 2h4v-2H5V8h14v10h-4v2h4a2 2 0 0 0 2-2V6a2 2 0 0 0-2-2Z"/>
</symbol>

<symbol id="mdi-paperclip" viewBox="0 0 24 24">
  <path d="M16.5 6v11.5a4 4 0 1 1-8 0V5a2.5 2.5 0 1 1 5 0v10.5a1 1 0 0 1-2 0V6H10v9.5a2.5 2.5 0 0 0 5 0V5a4 4 0 1 0-8 0v12.5a5.5 5.5 0 0 0 11 0V6h-1.5Z"/>
</symbol>

<symbol id="mdi-pencil" viewBox="0 0 24 24">
  <path d="M20.71 7.04c.39-.39.39-1.04 0-1.41l-2.34-2.34c-.37-.39-1.02-.39-1.41 0l-1.84 1.83 3.75 3.75 1.84-1.83ZM3 17.25V21h3.75L17.81 9.93l-3.75-3.75L3 17.25Z"/>
</symbol>

<symbol id="mdi-phone" viewBox="0 0 24 24">
  <path d="M6.62 10.79c1.44 2.83 3.76 5.15 6.59 6.59l2.2-2.2c.28-.28.67-.36 1.02-.25 1.12.37 2.32.57 3.57.57a1 1 0 0 1 1 1V20a1 1 0 0 1-1 1A17 17 0 0 1 3 4a1 1 0 0 1 1-1h3.5a1 1 0 0 1 1 1c0 1.25.2 2.45.57 3.57.11.35.03.74-.25 1.02l-2.2 2.2Z"/>
</symbol>

<symbol id="mdi-playlist-plus" viewBox="0 0 24 24">
  <path d="M2 16h8v-2H2v2Zm16-2v-4h-2v4h-4v2h4v4h2v-4h4v-2h-4Zm-4-8H2v2h12V6Zm0 4H2v2h12v-2Z"/>
</symbol>

<symbol id="mdi-plus" viewBox="0 0 24 24">
  <path d="M19 13h-6v6h-2v-6H5v-2h6V5h2v6h6v2Z"/>
</symbol>

<symbol id="mdi-power-cycle" viewBox="0 0 24 24">
  <path d="M12 2a10 10 0 1 0 0 20 10 10 0 0 0 0-20Zm0 17.778a7.778 7.778 0 1 1 0-15.556 7.778 7.778 0 0 1 0 15.556Zm1.111-2.222H10.89V6.444h2.222v11.112Z"/>
</symbol>

<symbol id="mdi-power-plug" viewBox="0 0 24 24">
  <path d="M16 7V3h-2v4h-4V3H8v4C7 7 6 8 6 9v5.5L9.5 18v3h5v-3l3.5-3.5V9c0-1-1-2-2-2Z"/>
</symbol>

<symbol id="mdi-printer" viewBox="0 0 24 24">
  <path d="M18 3H6v4h12V3Zm1 9a1 1 0 1 1 0-2 1 1 0 0 1 0 2Zm-3 7H8v-5h8v5Zm3-11H5a3 3 0 0 0-3 3v6h4v4h12v-4h4v-6a3 3 0 0 0-3-3Z"/>
</symbol>

<symbol id="mdi-radar" viewBox="0 0 24 24">
  <path d="m19.07 4.93-1.41 1.41A8.014 8.014 0 0 1 20 12a8 8 0 0 1-16 0c0-4.08 3.05-7.44 7-7.93v2.02a5.998 5.998 0 1 0 5.243 10.153A6 6 0 0 0 18 12c0-1.66-.67-3.16-1.76-4.24l-1.41 1.41A4 4 0 1 1 8 12c0-1.86 1.28-3.41 3-3.86v2.14c-.6.35-1 .98-1 1.72a2 2 0 0 0 4 0c0-.74-.4-1.38-1-1.72V2h-1a10 10 0 1 0 7.07 2.93Z"/>
</symbol>

<symbol id="mdi-receipt" viewBox="0 0 24 24">
  <path d="m3 22 1.5-1.5L6 22l1.5-1.5L9 22l1.5-1.5L12 22l1.5-1.5L15 22l1.5-1.5L18 22l1.5-1.5L21 22V2l-1.5 1.5L18 2l-1.5 1.5L15 2l-1.5 1.5L12 2l-1.5 1.5L9 2 7.5 3.5 6 2 4.5 3.5 3 2v20ZM18 9H6V7h12v2Zm0 4H6v-2h12v2Zm0 4H6v-2h12v2Z"/>
</symbol>

<symbol id="mdi-repeat-variant" viewBox="0 0 24 24">
  <path d="M6 5.75 10.25 10H7v6h6.5l2 2H7a2 2 0 0 1-2-2v-6H1.75L6 5.75Zm12 12.5L13.75 14H17V8h-6.5l-2-2H17a2 2 0 0 1 2 2v6h3.25L18 18.25Z"/>
</symbol>

<symbol id="mdi-reply-all" viewBox="0 0 24 24">
  <path d="M7 8V5l-7 7 7 7v-3l-4-4 4-4Zm6 1V5l-7 7 7 7v-4.1c5 0 8.5 1.6 11 5.1-1-5-4-10-11-11Z"/>
</symbol>

<symbol id="mdi-reply" viewBox="0 0 24 24">
  <path d="M10 9V5l-7 7 7 7v-4.1c5 0 8.5 1.6 11 5.1-1-5-4-10-11-11Z"/>
</symbol>

<symbol id="mdi-rotate-3d-variant" viewBox="0 0 24 24">
  <path d="M12 5c4.97 0 9 2.69 9 6 0 1.68-1.04 3.2-2.71 4.29 1.07-.87 1.71-1.97 1.71-3.16C20 9.29 16.42 7 12 7v3L8 6l4-4v3Zm0 14c-4.97 0-9-2.69-9-6 0-1.68 1.04-3.2 2.71-4.29C4.64 9.58 4 10.68 4 11.88 4 14.71 7.58 17 12 17v-3l4 4-4 4v-3Z"/>
</symbol>

<symbol id="mdi-rotate-right" viewBox="0 0 24 24">
  <path d="m16.89 15.5 1.42 1.39c.9-1.16 1.45-2.5 1.62-3.89h-2.02c-.14.87-.48 1.72-1.02 2.5ZM13 17.9v2.02c1.39-.17 2.74-.71 3.9-1.61l-1.44-1.44c-.75.54-1.59.89-2.46 1.03Zm6.93-6.9a7.905 7.905 0 0 0-1.62-3.89l-1.42 1.42c.54.75.88 1.6 1.02 2.47h2.02Zm-4.38-5.45L11 1v3.07C7.06 4.56 4 7.92 4 12s3.05 7.44 7 7.93v-2.02c-2.84-.48-5-2.94-5-5.91s2.16-5.43 5-5.91V10l4.55-4.45Z"/>
</symbol>

<symbol id="mdi-school" viewBox="0 0 24 24">
  <path d="M12 3 1 9l11 6 9-4.91V17h2V9L12 3ZM5 13.18v4L12 21l7-3.82v-4L12 17l-7-3.82Z"/>
</symbol>

<symbol id="mdi-security" viewBox="0 0 24 24">
  <path d="M12 12h7c-.53 4.11-3.28 7.78-7 8.92V12H5V6.3l7-3.11V12Zm0-11L3 5v6c0 5.55 3.84 10.73 9 12 5.16-1.27 9-6.45 9-12V5l-9-4Z"/>
</symbol>

<symbol id="mdi-cellphone-message" viewBox="0 0 24 24">
  <path d="M11 17V7H4v10h7Zm0-14a2 2 0 0 1 2 2v14a2 2 0 0 1-2 2H4a2 2 0 0 1-2-2V5a2 2 0 0 1 2-2h7Zm5.5 0h5A1.5 1.5 0 0 1 23 4.5v3A1.5 1.5 0 0 1 21.5 9H18l-3 3V4.5A1.5 1.5 0 0 1 16.5 3Z"/>
</symbol>

<symbol id="mdi-shield-account" viewBox="0 0 24 24">
  <path d="M12 1 3 5v6c0 5.55 3.84 10.74 9 12 5.16-1.26 9-6.45 9-12V5l-9-4Zm0 4a3 3 0 1 1 0 6 3 3 0 0 1 0-6Zm5.13 12A9.69 9.69 0 0 1 12 20.92 9.69 9.69 0 0 1 6.87 17c-.34-.5-.63-1-.87-1.53 0-1.65 2.71-3 6-3s6 1.32 6 3c-.24.53-.53 1.03-.87 1.53Z"/>
</symbol>

<symbol id="mdi-skip-next" viewBox="0 0 24 24">
  <path d="M16 18h2V6h-2v12ZM6 18l8.5-6L6 6v12Z"/>
</symbol>

<symbol id="mdi-skip-previous" viewBox="0 0 24 24">
  <path d="M6 18V6h2v12H6Zm3.5-6L18 6v12l-8.5-6Z"/>
</symbol>

<symbol id="mdi-star" viewBox="0 0 24 24">
  <path d="M12 17.27 18.18 21l-1.64-7.03L22 9.24l-7.19-.61L12 2 9.19 8.63 2 9.24l5.46 4.73L5.82 21 12 17.27Z"/>
</symbol>

<symbol id="mdi-sync" viewBox="0 0 24 24">
  <path d="M12 18a6 6 0 0 1-6-6c0-1 .25-1.97.7-2.8L5.24 7.74A7.93 7.93 0 0 0 4 12a8 8 0 0 0 8 8v3l4-4-4-4v3Zm0-14V1L8 5l4 4V6a6 6 0 0 1 6 6c0 1-.25 1.97-.7 2.8l1.46 1.46A7.93 7.93 0 0 0 20 12a8 8 0 0 0-8-8Z"/>
</symbol>

<symbol id="mdi-table-cog" viewBox="0 0 24 24">
  <path d="M3 3h14a2 2 0 0 1 2 2v7.08a6.01 6.01 0 0 0-4.32.92H11v4h1.08c-.11.68-.11 1.35 0 2H3a2 2 0 0 1-2-2V5c0-1.1.9-2 2-2Zm0 4v4h6V7H3Zm8 0v4h6V7h-6Zm-8 6v4h6v-4H3Zm19.78 6.32-1.07-.82c.02-.17.04-.33.04-.5 0-.17-.01-.33-.04-.5l1.06-.82a.26.26 0 0 0 .06-.32l-1-1.73c-.06-.13-.19-.13-.33-.13l-1.22.5c-.28-.18-.54-.35-.85-.47l-.19-1.32c-.01-.12-.12-.21-.24-.21h-2c-.12 0-.23.09-.25.21l-.19 1.32c-.3.13-.59.29-.85.47l-1.24-.5c-.11 0-.24 0-.31.13l-1 1.73c-.06.11-.04.24.06.32l1.06.82c-.04.332-.04.668 0 1l-1.06.82a.26.26 0 0 0-.06.32l1 1.73c.06.13.19.13.31.13l1.24-.5c.26.18.54.35.85.47l.19 1.32c.02.12.12.21.25.21h2c.12 0 .23-.09.25-.21l.19-1.32c.3-.13.56-.29.84-.47l1.22.5c.14 0 .27 0 .34-.13l1-1.73a.26.26 0 0 0-.06-.32ZM18 19.5c-.83 0-1.5-.67-1.5-1.5s.68-1.5 1.5-1.5 1.5.67 1.5 1.5-.66 1.5-1.5 1.5Z"/>
</symbol>

<symbol id="mdi-table" viewBox="0 0 24 24">
  <path d="M5 4h14a2 2 0 0 1 2 2v12a2 2 0 0 1-2 2H5a2 2 0 0 1-2-2V6a2 2 0 0 1 2-2Zm0 4v4h6V8H5Zm8 0v4h6V8h-6Zm-8 6v4h6v-4H5Zm8 0v4h6v-4h-6Z"/>
</symbol>

<symbol id="mdi-text-box-check" viewBox="0 0 24 24">
  <path d="m17 21-2.75-3 1.16-1.16L17 18.43l3.59-3.59 1.16 1.41M12.8 21H5a2 2 0 0 1-2-2V5c0-1.11.89-2 2-2h14a2 2 0 0 1 2 2v7.8c-.88-.51-1.91-.8-3-.8l-1 .08V11H7v2h7.69A5.983 5.983 0 0 0 12 18c0 1.09.29 2.12.8 3Zm-.8-6H7v2h5m5-10H7v2h10"/>
</symbol>

<symbol id="mdi-text-box-plus" viewBox="0 0 24 24">
  <path d="M17 14h2v3h3v2h-3v3h-2v-3h-3v-2h3v-3Zm-5 3v-2H7v2h5Zm5-6H7v2h7.69A5.983 5.983 0 0 0 12 18c0 1.09.29 2.12.8 3H5a2 2 0 0 1-2-2V5c0-1.11.89-2 2-2h14a2 2 0 0 1 2 2v7.8c-.88-.51-1.91-.8-3-.8l-1 .08V11Zm0-2V7H7v2h10Z"/>
</symbol>

<symbol id="mdi-text-box" viewBox="0 0 24 24">
  <path d="M14 17H7v-2h7v2Zm3-4H7v-2h10v2Zm0-4H7V7h10v2Zm2-6H5c-1.11 0-2 .89-2 2v14a2 2 0 0 0 2 2h14a2 2 0 0 0 2-2V5a2 2 0 0 0-2-2Z"/>
</symbol>

<symbol id="mdi-timer" viewBox="0 0 24 24">
  <path d="m19.03 7.39 1.42-1.42c-.45-.51-.9-.97-1.41-1.41L17.62 6c-1.55-1.26-3.5-2-5.62-2a9 9 0 1 0 0 18c5 0 9-4.03 9-9 0-2.12-.74-4.07-1.97-5.61ZM13 14h-2V7h2v7Zm2-13H9v2h6V1Z"/>
</symbol>

<symbol id="mdi-transfer-right" viewBox="0 0 24 24">
  <path d="M3 8h2v8H3V8Zm4 0h2v8H7V8Zm4 0h2v8h-2V8Zm4 11.25V4.75L22.25 12 15 19.25Z"/>
</symbol>

<symbol id="mdi-twitter" viewBox="0 0 24 24">
  <path d="M22.46 6c-.77.35-1.6.58-2.46.69.88-.53 1.56-1.37 1.88-2.38-.83.5-1.75.85-2.72 1.05C18.37 4.5 17.26 4 16 4c-2.35 0-4.27 1.92-4.27 4.29 0 .34.04.67.11.98C8.28 9.09 5.11 7.38 3 4.79c-.37.63-.58 1.37-.58 2.15 0 1.49.75 2.81 1.91 3.56-.71 0-1.37-.2-1.95-.5v.03c0 2.08 1.48 3.82 3.44 4.21a4.22 4.22 0 0 1-1.93.07 4.28 4.28 0 0 0 4 2.98 8.521 8.521 0 0 1-5.33 1.84c-.34 0-.68-.02-1.02-.06C3.44 20.29 5.7 21 8.12 21 16 21 20.33 14.46 20.33 8.79c0-.19 0-.37-.01-.56.84-.6 1.56-1.36 2.14-2.23Z"/>
</symbol>

<symbol id="mdi-unfold-more-horizontal" viewBox="0 0 24 24">
  <path d="M12 18.17 8.83 15l-1.41 1.41L12 21l4.59-4.59L15.17 15 12 18.17Zm0-12.34L15.17 9l1.41-1.41L12 3 7.41 7.59 8.83 9 12 5.83Z"/>
</symbol>

<symbol id="mdi-upload" viewBox="0 0 24 24">
  <path d="M9 16v-6H5l7-7 7 7h-4v6H9Zm-4 4v-2h14v2H5Z"/>
</symbol>

<symbol id="mdi-wrench" viewBox="0 0 24 24">
  <path d="m22.7 19-9.1-9.1c.9-2.3.4-5-1.5-6.9-2-2-5-2.4-7.4-1.3L9 6 6 9 1.6 4.7C.4 7.1.9 10.1 2.9 12.1c1.9 1.9 4.6 2.4 6.9 1.5l9.1 9.1c.4.4 1 .4 1.4 0l2.3-2.3c.5-.4.5-1.1.1-1.4Z"/>
</symbol>

<symbol id="mdi-youtube" viewBox="0 0 24 24">
  <path d="M21.583 7.187a2.504 2.504 0 0 0-1.768-1.768C18.255 5 12 5 12 5s-6.254 0-7.815.417a2.503 2.503 0 0 0-1.768 1.768C2 8.745 2 12 2 12s0 3.255.417 4.813c.23.86.909 1.538 1.768 1.768C5.745 19 12 19 12 19s6.255 0 7.815-.42a2.501 2.501 0 0 0 1.768-1.767C22 15.255 22 12 22 12s0-3.255-.417-4.813Zm-11.57 7.8V9.013l5.179 2.965-5.179 3.01Z"/>
</symbol>
</svg>

