<svg width="250" height="200" viewBox="0 0 250 200" fill="none" xmlns="http://www.w3.org/2000/svg">
<rect width="250" height="200" fill="white"/>
<path fill-rule="evenodd" clip-rule="evenodd" d="M207 65C210.866 65 214 68.134 214 72C214 75.866 210.866 79 207 79H167C170.866 79 174 82.134 174 86C174 89.866 170.866 93 167 93H189C192.866 93 196 96.134 196 100C196 103.866 192.866 107 189 107H178.826C173.952 107 170 110.134 170 114C170 116.577 172 118.911 176 121C179.866 121 183 124.134 183 128C183 131.866 179.866 135 176 135H93C89.134 135 86 131.866 86 128C86 124.134 89.134 121 93 121H54C50.134 121 47 117.866 47 114C47 110.134 50.134 107 54 107H94C97.866 107 101 103.866 101 100C101 96.134 97.866 93 94 93H69C65.134 93 62 89.866 62 86C62 82.134 65.134 79 69 79H109C105.134 79 102 75.866 102 72C102 68.134 105.134 65 109 65H207ZM207 93C210.866 93 214 96.134 214 100C214 103.866 210.866 107 207 107C203.134 107 200 103.866 200 100C200 96.134 203.134 93 207 93Z" fill="#F3F7FF"/>
<path fill-rule="evenodd" clip-rule="evenodd" d="M121 73.5V69.5C121 67.0147 123.015 65 125.5 65C127.985 65 130 67.0147 130 69.5V73.5" fill="white"/>
<path d="M121 73.5V69.5C121 67.0147 123.015 65 125.5 65C127.985 65 130 67.0147 130 69.5V73.5" stroke="#1F64E7" stroke-width="2.5"/>
<path fill-rule="evenodd" clip-rule="evenodd" d="M125.5 73C138.164 73 149 81.969 149 95.5L149.753 110.183C149.916 113.356 150.764 116.457 152.24 119.272L156.119 126.669C156.854 128.752 155.761 131.037 153.678 131.772C153.25 131.923 152.8 132 152.347 132H98.6538C96.4447 132 94.6538 130.209 94.6538 128C94.6538 127.547 94.7309 127.096 94.8818 126.669L98.7602 119.272C100.236 116.457 101.084 113.356 101.247 110.183L102 95.5C102 81.969 112.836 73 125.5 73Z" fill="white" stroke="#1F64E7" stroke-width="2.5"/>
<path fill-rule="evenodd" clip-rule="evenodd" d="M125.5 77C136.705 77 144.61 85.8408 144.61 96.161L145.235 110.663C145.331 112.897 145.768 115.104 146.529 117.206L150.467 125.319C150.843 126.358 150.306 127.504 149.268 127.88C149.049 127.96 148.819 128 148.587 128H133.073C132.178 128 131.392 127.406 131.149 126.545L128.327 116.576C127.83 114.822 127.554 113.013 127.504 111.191L127.495 110.584V90.7661C127.495 86.185 126.444 81.8493 124.571 78.215C124.361 77.8065 124.521 77.3047 124.93 77.0942C125.043 77.0355 125.169 77.0039 125.297 77.0018C125.37 77.0006 125.438 77 125.5 77Z" fill="#E8F0FE"/>
<path d="M106.217 113.638H124M129.682 113.638H134.425H129.682Z" stroke="#75A4FE" stroke-width="2.5" stroke-linecap="round" stroke-linejoin="round"/>
<path d="M91.2173 85.1941C91.2173 75.1302 97.6339 67.7698 106.217 65.1941" stroke="#75A4FE" stroke-width="2.5" stroke-linecap="round"/>
<path d="M83.2173 85.1941C83.2173 71.1046 93.0562 60.8001 106.217 57.1941" stroke="#75A4FE" stroke-width="2.5" stroke-linecap="round"/>
<path d="M159 85.1941C159 75.1302 152.583 67.7698 144 65.1941" stroke="#75A4FE" stroke-width="2.5" stroke-linecap="round"/>
<path d="M167 85.1941C167 71.1046 157.161 60.8001 144 57.1941" stroke="#75A4FE" stroke-width="2.5" stroke-linecap="round"/>
<path d="M120 136C120 139.314 122.686 142 126 142C129.314 142 132 139.314 132 136" stroke="#1F64E7" stroke-width="2.5" stroke-linecap="round"/>
</svg>
