<svg width="250" height="200" viewBox="0 0 250 200" fill="none" xmlns="http://www.w3.org/2000/svg">
<rect width="250" height="200" fill="white"/>
<rect width="250" height="200" fill="white"/>
<path fill-rule="evenodd" clip-rule="evenodd" d="M207 65C210.866 65 214 68.134 214 72C214 75.866 210.866 79 207 79H167C170.866 79 174 82.134 174 86C174 89.866 170.866 93 167 93H189C192.866 93 196 96.134 196 100C196 103.866 192.866 107 189 107H178.826C173.952 107 170 110.134 170 114C170 116.577 172 118.911 176 121C179.866 121 183 124.134 183 128C183 131.866 179.866 135 176 135H93C89.134 135 86 131.866 86 128C86 124.134 89.134 121 93 121H54C50.134 121 47 117.866 47 114C47 110.134 50.134 107 54 107H94C97.866 107 101 103.866 101 100C101 96.134 97.866 93 94 93H69C65.134 93 62 89.866 62 86C62 82.134 65.134 79 69 79H109C105.134 79 102 75.866 102 72C102 68.134 105.134 65 109 65H207ZM207 93C210.866 93 214 96.134 214 100C214 103.866 210.866 107 207 107C203.134 107 200 103.866 200 100C200 96.134 203.134 93 207 93Z" fill="#F3F7FF"/>
<path d="M87.2495 100.315C87.2495 99.9781 87.4745 99.6824 87.7995 99.5925L124.798 89.3524C124.928 89.3161 125.067 89.3161 125.198 89.3524L162.196 99.5925C162.521 99.6824 162.746 99.9781 162.746 100.315V142.645C162.746 142.975 162.53 143.267 162.214 143.363L125.216 154.627C125.074 154.67 124.922 154.67 124.779 154.627L87.7811 143.363C87.4653 143.267 87.2495 142.975 87.2495 142.645V100.315Z" fill="white" stroke="#1F64E7" stroke-width="2.5" stroke-linejoin="round"/>
<path d="M160.5 104V141.5L127.5 151.5L160.5 104Z" fill="#E8F0FE"/>
<path d="M124.997 90L162.995 100L124.997 110L86.999 100L124.997 90Z" fill="#E8F0FE"/>
<mask id="path-6-inside-1_223_761" fill="white">
<path d="M85.7889 99.401C86.0377 99.0962 86.4423 98.9656 86.8224 99.0674L125.548 109.444C126.248 109.632 126.522 110.48 126.063 111.042L114.479 125.235C113.484 126.454 111.866 126.977 110.345 126.569L74.9876 117.095C73.5858 116.719 73.0381 115.023 73.9558 113.899L85.7889 99.401Z"/>
</mask>
<path d="M85.7889 99.401C86.0377 99.0962 86.4423 98.9656 86.8224 99.0674L125.548 109.444C126.248 109.632 126.522 110.48 126.063 111.042L114.479 125.235C113.484 126.454 111.866 126.977 110.345 126.569L74.9876 117.095C73.5858 116.719 73.0381 115.023 73.9558 113.899L85.7889 99.401Z" fill="white"/>
<path d="M114.479 125.235L112.542 123.654L114.479 125.235ZM85.7889 99.401L83.8521 97.8202L85.7889 99.401ZM86.1754 101.482L124.9 111.859L126.195 107.029L87.4695 96.6526L86.1754 101.482ZM124.127 109.461L112.542 123.654L116.416 126.815L128 112.623L124.127 109.461ZM110.992 124.154L75.6346 114.68L74.3405 119.51L109.698 128.984L110.992 124.154ZM75.8925 115.479L87.7256 100.982L83.8521 97.8202L72.019 112.318L75.8925 115.479ZM75.6346 114.68C75.985 114.774 76.122 115.198 75.8925 115.479L72.019 112.318C69.9543 114.847 71.1865 118.665 74.3405 119.51L75.6346 114.68ZM112.542 123.654C112.169 124.111 111.562 124.307 110.992 124.154L109.698 128.984C112.169 129.646 114.798 128.797 116.416 126.815L112.542 123.654ZM124.9 111.859C123.849 111.577 123.438 110.304 124.127 109.461L128 112.623C129.606 110.655 128.648 107.686 126.195 107.029L124.9 111.859ZM87.4695 96.6526C86.139 96.2961 84.7231 96.7531 83.8521 97.8202L87.7256 100.982C87.3524 101.439 86.7456 101.635 86.1754 101.482L87.4695 96.6526Z" fill="#1F64E7" mask="url(#path-6-inside-1_223_761)"/>
<path d="M114.257 80.3137L124.931 89.7848L88.22 99.6221L77.4812 90.0934C77.0343 89.6969 77.2078 88.9626 77.7849 88.808L111.721 79.7145C112.613 79.4753 113.566 79.7004 114.257 80.3137Z" fill="#E8F0FE" stroke="#1F64E7" stroke-width="2.5"/>
<path d="M135.525 80.2651L124.816 89.7312L161.687 99.6114L172.457 90.0921C172.905 89.696 172.732 88.9605 172.154 88.8057L138.058 79.6693C137.167 79.4306 136.216 79.6543 135.525 80.2651Z" fill="#E8F0FE" stroke="#1F64E7" stroke-width="2.5"/>
<mask id="path-10-inside-2_223_761" fill="white">
<path d="M163.884 99.5414C163.635 99.237 163.231 99.1067 162.851 99.2085L124.587 109.462C123.886 109.65 123.612 110.499 124.072 111.061L135.481 125.014C136.477 126.231 138.094 126.752 139.613 126.345L174.51 116.994C175.912 116.619 176.46 114.92 175.54 113.796L163.884 99.5414Z"/>
</mask>
<path d="M163.884 99.5414C163.635 99.237 163.231 99.1067 162.851 99.2085L124.587 109.462C123.886 109.65 123.612 110.499 124.072 111.061L135.481 125.014C136.477 126.231 138.094 126.752 139.613 126.345L174.51 116.994C175.912 116.619 176.46 114.92 175.54 113.796L163.884 99.5414Z" fill="white"/>
<path d="M175.54 113.796L177.476 112.214L175.54 113.796ZM124.072 111.061L122.137 112.643L124.072 111.061ZM163.884 99.5414L165.82 97.9588L163.884 99.5414ZM163.498 101.623L125.234 111.877L123.94 107.047L162.204 96.7937L163.498 101.623ZM126.007 109.478L137.417 123.431L133.546 126.596L122.137 112.643L126.007 109.478ZM138.966 123.931L173.863 114.58L175.157 119.409L140.26 128.76L138.966 123.931ZM173.605 115.379L161.949 101.124L165.82 97.9588L177.476 112.214L173.605 115.379ZM173.863 114.58C173.512 114.673 173.375 115.098 173.605 115.379L177.476 112.214C179.544 114.743 178.312 118.564 175.157 119.409L173.863 114.58ZM137.417 123.431C137.79 123.888 138.396 124.083 138.966 123.931L140.26 128.76C137.791 129.422 135.164 128.575 133.546 126.596L137.417 123.431ZM125.234 111.877C126.286 111.595 126.697 110.321 126.007 109.478L122.137 112.643C120.528 110.676 121.486 107.705 123.94 107.047L125.234 111.877ZM162.204 96.7937C163.534 96.4375 164.948 96.8934 165.82 97.9588L161.949 101.124C162.322 101.581 162.929 101.776 163.498 101.623L162.204 96.7937Z" fill="#1F64E7" mask="url(#path-10-inside-2_223_761)"/>
<path d="M124.998 154L124.998 126.903M124.998 119L124.998 121.795" stroke="#1F64E7" stroke-width="2.5" stroke-linecap="round"/>
<path d="M124.998 91L124.998 100" stroke="#1F64E7" stroke-width="2.5" stroke-linecap="round"/>
<path fill-rule="evenodd" clip-rule="evenodd" d="M156.141 131.866L151.481 133.137C150.815 133.318 150.422 134.005 150.604 134.672C150.786 135.338 151.473 135.73 152.139 135.549L156.798 134.278C157.464 134.096 157.857 133.409 157.675 132.743C157.494 132.077 156.807 131.684 156.141 131.866ZM156.872 139.573C157.538 139.391 157.931 138.704 157.749 138.038C157.568 137.372 156.881 136.979 156.215 137.161L146.69 139.758C146.024 139.94 145.632 140.627 145.813 141.293C145.995 141.959 146.682 142.352 147.348 142.17L156.872 139.573Z" fill="#75A4FE"/>
<path d="M128.997 45C130.654 45 131.997 43.6569 131.997 42C131.997 40.3431 130.654 39 128.997 39C127.34 39 125.997 40.3431 125.997 42C125.997 43.6569 127.34 45 128.997 45Z" stroke="#75A4FE" stroke-width="2"/>
<path d="M157.996 72C159.653 72 160.996 70.6569 160.996 69C160.996 67.3431 159.653 66 157.996 66C156.339 66 154.996 67.3431 154.996 69C154.996 70.6569 156.339 72 157.996 72Z" fill="#75A4FE"/>
<path d="M134.997 56L143.355 64.3582M143.482 56L135.124 64.3582L143.482 56Z" stroke="#75A4FE" stroke-width="2.5" stroke-linecap="round" stroke-linejoin="round"/>
<path d="M100.999 65.5962L106.999 71.5962M106.999 65.5962L100.999 71.5962L106.999 65.5962Z" stroke="#75A4FE" stroke-width="2.5" stroke-linecap="round" stroke-linejoin="round"/>
<path d="M114.594 59C116.251 59 117.594 57.6569 117.594 56C117.594 54.3431 116.251 53 114.594 53C112.937 53 111.594 54.3431 111.594 56C111.594 57.6569 112.937 59 114.594 59Z" fill="#75A4FE"/>
</svg>
