<svg width="250" height="200" viewBox="0 0 250 200" fill="none" xmlns="http://www.w3.org/2000/svg">
<rect width="250" height="200" fill="white"/>
<path fill-rule="evenodd" clip-rule="evenodd" d="M207 65C210.866 65 214 68.134 214 72C214 75.866 210.866 79 207 79H167C170.866 79 174 82.134 174 86C174 89.866 170.866 93 167 93H189C192.866 93 196 96.134 196 100C196 103.866 192.866 107 189 107H178.826C173.952 107 170 110.134 170 114C170 116.577 172 118.911 176 121C179.866 121 183 124.134 183 128C183 131.866 179.866 135 176 135H93C89.134 135 86 131.866 86 128C86 124.134 89.134 121 93 121H54C50.134 121 47 117.866 47 114C47 110.134 50.134 107 54 107H94C97.866 107 101 103.866 101 100C101 96.134 97.866 93 94 93H69C65.134 93 62 89.866 62 86C62 82.134 65.134 79 69 79H109C105.134 79 102 75.866 102 72C102 68.134 105.134 65 109 65H207ZM207 93C210.866 93 214 96.134 214 100C214 103.866 210.866 107 207 107C203.134 107 200 103.866 200 100C200 96.134 203.134 93 207 93Z" fill="#F3F7FF"/>
<rect x="85" y="65" width="81" height="76" rx="7" fill="white"/>
<path d="M158.895 65.248H161.845C163.667 65.248 165.143 66.7076 165.143 68.5079V136.966C165.143 138.766 163.667 140.226 161.845 140.226H89.2976C87.4764 140.226 86 138.766 86 136.966V68.5079C86 66.7076 87.4764 65.248 89.2976 65.248H92.2309M108.91 65.248H142.233" stroke="#1F64E7" stroke-width="2.5" stroke-linecap="round"/>
<path fill-rule="evenodd" clip-rule="evenodd" d="M160.5 122.5L160.995 122.496V134.478C160.995 135.582 160.1 136.478 158.995 136.478H91.6953C90.5907 136.478 89.6953 135.582 89.6953 134.478V87.9775C89.6953 86.873 90.5907 85.9775 91.6953 85.9775L101.125 85.9787C112.086 107.646 134.558 122.5 160.5 122.5Z" fill="#E8F0FE"/>
<path d="M107.91 92.3232H97.4136C96.8613 92.3232 96.4136 92.771 96.4136 93.3232V103.82C96.4136 104.372 96.8613 104.82 97.4136 104.82H107.91C108.462 104.82 108.91 104.372 108.91 103.82V93.3232C108.91 92.771 108.462 92.3232 107.91 92.3232Z" stroke="#75A4FE" stroke-width="2.5" stroke-linejoin="round"/>
<path d="M130.82 92.3232H120.323C119.771 92.3232 119.323 92.771 119.323 93.3232V103.82C119.323 104.372 119.771 104.82 120.323 104.82H130.82C131.372 104.82 131.82 104.372 131.82 103.82V93.3232C131.82 92.771 131.372 92.3232 130.82 92.3232Z" stroke="#75A4FE" stroke-width="2.5" stroke-linejoin="round"/>
<path d="M107.91 115.316H97.4136C96.8613 115.316 96.4136 115.764 96.4136 116.316V126.812C96.4136 127.364 96.8613 127.812 97.4136 127.812H107.91C108.462 127.812 108.91 127.364 108.91 126.812V116.316C108.91 115.764 108.462 115.316 107.91 115.316Z" stroke="#75A4FE" stroke-width="2.5" stroke-linejoin="round"/>
<path d="M130.82 115.316H120.323C119.771 115.316 119.323 115.764 119.323 116.316V126.812C119.323 127.364 119.771 127.812 120.323 127.812H130.82C131.372 127.812 131.82 127.364 131.82 126.812V116.316C131.82 115.764 131.372 115.316 130.82 115.316Z" stroke="#75A4FE" stroke-width="2.5" stroke-linejoin="round"/>
<path d="M153.729 92.3232H143.233C142.681 92.3232 142.233 92.771 142.233 93.3232V103.82C142.233 104.372 142.681 104.82 143.233 104.82H153.729C154.282 104.82 154.729 104.372 154.729 103.82V93.3232C154.729 92.771 154.282 92.3232 153.729 92.3232Z" stroke="#75A4FE" stroke-width="2.5" stroke-linejoin="round"/>
<path d="M87.6299 81.9097H151.758" stroke="#1F64E7" stroke-width="2.5" stroke-linecap="round"/>
<path d="M87.6299 81.9097H156" stroke="#1F64E7" stroke-width="2.5" stroke-linecap="round"/>
<path d="M100.579 70.2465V60.2495" stroke="#1F64E7" stroke-width="2.5" stroke-linecap="round"/>
<path d="M150.564 70.2465V60.2495" stroke="#1F64E7" stroke-width="2.5" stroke-linecap="round"/>
<path fill-rule="evenodd" clip-rule="evenodd" d="M96.4135 70.2032C96.4135 72.2327 98.0073 73.8899 100.012 73.9915L100.207 73.9964H101.12C103.15 73.9964 104.807 72.4026 104.909 70.3984L104.913 70.2032C104.913 69.3073 105.64 68.5809 106.536 68.5808C106.536 68.5808 106.536 68.5808 106.536 68.5808H144.791C145.687 68.5808 146.413 69.3072 146.413 70.2032C146.413 72.2327 148.007 73.8899 150.011 73.9915L150.207 73.9964H151.12C153.15 73.9964 154.807 72.4026 154.909 70.3984L154.913 70.2032C154.913 69.3073 155.64 68.5809 156.536 68.5808C156.536 68.5808 156.536 68.5808 156.536 68.5808H159.301C160.406 68.5808 161.301 69.4762 161.301 70.5808V78.2464H89.6953V70.5808C89.6953 69.4762 90.5907 68.5808 91.6953 68.5808H94.7909C95.687 68.5808 96.4134 69.3072 96.4135 70.2032Z" fill="#E8F0FE"/>
</svg>
