<svg width="250" height="200" viewBox="0 0 250 200" fill="none" xmlns="http://www.w3.org/2000/svg">
<rect width="250" height="200" fill="white"/>
<rect width="250" height="200" fill="white"/>
<path fill-rule="evenodd" clip-rule="evenodd" d="M207 65C210.866 65 214 68.134 214 72C214 75.866 210.866 79 207 79H167C170.866 79 174 82.134 174 86C174 89.866 170.866 93 167 93H189C192.866 93 196 96.134 196 100C196 103.866 192.866 107 189 107H178.826C173.952 107 170 110.134 170 114C170 116.577 172 118.911 176 121C179.866 121 183 124.134 183 128C183 131.866 179.866 135 176 135H93C89.134 135 86 131.866 86 128C86 124.134 89.134 121 93 121H54C50.134 121 47 117.866 47 114C47 110.134 50.134 107 54 107H94C97.866 107 101 103.866 101 100C101 96.134 97.866 93 94 93H69C65.134 93 62 89.866 62 86C62 82.134 65.134 79 69 79H109C105.134 79 102 75.866 102 72C102 68.134 105.134 65 109 65H207ZM207 93C210.866 93 214 96.134 214 100C214 103.866 210.866 107 207 107C203.134 107 200 103.866 200 100C200 96.134 203.134 93 207 93Z" fill="#F3F7FF"/>
<path fill-rule="evenodd" clip-rule="evenodd" d="M94.0388 144.518C92.2956 144.172 90.7989 143.782 89.5487 143.347C89.4666 143.318 89.3787 143.286 89.2849 143.251C88.6796 143.024 88.3732 142.349 88.6004 141.744C88.639 141.641 88.6918 141.544 88.7573 141.456C96.8727 130.554 109.81 123.5 124.383 123.5C138.595 123.5 151.251 130.208 159.396 140.651C159.506 140.791 159.631 140.956 159.772 141.145C160.271 141.811 160.135 142.756 159.468 143.255C159.349 143.344 159.217 143.415 159.077 143.466C153.477 145.489 142.082 146.5 124.891 146.5C117.661 146.5 111.409 146.321 106.135 145.963M101.726 145.6C100.237 145.454 98.8462 145.289 97.5538 145.106L101.726 145.6Z" fill="white"/>
<path d="M94.0388 144.518C92.2956 144.172 90.7989 143.782 89.5487 143.347C89.4666 143.318 89.3787 143.286 89.2849 143.251C88.6796 143.024 88.3732 142.349 88.6004 141.744C88.639 141.641 88.6918 141.544 88.7573 141.456C96.8727 130.554 109.81 123.5 124.383 123.5C138.595 123.5 151.251 130.208 159.396 140.651C159.506 140.791 159.631 140.956 159.772 141.145C160.271 141.811 160.135 142.756 159.468 143.255C159.349 143.344 159.217 143.415 159.077 143.466C153.477 145.489 142.082 146.5 124.891 146.5C117.661 146.5 111.409 146.321 106.135 145.963M101.726 145.6C100.237 145.454 98.8462 145.289 97.5538 145.106" stroke="#1F64E7" stroke-width="2.5" stroke-linecap="round" stroke-linejoin="round"/>
<path fill-rule="evenodd" clip-rule="evenodd" d="M124.383 127C134.464 127 144.014 130.978 153.032 138.933L153.524 139.37C153.934 139.74 153.968 140.372 153.598 140.783C153.464 140.931 153.289 141.036 153.095 141.084C147.68 142.427 138.11 143.098 124.383 143.098C121.04 143.098 117.946 143.058 115.1 142.979C113.751 141.304 113 139.45 113 137.5C113 133.305 116.472 129.557 121.92 127.081C122.737 127.027 123.558 127 124.383 127Z" fill="#E8F0FE"/>
<path d="M157.152 81.0698C156.19 80.5335 154.538 79.7556 152.196 78.7359L148.488 77.42C133.285 73.3462 118.236 80.2065 114.877 92.743C114.659 93.559 114.495 94.3789 114.384 95.2L115.206 95.4193C117.446 93.5711 121.362 92.9276 125.408 94.0117C129.097 95.0002 131.519 97.1648 132.768 99.6039C135.069 98.1159 139.105 97.6819 142.794 98.6704C146.84 99.7545 150.896 102.534 151.911 105.254C154.151 103.406 158.067 102.763 162.113 103.847C165.462 104.744 168.141 106.622 169.541 108.786C169.687 108.363 169.818 107.933 169.935 107.496C172.03 99.6768 168.988 91.1915 162.819 85.2637C161.146 83.6562 159.244 82.2368 157.152 81.0698Z" fill="white"/>
<path d="M152.196 78.7358C154.538 79.7555 156.19 80.5334 157.152 81.0697C159.244 82.2367 161.146 83.6561 162.819 85.2635C168.988 91.1914 172.03 99.6767 169.935 107.496C169.818 107.933 169.686 108.363 169.541 108.786C168.141 106.622 165.462 104.744 162.113 103.847C158.067 102.763 154.151 103.406 151.911 105.254C150.896 102.534 146.84 99.7544 142.794 98.6703C139.105 97.6817 135.069 98.1158 132.768 99.6038C131.519 97.1647 129.097 95.0001 125.408 94.0116C121.362 92.9275 117.446 93.571 115.206 95.4192L114.384 95.1999C114.495 94.3788 114.659 93.5589 114.877 92.7428C118.236 80.2064 133.285 73.3461 148.488 77.4199C148.672 77.4692 149.167 75.9955 149.972 72.9989" stroke="#1F64E7" stroke-width="2.5" stroke-linecap="round" stroke-linejoin="round"/>
<path fill-rule="evenodd" clip-rule="evenodd" d="M166.016 99.3683L166.016 99.3683C166.145 99.9052 165.815 100.445 165.278 100.575C165.035 100.634 164.78 100.599 164.561 100.479C162.942 99.5865 161.588 98.9944 160.498 98.7024C156.899 97.7379 153.44 97.9984 151.193 99.1859C150.015 97.45 147.877 95.8904 145.194 94.947C147.908 90.7409 149.558 86.2822 150.143 82.1173C158.686 85.1734 163.977 90.9236 166.016 99.3683Z" fill="#E8F0FE"/>
<path d="M141.629 103.017L133.347 133.926" stroke="#1F64E7" stroke-width="2.5" stroke-linecap="round" stroke-linejoin="round"/>
<path d="M133.714 97.2051C136.045 89.494 139.413 84.1645 143.818 81.2167" stroke="#1F64E7" stroke-width="2.5" stroke-linecap="round"/>
<path d="M151.727 104.482C153.975 97.1609 154.499 91.1804 153.299 86.5405" stroke="#1F64E7" stroke-width="2.5" stroke-linecap="round"/>
<path d="M91.5 80C96.7467 80 101 75.7467 101 70.5C101 65.2533 96.7467 61 91.5 61C86.2533 61 82 65.2533 82 70.5C82 75.7467 86.2533 80 91.5 80Z" fill="white" stroke="#1F64E7" stroke-width="2.5"/>
<path d="M82 61L78 57" stroke="#1F64E7" stroke-width="2.5" stroke-linecap="round"/>
<path d="M105 84L101 80" stroke="#1F64E7" stroke-width="2.5" stroke-linecap="round"/>
<path d="M82 80L78 84" stroke="#1F64E7" stroke-width="2.5" stroke-linecap="round"/>
<path d="M105 57L101 61" stroke="#1F64E7" stroke-width="2.5" stroke-linecap="round"/>
<path d="M78 70.5H73" stroke="#1F64E7" stroke-width="2.5" stroke-linecap="round"/>
<path d="M110 70.5H105" stroke="#1F64E7" stroke-width="2.5" stroke-linecap="round"/>
<path d="M91.5 57V52" stroke="#1F64E7" stroke-width="2.5" stroke-linecap="round"/>
<path d="M91.5 89V84" stroke="#1F64E7" stroke-width="2.5" stroke-linecap="round"/>
<path d="M73.5 106.5H90.4592" stroke="#75A4FE" stroke-width="2.5" stroke-linecap="round"/>
<path d="M85 114.5H110.5" stroke="#75A4FE" stroke-width="2.5" stroke-linecap="round"/>
<path d="M103.5 106.5H120.459" stroke="#75A4FE" stroke-width="2.5" stroke-linecap="round"/>
</svg>
