<svg width="250" height="200" viewBox="0 0 250 200" fill="none" xmlns="http://www.w3.org/2000/svg">
<rect width="250" height="200" fill="white"/>
<path fill-rule="evenodd" clip-rule="evenodd" d="M207 65C210.866 65 214 68.134 214 72C214 75.866 210.866 79 207 79H167C170.866 79 174 82.134 174 86C174 89.866 170.866 93 167 93H189C192.866 93 196 96.134 196 100C196 103.866 192.866 107 189 107H178.826C173.952 107 170 110.134 170 114C170 116.577 172 118.911 176 121C179.866 121 183 124.134 183 128C183 131.866 179.866 135 176 135H93C89.134 135 86 131.866 86 128C86 124.134 89.134 121 93 121H54C50.134 121 47 117.866 47 114C47 110.134 50.134 107 54 107H94C97.866 107 101 103.866 101 100C101 96.134 97.866 93 94 93H69C65.134 93 62 89.866 62 86C62 82.134 65.134 79 69 79H109C105.134 79 102 75.866 102 72C102 68.134 105.134 65 109 65H207ZM207 93C210.866 93 214 96.134 214 100C214 103.866 210.866 107 207 107C203.134 107 200 103.866 200 100C200 96.134 203.134 93 207 93Z" fill="#F3F7FF"/>
<circle cx="125" cy="100" r="45" fill="white"/>
<path fill-rule="evenodd" clip-rule="evenodd" d="M100.804 72.0089L100.492 72.28C92.8305 79.059 88 88.9654 88 100C88 120.435 104.565 137 125 137C136.539 137 146.845 131.717 153.631 123.439C155.561 123.701 157.521 123.872 159.505 123.951C151.921 134.859 139.295 142 125 142C101.804 142 83 123.196 83 100C83 86.1089 89.7438 73.7929 100.136 66.1472C100.267 68.1284 100.491 70.0835 100.804 72.0089Z" fill="#E8F0FE"/>
<path d="M125 134C143.778 134 159 118.778 159 100C159 81.2223 143.778 66 125 66C106.222 66 91 81.2223 91 100C91 118.778 106.222 134 125 134Z" stroke="#1F64E7" stroke-width="2.5"/>
<path d="M97.8926 135.922C98.875 136.665 99.8888 137.368 100.932 138.029M103.889 139.751C110.185 143.101 117.371 145 125 145C149.853 145 170 124.853 170 100C170 75.1472 149.853 55 125 55C100.147 55 80 75.1472 80 100C80 113.349 85.8126 125.341 95.045 133.582" stroke="#1F64E7" stroke-width="2.5" stroke-linecap="round"/>
<path fill-rule="evenodd" clip-rule="evenodd" d="M123 95.75C120.653 95.75 118.75 97.6528 118.75 100C118.75 102.347 120.653 104.25 123 104.25C125.347 104.25 127.25 102.347 127.25 100C127.25 97.6528 125.347 95.75 123 95.75ZM126.485 101.726L126.587 101.817L135.384 110.616C135.872 111.104 135.872 111.896 135.384 112.384C134.928 112.84 134.208 112.87 133.718 112.475L133.616 112.384L124.819 103.585C124.33 103.096 124.331 102.305 124.819 101.817C125.274 101.361 125.994 101.331 126.485 101.726ZM123 98.25C123.966 98.25 124.75 99.0335 124.75 100C124.75 100.966 123.966 101.75 123 101.75C122.034 101.75 121.25 100.966 121.25 100C121.25 99.0335 122.034 98.25 123 98.25ZM123 72.6257C123.647 72.6257 124.18 73.1176 124.244 73.7479L124.25 73.8757V97C124.25 97.6903 123.69 98.25 123 98.25C122.353 98.25 121.82 97.7581 121.756 97.1278L121.75 97V73.8757C121.75 73.1854 122.31 72.6257 123 72.6257Z" fill="#E8F0FE"/>
<path d="M125 102C126.657 102 128 100.657 128 99C128 97.3431 126.657 96 125 96C123.343 96 122 97.3431 122 99C122 100.657 123.343 102 125 102Z" fill="#F3F7FF" stroke="#1F64E7" stroke-width="2.5"/>
<path d="M125 96V72.8757" stroke="#1F64E7" stroke-width="2.5" stroke-linecap="round"/>
<path d="M136.5 110.5L127.703 101.701" stroke="#1F64E7" stroke-width="2.5" stroke-linecap="round"/>
<path d="M125.5 128.5V121.5" stroke="#75A4FE" stroke-width="2.5" stroke-linecap="round"/>
<path d="M97 100H104" stroke="#75A4FE" stroke-width="2.5" stroke-linecap="round"/>
<path d="M146 100H153" stroke="#75A4FE" stroke-width="2.5" stroke-linecap="round"/>
<path d="M145.653 120.153L140.703 115.203" stroke="#75A4FE" stroke-width="2.5" stroke-linecap="round"/>
<path d="M110.297 84.7972L105.347 79.8474" stroke="#75A4FE" stroke-width="2.5" stroke-linecap="round"/>
<path d="M105.347 120.153L110.297 115.203" stroke="#75A4FE" stroke-width="2.5" stroke-linecap="round"/>
<path d="M140.703 84.7972L145.653 79.8474" stroke="#75A4FE" stroke-width="2.5" stroke-linecap="round"/>
</svg>
