<svg width="250" height="200" viewBox="0 0 250 200" fill="none" xmlns="http://www.w3.org/2000/svg">
<rect width="250" height="200" fill="white"/>
<path fill-rule="evenodd" clip-rule="evenodd" d="M207 65C210.866 65 214 68.134 214 72C214 75.866 210.866 79 207 79H167C170.866 79 174 82.134 174 86C174 89.866 170.866 93 167 93H189C192.866 93 196 96.134 196 100C196 103.866 192.866 107 189 107H178.826C173.952 107 170 110.134 170 114C170 116.577 172 118.911 176 121C179.866 121 183 124.134 183 128C183 131.866 179.866 135 176 135H93C89.134 135 86 131.866 86 128C86 124.134 89.134 121 93 121H54C50.134 121 47 117.866 47 114C47 110.134 50.134 107 54 107H94C97.866 107 101 103.866 101 100C101 96.134 97.866 93 94 93H69C65.134 93 62 89.866 62 86C62 82.134 65.134 79 69 79H109C105.134 79 102 75.866 102 72C102 68.134 105.134 65 109 65H207ZM207 93C210.866 93 214 96.134 214 100C214 103.866 210.866 107 207 107C203.134 107 200 103.866 200 100C200 96.134 203.134 93 207 93Z" fill="#F3F7FF"/>
<path d="M169 139.56H114.738" stroke="#75A4FE" stroke-width="2.5" stroke-linecap="round"/>
<path d="M96.7839 139.56H88.7773" stroke="#75A4FE" stroke-width="2.5" stroke-linecap="round"/>
<path d="M84.389 139.56H81.3364" stroke="#75A4FE" stroke-width="2.5" stroke-linecap="round"/>
<path fill-rule="evenodd" clip-rule="evenodd" d="M144.331 60.9349C146.845 61.0091 148.93 61.5635 150.585 62.5979C152.194 63.6036 153.417 65.0745 154.251 67.0107C154.771 68.2164 154.666 69.6006 153.97 70.7141L117.525 129.039C116.867 130.092 115.973 130.977 114.913 131.625L101.893 139.584L103.338 124.392C103.456 123.156 103.86 121.964 104.518 120.911L132.859 75.5546L134.643 72.7003L140.821 62.8135C141.574 61.6081 142.91 60.893 144.331 60.9349Z" fill="white"/>
<path fill-rule="evenodd" clip-rule="evenodd" d="M103.001 137.927L147.949 68.3103C148.218 67.881 148.474 67.614 148.718 67.5092C149.084 67.3521 149.519 67.3071 149.813 67.5092C151.566 68.713 153.176 68.81 154.645 67.8002C156.36 66.6209 156.107 67.3184 153.887 69.8927C129.104 108.989 116.576 128.742 116.303 129.152C116.031 129.562 111.597 132.487 103.001 137.927Z" fill="#E8F0FE"/>
<path fill-rule="evenodd" clip-rule="evenodd" d="M144.331 60.9349C146.845 61.0091 148.93 61.5635 150.585 62.5979C152.195 63.6036 153.417 65.0745 154.252 67.0107C154.772 68.2164 154.667 69.6006 153.971 70.7141L117.526 129.039C116.867 130.092 115.973 130.977 114.913 131.625L101.893 139.584L103.338 124.392C103.456 123.156 103.86 121.964 104.518 120.911L132.86 75.5546L134.643 72.7003L140.821 62.8135C141.574 61.6081 142.911 60.893 144.331 60.9349Z" stroke="#1F64E7" stroke-width="2.5" stroke-linejoin="round"/>
<path fill-rule="evenodd" clip-rule="evenodd" d="M147.852 80.5071C144.561 79.9326 141.876 78.9954 139.796 77.6957C137.716 76.3959 136.065 74.6237 134.844 72.3792" fill="white"/>
<path d="M147.852 80.5071C144.561 79.9326 141.876 78.9954 139.796 77.6957C137.716 76.3959 136.065 74.6237 134.844 72.3792" stroke="#1F64E7" stroke-width="2.5" stroke-linecap="round"/>
<path fill-rule="evenodd" clip-rule="evenodd" d="M115.75 129.554C113.096 128.973 110.882 128.128 109.109 127.02C108.904 126.892 108.704 126.759 108.507 126.622" fill="white"/>
<path d="M115.75 129.554C113.096 128.973 110.882 128.128 109.109 127.02C108.904 126.892 108.704 126.759 108.507 126.622" stroke="#1F64E7" stroke-width="2.5" stroke-linecap="round"/>
<path d="M106.491 56.5002V62.5002" stroke="#75A4FE" stroke-width="2.5" stroke-linecap="round" stroke-linejoin="round"/>
<path d="M106.491 70.5002V76.5002" stroke="#75A4FE" stroke-width="2.5" stroke-linecap="round" stroke-linejoin="round"/>
<path d="M96.491 66.5002H102.491" stroke="#75A4FE" stroke-width="2.5" stroke-linecap="round" stroke-linejoin="round"/>
<path d="M110.491 66.5002H116.491" stroke="#75A4FE" stroke-width="2.5" stroke-linecap="round" stroke-linejoin="round"/>
<path d="M148.438 113.263V117.263" stroke="#75A4FE" stroke-width="2.5" stroke-linecap="round" stroke-linejoin="round"/>
<path d="M148.438 125.263V129.263" stroke="#75A4FE" stroke-width="2.5" stroke-linecap="round" stroke-linejoin="round"/>
<path d="M140.438 121.263H144.438" stroke="#75A4FE" stroke-width="2.5" stroke-linecap="round" stroke-linejoin="round"/>
<path d="M152.438 121.263H156.438" stroke="#75A4FE" stroke-width="2.5" stroke-linecap="round" stroke-linejoin="round"/>
<path d="M164 107.5C165.657 107.5 167 106.157 167 104.5C167 102.843 165.657 101.5 164 101.5C162.344 101.5 161 102.843 161 104.5C161 106.157 162.344 107.5 164 107.5Z" stroke="#75A4FE" stroke-width="2"/>
<path d="M89.0007 90.0002C90.6576 90.0002 92.0007 88.6571 92.0007 87.0002C92.0007 85.3434 90.6576 84.0002 89.0007 84.0002C87.3439 84.0002 86.0007 85.3434 86.0007 87.0002C86.0007 88.6571 87.3439 90.0002 89.0007 90.0002Z" fill="#75A4FE"/>
</svg>
