<svg width="250" height="200" viewBox="0 0 250 200" fill="none" xmlns="http://www.w3.org/2000/svg">
<rect width="250" height="200" fill="white"/>
<path fill-rule="evenodd" clip-rule="evenodd" d="M207 65C210.866 65 214 68.134 214 72C214 75.866 210.866 79 207 79H167C170.866 79 174 82.134 174 86C174 89.866 170.866 93 167 93H189C192.866 93 196 96.134 196 100C196 103.866 192.866 107 189 107H178.826C173.952 107 170 110.134 170 114C170 116.577 172 118.911 176 121C179.866 121 183 124.134 183 128C183 131.866 179.866 135 176 135H93C89.134 135 86 131.866 86 128C86 124.134 89.134 121 93 121H54C50.134 121 47 117.866 47 114C47 110.134 50.134 107 54 107H94C97.866 107 101 103.866 101 100C101 96.134 97.866 93 94 93H69C65.134 93 62 89.866 62 86C62 82.134 65.134 79 69 79H109C105.134 79 102 75.866 102 72C102 68.134 105.134 65 109 65H207ZM207 93C210.866 93 214 96.134 214 100C214 103.866 210.866 107 207 107C203.134 107 200 103.866 200 100C200 96.134 203.134 93 207 93Z" fill="#F3F7FF"/>
<rect x="85" y="65" width="81" height="76" rx="7" fill="white"/>
<path d="M158.895 65.248H161.845C163.667 65.248 165.143 66.7076 165.143 68.5079V136.966C165.143 138.766 163.667 140.226 161.845 140.226H89.2976C87.4764 140.226 86 138.766 86 136.966V68.5079C86 66.7076 87.4764 65.248 89.2976 65.248H92.2309M108.91 65.248H142.233" stroke="#1F64E7" stroke-width="2.5" stroke-linecap="round"/>
<path fill-rule="evenodd" clip-rule="evenodd" d="M160.5 122.5L160.995 122.496V134.478C160.995 135.582 160.1 136.478 158.995 136.478H91.6953C90.5907 136.478 89.6953 135.582 89.6953 134.478V87.9775C89.6953 86.873 90.5907 85.9775 91.6953 85.9775L101.125 85.9787C112.086 107.646 134.558 122.5 160.5 122.5Z" fill="#E8F0FE"/>
<path d="M105.984 125H121.899C122.92 125 123.601 124.359 123.601 123.398C123.601 122.438 122.92 121.797 121.899 121.797H109.287V121.717L116.534 114.27C121.479 109.205 122.92 106.822 122.92 103.659C122.92 98.9946 119.157 95.6313 113.952 95.6313C108.046 95.6313 104.863 99.4751 104.442 102.438C104.402 102.678 104.382 102.898 104.382 103.159C104.382 104.1 104.983 104.76 106.044 104.76C107.025 104.76 107.425 104.24 107.666 103.499C108.646 100.396 110.829 98.7744 113.952 98.7744C117.055 98.7744 119.317 100.937 119.317 103.879C119.317 106.302 118.396 107.843 114.512 111.907L105.263 121.557C104.402 122.458 104.242 122.778 104.242 123.519C104.242 124.419 104.923 125 105.984 125Z" fill="#75A4FE"/>
<path d="M137.495 125.48C143.541 125.48 147.785 121.376 147.785 115.551C147.785 109.985 143.821 106.042 138.235 106.042C135.413 106.042 133.03 107.042 131.729 108.804H131.649L132.57 99.3149H144.662C145.683 99.3149 146.363 98.6743 146.363 97.7134C146.363 96.7524 145.683 96.1118 144.662 96.1118H132.59C130.468 96.1118 129.527 96.9126 129.347 98.9346L128.326 110.386C128.306 110.566 128.306 110.686 128.306 110.846C128.306 111.887 128.926 112.708 130.047 112.708C130.948 112.708 131.249 112.528 132.53 111.167C133.731 109.885 135.573 109.145 137.555 109.145C141.418 109.145 144.181 111.847 144.181 115.651C144.181 119.575 141.458 122.317 137.575 122.317C134.432 122.317 132.169 120.736 131.289 117.933C130.968 116.912 130.488 116.512 129.607 116.512C128.586 116.512 127.925 117.172 127.925 118.193C127.925 118.934 128.085 119.495 128.346 120.115C129.707 123.378 133.271 125.48 137.495 125.48Z" fill="#75A4FE"/>
<path d="M87.6299 81.9097H151.758" stroke="#1F64E7" stroke-width="2.5" stroke-linecap="round"/>
<path d="M87.6299 81.9097H156" stroke="#1F64E7" stroke-width="2.5" stroke-linecap="round"/>
<path d="M100.579 70.2465V60.2495" stroke="#1F64E7" stroke-width="2.5" stroke-linecap="round"/>
<path d="M150.564 70.2465V60.2495" stroke="#1F64E7" stroke-width="2.5" stroke-linecap="round"/>
<path fill-rule="evenodd" clip-rule="evenodd" d="M96.4135 70.2034C96.4135 72.2329 98.0073 73.8901 100.012 73.9917L100.207 73.9967H101.12C103.15 73.9967 104.807 72.4029 104.909 70.3986L104.913 70.2034C104.913 69.3075 105.64 68.5811 106.536 68.5811C106.536 68.5811 106.536 68.5811 106.536 68.5811H144.791C145.687 68.5811 146.413 69.3074 146.413 70.2034C146.413 72.2329 148.007 73.8901 150.011 73.9917L150.207 73.9967H151.12C153.15 73.9967 154.807 72.4029 154.909 70.3986L154.913 70.2034C154.913 69.3075 155.64 68.5811 156.536 68.5811C156.536 68.5811 156.536 68.5811 156.536 68.5811H159.301C160.406 68.5811 161.301 69.4765 161.301 70.5811V78.2467H89.6953V70.5811C89.6953 69.4765 90.5907 68.5811 91.6953 68.5811H94.7909C95.687 68.5811 96.4134 69.3074 96.4135 70.2034Z" fill="#E8F0FE"/>
</svg>
