<svg width="250" height="200" viewBox="0 0 250 200" fill="none" xmlns="http://www.w3.org/2000/svg">
<rect width="250" height="200" fill="white"/>
<path fill-rule="evenodd" clip-rule="evenodd" d="M207 65C210.866 65 214 68.134 214 72C214 75.866 210.866 79 207 79H167C170.866 79 174 82.134 174 86C174 89.866 170.866 93 167 93H189C192.866 93 196 96.134 196 100C196 103.866 192.866 107 189 107H178.826C173.952 107 170 110.134 170 114C170 116.577 172 118.911 176 121C179.866 121 183 124.134 183 128C183 131.866 179.866 135 176 135H93C89.134 135 86 131.866 86 128C86 124.134 89.134 121 93 121H54C50.134 121 47 117.866 47 114C47 110.134 50.134 107 54 107H94C97.866 107 101 103.866 101 100C101 96.134 97.866 93 94 93H69C65.134 93 62 89.866 62 86C62 82.134 65.134 79 69 79H109C105.134 79 102 75.866 102 72C102 68.134 105.134 65 109 65H207ZM207 93C210.866 93 214 96.134 214 100C214 103.866 210.866 107 207 107C203.134 107 200 103.866 200 100C200 96.134 203.134 93 207 93Z" fill="#F3F7FF"/>
<rect x="116" y="46" width="63" height="63" rx="9" fill="white"/>
<path fill-rule="evenodd" clip-rule="evenodd" d="M117 82.7065V55C117 50.5817 120.582 47 125 47H170C174.418 47 178 50.5817 178 55V99.5C178 103.918 174.418 107.5 170 107.5H156.091" fill="white"/>
<path d="M117 82.7065V55C117 50.5817 120.582 47 125 47H170C174.418 47 178 50.5817 178 55V99.5C178 103.918 174.418 107.5 170 107.5H156.091" stroke="#75A4FE" stroke-width="2.5" stroke-linecap="round" stroke-dasharray="2 8"/>
<path fill-rule="evenodd" clip-rule="evenodd" d="M103.216 130H96.55H103.216ZM92.0566 130H80C75.5817 130 72 126.418 72 122V77.5C72 73.0817 75.5817 69.5 80 69.5H125C129.418 69.5 133 73.0817 133 77.5V91.6018" fill="white"/>
<path d="M92.0566 130H80C75.5817 130 72 126.418 72 122V77.5C72 73.0817 75.5817 69.5 80 69.5H125C129.418 69.5 133 73.0817 133 77.5V91.6018M103.216 130H96.55H103.216Z" stroke="#1F64E7" stroke-width="2.5" stroke-linecap="round" stroke-linejoin="round"/>
<path fill-rule="evenodd" clip-rule="evenodd" d="M114.631 119.222L115.441 119.678C112.473 118.929 110.26 118.897 108.804 119.584C106.484 120.677 104.675 122.853 105.211 126.25L81.2002 126.25C78.4388 126.25 76.2002 124.011 76.2002 121.25V78.25C76.2002 75.4886 78.4388 73.25 81.2002 73.25L81.8618 73.2508C85.8013 93.0182 98.0227 109.678 114.631 119.222Z" fill="#E8F0FE"/>
<path d="M136.103 143.619C137.808 143.917 139.34 144.431 140.701 145.159L141.647 146.289C141.101 147.319 141.186 148.62 141.966 149.584L144.169 152.304C145.211 153.592 147.1 153.791 148.388 152.748L165.439 138.94C166.727 137.898 166.925 136.008 165.883 134.721L163.68 132.001C162.78 130.889 161.249 130.589 160.019 131.199L159.439 130.231C159.489 130.295 159.522 130.338 159.536 130.359C159.039 129.057 158.601 127.627 158.224 126.067C156.268 118.423 154.844 115.499 151.631 109.899C149.489 106.165 146.764 102.507 143.457 98.9235C142.683 97.7758 139.9 96.9542 138.127 98.1502C136.354 99.3462 136.262 102.107 137.036 103.254C137.153 103.428 137.472 103.836 137.951 104.431L137.811 104.414L135.235 100.592C134.461 99.4448 131.609 98.6517 129.836 99.8476C128.063 101.044 128.04 103.776 128.814 104.923L130.382 107.248L130.38 107.247L127.364 102.776C126.576 101.608 123.836 101.003 122.063 102.199C120.29 103.394 120.155 105.939 120.943 107.107L121.361 107.727L114.245 97.96C112.913 95.9852 110.395 95.3538 108.622 96.5498C106.849 97.7457 106.492 100.316 107.824 102.291C112.512 108.918 116.015 113.924 118.334 117.307C120.652 120.691 123.325 124.336 126.352 128.244C118.736 124.831 114.231 123.025 112.838 122.828C110.748 122.532 107.762 123.543 108.855 127.117C109.948 130.692 123.897 140.386 136.103 143.619Z" fill="white"/>
<path fill-rule="evenodd" clip-rule="evenodd" d="M111.626 122.805L111.628 122.895C111.647 123.264 111.719 123.67 111.856 124.117C112.949 127.692 125.19 134.221 137.397 137.455C138.96 137.728 141.516 139.068 145.065 141.474L140.702 145.159C139.341 144.431 137.809 143.917 136.104 143.619C123.898 140.386 109.949 130.692 108.856 127.117C107.964 124.2 109.789 122.99 111.626 122.805ZM110.174 95.9725L110.168 95.9905C109.725 97.6946 109.844 99.7814 110.663 100.997C115.495 107.231 119.07 112.041 121.388 115.424C123.135 117.973 126.19 120.734 127.722 124.742C128.056 125.617 128.056 126.881 127.722 128.535C126.558 127.536 125.476 126.622 124.476 125.795C122.209 122.804 120.162 119.974 118.334 117.307C116.016 113.924 112.513 108.918 107.825 102.291C106.493 100.316 106.85 97.7457 108.623 96.5498C109.099 96.2289 109.628 96.0396 110.174 95.9725Z" fill="#E8F0FE"/>
<path d="M140.702 145.159C139.341 144.431 137.809 143.918 136.104 143.619C123.898 140.386 109.949 130.692 108.856 127.117C107.763 123.543 110.749 122.532 112.839 122.828C114.232 123.026 118.736 124.831 126.352 128.244C123.325 124.337 120.653 120.691 118.334 117.308C116.016 113.924 112.512 108.918 107.824 102.291C106.492 100.316 106.85 97.7459 108.623 96.5499C110.396 95.354 112.913 95.9854 114.245 97.9602L127.53 116.873" stroke="#1F64E7" stroke-width="2.5" stroke-linecap="round" stroke-linejoin="round"/>
<path d="M127.53 116.873C126.066 114.703 123.87 111.447 120.943 107.107C120.155 105.939 120.29 103.394 122.063 102.199C123.836 101.003 126.576 101.608 127.364 102.776C130.044 106.75 132.055 109.731 133.396 111.719" stroke="#1F64E7" stroke-width="2.5" stroke-linecap="round"/>
<path d="M132.815 110.854C132.083 109.77 130.75 107.793 128.814 104.923C128.04 103.776 128.063 101.044 129.836 99.8477C131.609 98.6517 134.461 99.4448 135.235 100.593L137.811 104.414" stroke="#1F64E7" stroke-width="2.5" stroke-linecap="round"/>
<path d="M139.49 106.892C139.009 106.179 138.191 104.967 137.036 103.255C136.262 102.107 136.354 99.3462 138.127 98.1503C139.9 96.9543 142.683 97.7759 143.457 98.9236C146.764 102.507 149.489 106.165 151.631 109.899C154.844 115.499 156.268 118.423 158.224 126.067C158.601 127.627 159.039 129.057 159.536 130.359" stroke="#1F64E7" stroke-width="2.5" stroke-linecap="round"/>
<path d="M159.461 131.557L142.41 145.365C141.122 146.408 140.924 148.297 141.967 149.584L144.169 152.304C145.212 153.592 147.101 153.791 148.389 152.748L165.44 138.94C166.727 137.898 166.926 136.008 165.883 134.721L163.68 132.001C162.638 130.713 160.749 130.515 159.461 131.557Z" stroke="#1F64E7" stroke-width="2.5"/>
<path d="M160.596 133.55L143.931 147.045C143.502 147.392 143.436 148.022 143.784 148.451L145.655 150.763C146.003 151.192 146.633 151.258 147.062 150.911L163.726 137.416C164.156 137.068 164.222 136.439 163.874 136.01L162.002 133.698C161.655 133.269 161.025 133.203 160.596 133.55Z" fill="#E8F0FE"/>
<path d="M147.5 69.6135V84.8862" stroke="#75A4FE" stroke-width="2.5" stroke-linecap="round"/>
<path d="M139.864 77.25H155.136" stroke="#75A4FE" stroke-width="2.5" stroke-linecap="round"/>
</svg>
