<svg width="250" height="200" viewBox="0 0 250 200" fill="none" xmlns="http://www.w3.org/2000/svg">
<rect width="250" height="200" fill="white"/>
<path fill-rule="evenodd" clip-rule="evenodd" d="M207 65C210.866 65 214 68.134 214 72C214 75.866 210.866 79 207 79H167C170.866 79 174 82.134 174 86C174 89.866 170.866 93 167 93H189C192.866 93 196 96.134 196 100C196 103.866 192.866 107 189 107H178.826C173.952 107 170 110.134 170 114C170 116.577 172 118.911 176 121C179.866 121 183 124.134 183 128C183 131.866 179.866 135 176 135H93C89.134 135 86 131.866 86 128C86 124.134 89.134 121 93 121H54C50.134 121 47 117.866 47 114C47 110.134 50.134 107 54 107H94C97.866 107 101 103.866 101 100C101 96.134 97.866 93 94 93H69C65.134 93 62 89.866 62 86C62 82.134 65.134 79 69 79H109C105.134 79 102 75.866 102 72C102 68.134 105.134 65 109 65H207ZM207 93C210.866 93 214 96.134 214 100C214 103.866 210.866 107 207 107C203.134 107 200 103.866 200 100C200 96.134 203.134 93 207 93Z" fill="#F3F7FF"/>
<path fill-rule="evenodd" clip-rule="evenodd" d="M159 107.547C159 115.536 159 127.521 159 143.5C159 145.709 157.209 147.5 155 147.5H83C80.7909 147.5 79 145.709 79 143.5V79C79 76.7909 80.7909 75 83 75H108C110.209 75 112 76.7909 112 79C112 81.4853 114.015 83.5 116.5 83.5H155C157.209 83.5 159 85.2909 159 87.5C159 88.8781 159 90.0599 159 91.0453" fill="white"/>
<path d="M159 107.547C159 115.536 159 127.521 159 143.5C159 145.709 157.209 147.5 155 147.5H83C80.7909 147.5 79 145.709 79 143.5V79C79 76.7909 80.7909 75 83 75H108C110.209 75 112 76.7909 112 79C112 81.4853 114.015 83.5 116.5 83.5H155C157.209 83.5 159 85.2909 159 87.5C159 88.8781 159 90.0599 159 91.0453V107.547Z" stroke="#1F64E7" stroke-width="2.5" stroke-linecap="round"/>
<path d="M159 107.547C159 115.536 159 127.521 159 143.5C159 145.709 157.209 147.5 155 147.5H83C80.7909 147.5 79 145.709 79 143.5V79C79 76.7909 80.7909 75 83 75H108C110.209 75 112 76.7909 112 79C112 81.4853 114.015 83.5 116.5 83.5H155C157.209 83.5 159 85.2909 159 87.5C159 88.8781 159 90.0599 159 91.0453" stroke="#1F64E7" stroke-width="2.5" stroke-linecap="round"/>
<path fill-rule="evenodd" clip-rule="evenodd" d="M82.8623 82.6648C82.8623 80.669 84.4803 79.051 86.4761 79.051H105.062C107.058 79.051 108.676 80.669 108.676 82.6648C108.676 85.1581 110.697 87.1794 113.191 87.1794H151.524C153.52 87.1794 155.138 88.7973 155.138 90.7932V140.386C155.138 142.382 153.52 144 151.524 144H86.4761C84.4803 144 82.8623 142.382 82.8623 140.386V82.6648Z" fill="#E8F0FE"/>
<path fill-rule="evenodd" clip-rule="evenodd" d="M96.0731 95H167.794C170.003 95 171.794 96.7909 171.794 99C171.794 99.348 171.748 99.6944 171.658 100.031L159.792 144.531C159.325 146.282 157.739 147.5 155.927 147.5H82.9048C81.2479 147.5 79.9048 146.157 79.9048 144.5C79.9048 144.239 79.9388 143.979 80.0061 143.727L82.0514 136.057L92.2081 97.9694C92.6751 96.2183 94.2609 95 96.0731 95Z" fill="white" stroke="#1F64E7" stroke-width="2.5" stroke-linecap="round"/>
<path fill-rule="evenodd" clip-rule="evenodd" d="M157.21 138.86L156.763 140.531C156.296 142.282 154.711 143.5 152.898 143.5H87.7651C86.6606 143.5 85.7651 142.605 85.7651 141.5C85.7651 141.326 85.7878 141.153 85.8327 140.985L96.2368 101.969C96.7037 100.218 98.2895 99.0001 100.102 99.0001L116.032 99C116.888 121.064 134.971 138.708 157.21 138.86Z" fill="#E8F0FE"/>
<path d="M119 58.4548C120.657 58.4548 122 57.1117 122 55.4548C122 53.798 120.657 52.4548 119 52.4548C117.343 52.4548 116 53.798 116 55.4548C116 57.1117 117.343 58.4548 119 58.4548Z" stroke="#75A4FE" stroke-width="2"/>
<path d="M150 74.4548C151.657 74.4548 153 73.1117 153 71.4548C153 69.798 151.657 68.4548 150 68.4548C148.343 68.4548 147 69.798 147 71.4548C147 73.1117 148.343 74.4548 150 74.4548Z" fill="#75A4FE"/>
<path d="M126.757 66.2122L135.116 74.5704M135.243 66.2122L126.884 74.5704L135.243 66.2122Z" stroke="#75A4FE" stroke-width="2.5" stroke-linecap="round" stroke-linejoin="round"/>
</svg>
