<svg width="250" height="200" viewBox="0 0 250 200" fill="none" xmlns="http://www.w3.org/2000/svg">
<rect width="250" height="200" fill="white"/>
<rect width="250" height="200" fill="white"/>
<path fill-rule="evenodd" clip-rule="evenodd" d="M63 134H154C154.515 134 155.017 133.944 155.5 133.839C155.983 133.944 156.485 134 157 134H209C212.866 134 216 130.866 216 127C216 123.134 212.866 120 209 120H203C199.134 120 196 116.866 196 113C196 109.134 199.134 106 203 106H222C225.866 106 229 102.866 229 99C229 95.134 225.866 92 222 92H200C203.866 92 207 88.866 207 85C207 81.134 203.866 78 200 78H136C139.866 78 143 74.866 143 71C143 67.134 139.866 64 136 64H79C75.134 64 72 67.134 72 71C72 74.866 75.134 78 79 78H39C35.134 78 32 81.134 32 85C32 88.866 35.134 92 39 92H64C67.866 92 71 95.134 71 99C71 102.866 67.866 106 64 106H24C20.134 106 17 109.134 17 113C17 116.866 20.134 120 24 120H63C59.134 120 56 123.134 56 127C56 130.866 59.134 134 63 134ZM226 134C229.866 134 233 130.866 233 127C233 123.134 229.866 120 226 120C222.134 120 219 123.134 219 127C219 130.866 222.134 134 226 134Z" fill="#F3F7FF"/>
<path d="M87 101.446L124.5 71L162 101.446V148H87V101.446Z" fill="white"/>
<path fill-rule="evenodd" clip-rule="evenodd" d="M103.421 88.1138C111.826 112.616 134.799 130.352 162 130.983V148H87V101.445L103.421 88.1138ZM96 105C95.4477 105 95 105.448 95 106V122C95 122.552 95.4477 123 96 123H108C108.552 123 109 122.552 109 122V106C109 105.448 108.552 105 108 105H96Z" fill="#E8F0FE"/>
<path d="M87 108.872V114.654M162 108V148H87V118.436" stroke="#1F64E7" stroke-width="2.5" stroke-linecap="round" stroke-linejoin="round"/>
<path d="M122.01 64.5353C122.031 64.5179 122.051 64.4998 122.07 64.4811C123.426 63.173 125.574 63.173 126.93 64.4811C126.949 64.4998 126.969 64.5179 126.99 64.5353L169.457 100.507C170.822 101.852 170.852 104.048 169.519 105.43C168.177 106.821 165.961 106.861 164.57 105.519C164.549 105.499 164.527 105.479 164.505 105.46L125.302 72.6416C124.838 72.2529 124.162 72.2529 123.698 72.6416L84.4955 105.46C84.473 105.479 84.4512 105.499 84.43 105.519C83.0389 106.861 80.8231 106.821 79.4811 105.43C78.1477 104.048 78.1784 101.852 79.5432 100.507L122.01 64.5353Z" stroke="#1F64E7" stroke-width="2.5" stroke-linecap="round" stroke-linejoin="round"/>
<path d="M62 148H82.4541M49.1279 148H56M192.128 148H195M167 148H187.428" stroke="#1F64E7" stroke-width="2.5" stroke-linecap="round" stroke-linejoin="round"/>
<path d="M105 143C105 142.448 105.448 142 106 142H143C143.552 142 144 142.448 144 143V148H105V143Z" fill="white"/>
<path d="M144 148V149.25H145.25V148H144ZM105 148H103.75V149.25H105V148ZM106 143.25H143V140.75H106V143.25ZM142.75 143V148H145.25V143H142.75ZM144 146.75H105V149.25H144V146.75ZM106.25 148V143H103.75V148H106.25ZM143 143.25C142.862 143.25 142.75 143.138 142.75 143H145.25C145.25 141.757 144.243 140.75 143 140.75V143.25ZM106 140.75C104.757 140.75 103.75 141.757 103.75 143H106.25C106.25 143.138 106.138 143.25 106 143.25V140.75Z" fill="#1F64E7"/>
<path d="M111 137C111 136.448 111.448 136 112 136H137C137.552 136 138 136.448 138 137V142H111L111 137Z" fill="white"/>
<path d="M138 142V143.25H139.25V142H138ZM111 142H109.75V143.25H111V142ZM112 137.25H137V134.75H112V137.25ZM136.75 137V142H139.25V137H136.75ZM112.25 142V137H109.75V142H112.25ZM138 140.75H111V143.25H138V140.75ZM137 137.25C136.862 137.25 136.75 137.138 136.75 137H139.25C139.25 135.757 138.243 134.75 137 134.75V137.25ZM112 134.75C110.757 134.75 109.75 135.757 109.75 137H112.25C112.25 137.138 112.138 137.25 112 137.25V134.75Z" fill="#1F64E7"/>
<path d="M115 105H134V136H115V105Z" fill="white" stroke="#1F64E7" stroke-width="2.5" stroke-linejoin="round"/>
<path d="M102 105H108C108.552 105 109 105.448 109 106V120C109 120.552 108.552 121 108 121H102V105Z" fill="#E8F0FE"/>
<path d="M148 105H154C154.552 105 155 105.448 155 106V122C155 122.552 154.552 123 154 123H148V105Z" fill="#E8F0FE"/>
<rect x="96" y="105" width="12" height="17" rx="1" stroke="#1F64E7" stroke-width="2.5" stroke-linejoin="round"/>
<rect x="142" y="105" width="12" height="17" rx="1" stroke="#1F64E7" stroke-width="2.5" stroke-linejoin="round"/>
<path d="M154 71H145V79L154 86V71Z" fill="white"/>
<path d="M145 71V79.5M154 71V86" stroke="#1F64E7" stroke-width="2.5" stroke-linecap="round" stroke-linejoin="round"/>
<path d="M120.25 118.25L120.25 120.75" stroke="#75A4FE" stroke-width="2.5" stroke-linecap="round"/>
<path d="M146.5 71H145C144.448 71 144 70.5523 144 70V67C144 66.4477 144.448 66 145 66H154C154.552 66 155 66.4477 155 67V70C155 70.5523 154.552 71 154 71H150.5" stroke="#1F64E7" stroke-width="2.5" stroke-linecap="round" stroke-linejoin="round"/>
</svg>
