<svg width="250" height="200" viewBox="0 0 250 200" fill="none" xmlns="http://www.w3.org/2000/svg">
<rect width="250" height="200" fill="white"/>
<path fill-rule="evenodd" clip-rule="evenodd" d="M207 65C210.866 65 214 68.134 214 72C214 75.866 210.866 79 207 79H167C170.866 79 174 82.134 174 86C174 89.866 170.866 93 167 93H189C192.866 93 196 96.134 196 100C196 103.866 192.866 107 189 107H178.826C173.952 107 170 110.134 170 114C170 116.577 172 118.911 176 121C179.866 121 183 124.134 183 128C183 131.866 179.866 135 176 135H93C89.134 135 86 131.866 86 128C86 124.134 89.134 121 93 121H54C50.134 121 47 117.866 47 114C47 110.134 50.134 107 54 107H94C97.866 107 101 103.866 101 100C101 96.134 97.866 93 94 93H69C65.134 93 62 89.866 62 86C62 82.134 65.134 79 69 79H109C105.134 79 102 75.866 102 72C102 68.134 105.134 65 109 65H207ZM207 93C210.866 93 214 96.134 214 100C214 103.866 210.866 107 207 107C203.134 107 200 103.866 200 100C200 96.134 203.134 93 207 93Z" fill="#F3F7FF"/>
<path fill-rule="evenodd" clip-rule="evenodd" d="M107 97C108.021 96.6351 110.244 95.4273 110.988 94.2341L117.405 81.4421C117.696 80.9311 117.894 80.3735 117.991 79.7952L118.03 79.5045L119.792 63.1096L120.793 62.6832C123.908 61.3566 127.525 62.4488 129.385 65.2773C131.124 67.9218 132.157 70.6247 132.485 73.386C132.987 77.6216 132.453 82.6112 130.885 88.3548L130.706 88.996H153.804L153.802 88.9996L155.98 89C159.039 89 161.519 91.4803 161.519 94.5399C161.519 94.6935 161.513 94.847 161.5 95C161.303 97.3623 159.868 99.3447 157.865 100.33C159.996 101.101 161.519 103.142 161.519 105.54C161.519 105.693 161.513 105.847 161.5 106C161.255 108.94 159.091 111.293 156.302 111.866C157.641 112.772 158.521 114.305 158.521 116.043C158.521 116.196 158.514 116.348 158.5 116.5C158.217 119.615 155.605 122 152.478 122L151.491 121.999C152.723 122.919 153.521 124.388 153.521 126.043C153.521 126.196 153.514 126.348 153.5 126.5C153.217 129.615 150.605 132 147.478 132H141L141.001 131.991L111.991 131.991C109.235 131.991 107 129.757 107 127V97ZM85 93.3068H100C102.209 93.3068 104 95.0976 104 97.3068V129.307C104 131.516 102.209 133.307 100 133.307H85C82.7909 133.307 81 131.516 81 129.307V97.3068C81 95.0976 82.7909 93.3068 85 93.3068Z" fill="white"/>
<path d="M108.285 96.3128C109.306 95.9479 110.244 95.4273 110.988 94.2341L117.405 81.4421C117.696 80.9311 117.894 80.3735 117.99 79.7952L118.03 79.5045L119.792 63.1096L120.793 62.6832C123.908 61.3566 127.525 62.4488 129.385 65.2773C131.124 67.9218 132.157 70.6247 132.485 73.386C132.987 77.6216 132.453 82.6112 130.885 88.3548L130.706 88.996H153.804L153.802 88.9996L155.979 89C159.039 89 161.519 91.4803 161.519 94.5399C161.519 94.6935 161.513 94.847 161.5 95C161.303 97.3623 159.868 99.3447 157.865 100.33C159.996 101.101 161.519 103.142 161.519 105.54C161.519 105.693 161.513 105.847 161.5 106C161.255 108.94 159.091 111.293 156.302 111.866C157.641 112.772 158.521 114.305 158.521 116.043C158.521 116.196 158.514 116.348 158.5 116.5C158.217 119.615 155.605 122 152.478 122L151.491 121.999C152.723 122.919 153.521 124.388 153.521 126.043C153.521 126.196 153.514 126.348 153.5 126.5C153.217 129.615 150.605 132 147.478 132H141L141.001 131.991L114.367 131.991M110.727 131.721C109.669 131.438 108.674 130.94 107.808 130.251" stroke="#1F64E7" stroke-width="2.5" stroke-linecap="round" stroke-linejoin="round"/>
<path fill-rule="evenodd" clip-rule="evenodd" d="M152.867 92.2314C154.997 92.2314 156.724 93.9583 156.724 96.0885C156.724 96.304 156.706 96.519 156.67 96.7314C156.503 97.723 155.79 98.7778 154.532 99.896L154.273 100.121C153.852 100.477 153.8 101.108 154.157 101.53C154.181 101.559 154.207 101.586 154.234 101.612C155.704 102.995 156.439 104.272 156.439 105.443C156.439 105.62 156.43 105.796 156.411 105.972C156.263 107.351 155.314 108.636 153.564 109.83L153.295 110.008C152.367 110.608 152.102 111.846 152.702 112.773C152.773 112.883 152.854 112.986 152.946 113.08C153.53 113.683 153.823 114.317 153.823 114.984C153.823 115.319 153.775 115.651 153.681 115.972C152.899 118.64 150.865 119.326 147.672 120.472C147.291 120.614 147.097 121.039 147.239 121.42C147.298 121.576 147.407 121.708 147.55 121.794C148.601 122.425 149.126 123.226 149.126 124.198C149.126 124.458 149.098 124.718 149.044 124.972C148.487 127.596 146.171 129.066 143.488 129.066H114.972C113.132 129.066 111.353 128.432 109.93 127.277C108.858 125.75 108.268 123.936 108.238 122.07L108.091 113.231L118.165 113.232C119.24 113.337 120.33 113.39 121.433 113.39C135.576 113.39 147.672 104.626 152.586 92.2319L152.867 92.2314Z" fill="#E8F0FE"/>
<path d="M94.5 58V64" stroke="#75A4FE" stroke-width="2.5" stroke-linecap="round" stroke-linejoin="round"/>
<path d="M94.5 72V78" stroke="#75A4FE" stroke-width="2.5" stroke-linecap="round" stroke-linejoin="round"/>
<path d="M84.5 68H90.5" stroke="#75A4FE" stroke-width="2.5" stroke-linecap="round" stroke-linejoin="round"/>
<path d="M98.5 68H104.5" stroke="#75A4FE" stroke-width="2.5" stroke-linecap="round" stroke-linejoin="round"/>
<path d="M165.5 132V136" stroke="#75A4FE" stroke-width="2.5" stroke-linecap="round" stroke-linejoin="round"/>
<path d="M165.5 144V148" stroke="#75A4FE" stroke-width="2.5" stroke-linecap="round" stroke-linejoin="round"/>
<path d="M157.5 140H161.5" stroke="#75A4FE" stroke-width="2.5" stroke-linecap="round" stroke-linejoin="round"/>
<path d="M169.5 140H173.5" stroke="#75A4FE" stroke-width="2.5" stroke-linecap="round" stroke-linejoin="round"/>
<path d="M100 93.3066H85C82.7909 93.3066 81 95.0975 81 97.3066V129.307C81 131.516 82.7909 133.307 85 133.307H100C102.209 133.307 104 131.516 104 129.307V97.3066C104 95.0975 102.209 93.3066 100 93.3066Z" fill="white" stroke="#1F64E7" stroke-width="2.5" stroke-linejoin="round"/>
<path fill-rule="evenodd" clip-rule="evenodd" d="M84.5 113.307H100.5V128.307C100.5 129.411 99.6046 130.307 98.5 130.307H86.5C85.3954 130.307 84.5 129.411 84.5 128.307V113.307Z" fill="#E8F0FE"/>
<path d="M92.5 127C94.1569 127 95.5 125.657 95.5 124C95.5 122.343 94.1569 121 92.5 121C90.8431 121 89.5 122.343 89.5 124C89.5 125.657 90.8431 127 92.5 127Z" stroke="#75A4FE" stroke-width="2.5"/>
</svg>
