<svg width="250" height="200" viewBox="0 0 250 200" fill="none" xmlns="http://www.w3.org/2000/svg">
<rect width="250" height="200" fill="white"/>
<path d="M125 151C153.167 151 176 128.167 176 100C176 71.8335 153.167 49 125 49C96.8335 49 74 71.8335 74 100C74 128.167 96.8335 151 125 151Z" fill="#F3F7FF"/>
<path fill-rule="evenodd" clip-rule="evenodd" d="M126.613 54.7476C115.015 54.7476 105.613 64.1496 105.613 75.7476V87.9999H102C99.7906 87.9999 97.9998 89.7907 97.9998 91.9999V132C97.9998 134.209 99.7906 136 102 136H151C153.209 136 155 134.209 155 132V91.9999C155 89.7907 153.209 87.9999 151 87.9999H147.613V75.7476C147.613 64.1496 138.211 54.7476 126.613 54.7476ZM112.613 75.7476V88.7476H140.613V84.3553V75.7476C140.613 68.1201 134.513 61.9172 126.926 61.751L126.613 61.7476C118.881 61.7476 112.613 68.0156 112.613 75.7476Z" fill="white"/>
<path d="M102.302 136H100.105C98.39 136 96.9998 134.657 96.9998 133V92C96.9998 90.3431 98.39 89 100.105 89H152.894C154.609 89 156 90.3431 156 92V133C156 134.657 154.609 136 152.894 136H106.523" stroke="#1F64E7" stroke-width="2.5" stroke-linecap="round"/>
<path fill-rule="evenodd" clip-rule="evenodd" d="M123.465 118.323L123.465 123C123.465 124.657 124.867 126 126.598 126H126.668C128.398 126 129.801 124.657 129.801 123L129.801 122.417C134.995 125.202 140.811 127.049 147 127.719L146.999 132C146.999 132.552 146.531 133 145.955 133H101.044C100.467 133 99.9998 132.552 99.9998 132V93.0003C99.9998 92.448 100.467 92.0003 101.044 92.0003L107.024 92C109.055 102.586 115.042 111.846 123.465 118.323Z" fill="#E8F0FE"/>
<path fill-rule="evenodd" clip-rule="evenodd" d="M126.613 101.748C130.203 101.748 133.113 104.626 133.113 108.176C133.113 110.643 131.708 112.785 129.647 113.863L129.646 122.748C129.646 124.404 128.303 125.748 126.646 125.748H126.58C124.923 125.748 123.58 124.404 123.58 122.748L123.579 113.863C121.518 112.785 120.113 110.643 120.113 108.176C120.113 104.626 123.023 101.748 126.613 101.748Z" stroke="#1F64E7" stroke-width="2.5"/>
<path d="M150.613 131.248V115.017M150.501 110.991V108.279" stroke="#75A4FE" stroke-width="2.5" stroke-linecap="round" stroke-linejoin="round"/>
<path d="M126.613 54.7476C115.015 54.7476 105.613 64.1496 105.613 75.7476V88.7476H147.613V75.7476C147.613 64.1496 138.211 54.7476 126.613 54.7476Z" stroke="#1F64E7" stroke-width="2.5" stroke-linejoin="round"/>
<path d="M140.613 88.7476H112.613V75.7476C112.613 68.0156 118.881 61.7476 126.613 61.7476L126.926 61.751C134.513 61.9172 140.613 68.1201 140.613 75.7476C140.613 79.5732 140.613 82.4424 140.613 84.3553V88.7476Z" stroke="#1F64E7" stroke-width="2.5" stroke-linecap="round" stroke-linejoin="round"/>
<path fill-rule="evenodd" clip-rule="evenodd" d="M115.573 61.9592C116.044 62.4631 116.018 63.2541 115.514 63.726C112.511 66.5377 110.677 70.3888 110.42 74.5364L110.4 74.9522L110.304 77.5589V85.4726C110.304 86.163 109.745 86.7226 109.054 86.7226C108.407 86.7226 107.875 86.2308 107.811 85.6004L107.804 85.4726L107.805 77.5134L107.902 74.8613C108.082 69.8913 110.224 65.2543 113.806 61.901C114.31 61.4291 115.101 61.4552 115.573 61.9592ZM124.167 58.2328C124.31 58.908 123.879 59.5718 123.204 59.7154C121.432 60.0919 119.755 60.7556 118.226 61.6762C117.635 62.0322 116.867 61.8413 116.511 61.2498C116.155 60.6584 116.345 59.8903 116.937 59.5342C118.703 58.4711 120.64 57.7045 122.684 57.27C123.359 57.1265 124.023 57.5575 124.167 58.2328Z" fill="#E8F0FE"/>
</svg>
