<svg width="250" height="200" viewBox="0 0 250 200" fill="none" xmlns="http://www.w3.org/2000/svg">
<rect width="250" height="200" fill="white"/>
<path fill-rule="evenodd" clip-rule="evenodd" d="M63 134H154C154.515 134 155.017 133.944 155.5 133.839C155.983 133.944 156.485 134 157 134H209C212.866 134 216 130.866 216 127C216 123.134 212.866 120 209 120H203C199.134 120 196 116.866 196 113C196 109.134 199.134 106 203 106H222C225.866 106 229 102.866 229 99C229 95.134 225.866 92 222 92H200C203.866 92 207 88.866 207 85C207 81.134 203.866 78 200 78H136C139.866 78 143 74.866 143 71C143 67.134 139.866 64 136 64H79C75.134 64 72 67.134 72 71C72 74.866 75.134 78 79 78H39C35.134 78 32 81.134 32 85C32 88.866 35.134 92 39 92H64C67.866 92 71 95.134 71 99C71 102.866 67.866 106 64 106H24C20.134 106 17 109.134 17 113C17 116.866 20.134 120 24 120H63C59.134 120 56 123.134 56 127C56 130.866 59.134 134 63 134ZM226 134C229.866 134 233 130.866 233 127C233 123.134 229.866 120 226 120C222.134 120 219 123.134 219 127C219 130.866 222.134 134 226 134Z" fill="#F3F7FF"/>
<path fill-rule="evenodd" clip-rule="evenodd" d="M168.577 126.075C166 128 163.488 129.81 160.644 131.374L160.809 145.457C160.822 146.562 159.937 147.467 158.832 147.48C158.383 147.486 157.945 147.339 157.589 147.066L144.926 137.323C140.18 138.416 135.173 139 130 139C99.6243 139 75 118.853 75 94C75 69.1472 99.6243 49 130 49C160.376 49 185 69.1472 185 94C185 100.879 183.114 107.397 179.741 113.227C179.119 114.303 178.446 115.355 177.726 116.381C177.726 116.381 176.317 118.5 173.5 121.5C170.683 124.5 168.577 126.075 168.577 126.075Z" fill="white"/>
<path d="M168.577 126.075L169.325 127.076L169.325 127.076L168.577 126.075ZM160.644 131.374L160.042 130.278L159.385 130.639L159.394 131.388L160.644 131.374ZM160.809 145.457L162.059 145.442L160.809 145.457ZM158.832 147.48L158.846 148.73H158.847L158.832 147.48ZM157.589 147.066L156.827 148.056L157.589 147.066ZM144.926 137.323L145.689 136.332L145.221 135.973L144.646 136.105L144.926 137.323ZM179.741 113.227L180.823 113.853L179.741 113.227ZM177.726 116.381L176.703 115.663L176.694 115.676L176.685 115.689L177.726 116.381ZM167.829 125.073C165.258 126.994 162.804 128.759 160.042 130.278L161.246 132.469C164.171 130.86 166.742 129.006 169.325 127.076L167.829 125.073ZM159.394 131.388L159.559 145.472L162.059 145.442L161.894 131.359L159.394 131.388ZM159.559 145.472C159.564 145.886 159.232 146.226 158.817 146.23L158.847 148.73C160.642 148.709 162.08 147.237 162.059 145.442L159.559 145.472ZM158.818 146.23C158.649 146.232 158.485 146.178 158.351 146.075L156.827 148.056C157.405 148.501 158.117 148.739 158.846 148.73L158.818 146.23ZM158.351 146.075L145.689 136.332L144.164 138.314L156.827 148.056L158.351 146.075ZM144.646 136.105C139.992 137.176 135.079 137.75 130 137.75V140.25C135.267 140.25 140.368 139.655 145.207 138.541L144.646 136.105ZM130 137.75C100.068 137.75 76.25 117.94 76.25 94H73.75C73.75 119.766 99.1802 140.25 130 140.25V137.75ZM76.25 94C76.25 70.0604 100.068 50.25 130 50.25V47.75C99.1802 47.75 73.75 68.234 73.75 94H76.25ZM130 50.25C159.932 50.25 183.75 70.0604 183.75 94H186.25C186.25 68.234 160.82 47.75 130 47.75V50.25ZM183.75 94C183.75 100.645 181.929 106.948 178.659 112.601L180.823 113.853C184.298 107.846 186.25 101.113 186.25 94H183.75ZM178.659 112.601C178.056 113.645 177.403 114.666 176.703 115.663L178.749 117.099C179.49 116.043 180.182 114.961 180.823 113.853L178.659 112.601ZM177.726 116.381C176.685 115.689 176.685 115.689 176.685 115.689C176.685 115.689 176.685 115.689 176.685 115.689C176.685 115.688 176.685 115.688 176.685 115.688C176.685 115.688 176.685 115.688 176.685 115.688C176.685 115.689 176.685 115.689 176.684 115.691C176.682 115.693 176.679 115.698 176.674 115.705C176.665 115.718 176.651 115.739 176.631 115.768C176.591 115.826 176.529 115.914 176.446 116.031C176.279 116.263 176.025 116.609 175.683 117.048C175 117.925 173.968 119.175 172.589 120.644L174.411 122.356C175.849 120.825 176.93 119.515 177.656 118.583C178.018 118.117 178.292 117.746 178.478 117.487C178.57 117.358 178.64 117.258 178.689 117.188C178.713 117.153 178.731 117.126 178.744 117.106C178.751 117.097 178.756 117.089 178.76 117.084C178.762 117.081 178.763 117.079 178.764 117.077C178.765 117.076 178.765 117.075 178.766 117.074C178.766 117.074 178.766 117.074 178.766 117.074C178.766 117.074 178.767 117.073 178.767 117.073C178.767 117.073 178.767 117.073 177.726 116.381ZM172.589 120.644C171.212 122.111 170.011 123.226 169.159 123.972C168.733 124.344 168.395 124.624 168.166 124.808C168.051 124.901 167.964 124.969 167.907 125.013C167.878 125.036 167.857 125.052 167.844 125.062C167.837 125.067 167.833 125.07 167.83 125.072C167.829 125.073 167.828 125.074 167.828 125.074C167.827 125.074 167.827 125.074 167.828 125.074C167.828 125.074 167.828 125.074 167.828 125.074C167.828 125.074 167.828 125.074 167.828 125.074C167.828 125.074 167.828 125.074 168.577 126.075C169.325 127.076 169.325 127.076 169.326 127.076C169.326 127.076 169.326 127.075 169.326 127.075C169.326 127.075 169.326 127.075 169.327 127.075C169.327 127.074 169.328 127.074 169.329 127.073C169.331 127.072 169.333 127.07 169.336 127.068C169.341 127.064 169.349 127.058 169.358 127.051C169.377 127.036 169.404 127.016 169.439 126.989C169.508 126.936 169.607 126.858 169.734 126.755C169.988 126.551 170.352 126.249 170.805 125.853C171.71 125.061 172.971 123.889 174.411 122.356L172.589 120.644Z" fill="#1F64E7"/>
<path fill-rule="evenodd" clip-rule="evenodd" d="M162.853 81.5895C168.157 81.5895 173.266 80.957 178.051 79.7868C179.961 84.1364 181 88.8232 181 93.7074C181 100.043 179.251 106.047 176.123 111.417C175.547 112.408 174.923 113.376 174.255 114.322C173.2 115.815 172.448 116.869 171.785 117.714C170.219 119.713 169.155 120.544 165.771 123.25C163.515 125.055 161.052 126.691 158.415 128.131L158.568 141.103C158.58 142.12 158.889 143.988 157.865 144C157.449 144.005 155.913 142.837 155.583 142.584L145.373 133.467C140.972 134.473 134.797 135.156 130 135.156C101.833 135.156 79 116.599 79 93.7074C79 74.961 94.3133 59.1215 115.328 54C120.832 69.8745 140.023 81.5895 162.853 81.5895ZM110.291 88.1483C106.986 88.1483 104.307 90.8448 104.307 94.1711C104.307 97.4974 106.986 100.194 110.291 100.194C113.596 100.194 116.275 97.4974 116.275 94.1711C116.275 90.8448 113.596 88.1483 110.291 88.1483ZM129.241 88.1483C125.936 88.1483 123.257 90.8448 123.257 94.1711C123.257 97.4974 125.936 100.194 129.241 100.194C132.546 100.194 135.225 97.4974 135.225 94.1711C135.225 90.8448 132.546 88.1483 129.241 88.1483ZM148.191 88.1483C144.886 88.1483 142.207 90.8448 142.207 94.1711C142.207 97.4974 144.886 100.194 148.191 100.194C151.496 100.194 154.176 97.4974 154.176 94.1711C154.176 90.8448 151.496 88.1483 148.191 88.1483Z" fill="#E8F0FE"/>
<path fill-rule="evenodd" clip-rule="evenodd" d="M110 88C113.314 88 116 90.6863 116 94C116 97.3137 113.314 100 110 100C106.686 100 104 97.3137 104 94C104 90.6863 106.686 88 110 88ZM129 88C132.314 88 135 90.6863 135 94C135 97.3137 132.314 100 129 100C125.686 100 123 97.3137 123 94C123 90.6863 125.686 88 129 88ZM148 88C151.314 88 154 90.6863 154 94C154 97.3137 151.314 100 148 100C144.686 100 142 97.3137 142 94C142 90.6863 144.686 88 148 88Z" fill="white" stroke="#1F64E7" stroke-width="2.5"/>
<path d="M89.6621 79.3112C88.7541 80.8431 87.9672 82.4329 87.3118 84.0722" stroke="#75A4FE" stroke-width="2.5" stroke-linecap="round"/>
<path d="M108.022 63.0732C101.469 66.2006 95.937 70.6244 91.9392 75.9203" stroke="#75A4FE" stroke-width="2.5" stroke-linecap="round"/>
</svg>
