<svg width="250" height="200" viewBox="0 0 250 200" fill="none" xmlns="http://www.w3.org/2000/svg">
<rect width="250" height="200" fill="white"/>
<path fill-rule="evenodd" clip-rule="evenodd" d="M207 65C210.866 65 214 68.134 214 72C214 75.866 210.866 79 207 79H167C170.866 79 174 82.134 174 86C174 89.866 170.866 93 167 93H189C192.866 93 196 96.134 196 100C196 103.866 192.866 107 189 107H178.826C173.952 107 170 110.134 170 114C170 116.577 172 118.911 176 121C179.866 121 183 124.134 183 128C183 131.866 179.866 135 176 135H93C89.134 135 86 131.866 86 128C86 124.134 89.134 121 93 121H54C50.134 121 47 117.866 47 114C47 110.134 50.134 107 54 107H94C97.866 107 101 103.866 101 100C101 96.134 97.866 93 94 93H69C65.134 93 62 89.866 62 86C62 82.134 65.134 79 69 79H109C105.134 79 102 75.866 102 72C102 68.134 105.134 65 109 65H207ZM207 93C210.866 93 214 96.134 214 100C214 103.866 210.866 107 207 107C203.134 107 200 103.866 200 100C200 96.134 203.134 93 207 93Z" fill="#F3F7FF"/>
<path fill-rule="evenodd" clip-rule="evenodd" d="M160.711 131.126C162.102 129.423 163.352 127.642 164.461 125.799C166.901 121.744 168.66 117.388 169.734 112.897C170.821 108.356 171.209 103.676 170.894 99.0296C170.62 94.9756 169.811 90.9475 168.465 87.0598C167.131 83.2028 165.268 79.484 162.875 76.015C161.45 73.9479 159.836 71.9696 158.034 70.1036C155.388 67.364 152.486 65.0219 149.402 63.0787C146.089 60.9908 142.566 59.3634 138.926 58.1984C134.368 56.7393 129.628 56.0054 124.886 56C121.197 55.9959 117.507 56.4328 113.902 57.3125C109.845 58.3028 105.895 59.8543 102.177 61.9692C98.9076 63.8284 95.817 66.123 92.988 68.8547C89.4328 72.2875 86.553 76.1572 84.3512 80.2985C82.1956 84.3531 80.6899 88.6682 79.8366 93.0887C78.9574 97.6429 78.7706 102.309 79.2789 106.918C79.9378 112.891 81.7643 118.768 84.7644 124.179C86.684 127.641 89.0842 130.912 91.9663 133.896C96.5416 138.634 101.883 142.183 107.604 144.535C114.562 147.397 122.081 148.489 129.465 147.8C135.662 147.221 141.765 145.387 147.361 142.29" fill="white"/>
<path d="M160.711 131.126C162.102 129.423 163.352 127.642 164.461 125.799C166.901 121.744 168.66 117.388 169.734 112.897C170.821 108.356 171.209 103.676 170.894 99.0296C170.62 94.9756 169.811 90.9475 168.465 87.0598C167.131 83.2028 165.268 79.484 162.875 76.015C161.45 73.9479 159.836 71.9696 158.034 70.1036C155.388 67.364 152.486 65.0219 149.402 63.0787C146.089 60.9908 142.566 59.3634 138.926 58.1984C134.368 56.7393 129.628 56.0054 124.886 56C121.197 55.9959 117.507 56.4328 113.902 57.3125C109.845 58.3028 105.895 59.8543 102.177 61.9692C98.9076 63.8284 95.817 66.123 92.988 68.8547C89.4328 72.2875 86.553 76.1572 84.3512 80.2985C82.1956 84.3531 80.6899 88.6682 79.8366 93.0887C78.9574 97.6429 78.7706 102.309 79.2789 106.918C79.9378 112.891 81.7643 118.768 84.7644 124.179C86.684 127.641 89.0842 130.912 91.9663 133.896C96.5416 138.634 101.883 142.183 107.604 144.535C114.562 147.397 122.081 148.489 129.465 147.8C135.662 147.221 141.765 145.387 147.361 142.29" stroke="#1F64E7" stroke-width="2.5" stroke-linecap="round" stroke-linejoin="round"/>
<path fill-rule="evenodd" clip-rule="evenodd" d="M150.701 140.378C153.607 138.508 156.191 136.175 157.872 134.291L150.701 140.378Z" fill="white"/>
<path d="M150.701 140.378C153.607 138.508 156.191 136.175 157.872 134.291" stroke="#1F64E7" stroke-width="2.5" stroke-linecap="round"/>
<path d="M167 104.617C166.714 104.622 166.427 104.625 166.14 104.625C140.886 104.625 120.209 84.9362 118.476 60C98.3752 63.1706 83 80.6526 83 101.743C83 125.081 101.825 144 125.048 144C147.309 144 165.53 126.615 167 104.617Z" fill="#E8F0FE"/>
<path d="M131.479 101.875L131.48 101.874C133.582 100.524 135.28 99.009 136.451 97.193C137.633 95.36 138.236 93.2836 138.236 90.8906C138.236 83.9294 132.48 79.0938 124.975 79.0938C119.062 79.0938 114.248 82.0107 112.413 86.8917C111.931 88.0845 111.684 89.1492 111.684 90.3633C111.684 91.1715 111.909 91.9816 112.499 92.5936C113.096 93.2122 113.903 93.459 114.721 93.459C115.415 93.459 116.159 93.3058 116.772 92.7231C117.33 92.1928 117.615 91.4549 117.807 90.7018L117.814 90.675L117.819 90.6479C118.192 88.8607 119.029 87.4881 120.187 86.5591C121.345 85.6293 122.904 85.0801 124.828 85.0801C126.91 85.0801 128.606 85.7352 129.765 86.7748C130.914 87.8052 131.605 89.2724 131.605 91.0664C131.605 92.3847 131.305 93.4236 130.644 94.4022C129.96 95.415 128.84 96.4348 127.071 97.6097C124.955 98.9856 123.351 100.373 122.286 102.013C121.201 103.683 120.736 105.52 120.736 107.678V109.055C120.736 109.868 120.933 110.743 121.484 111.443C122.069 112.186 122.945 112.59 123.979 112.59C124.987 112.59 125.862 112.207 126.439 111.43C126.971 110.715 127.133 109.823 127.133 108.996V108.205C127.133 106.731 127.375 105.768 127.946 104.908C128.549 104 129.598 103.081 131.479 101.875ZM123.979 124.514C126.213 124.514 127.982 122.762 127.982 120.539C127.982 118.296 126.222 116.535 123.979 116.535C121.756 116.535 120.004 118.305 120.004 120.539C120.004 122.753 121.765 124.514 123.979 124.514Z" fill="white" stroke="#1F64E7" stroke-width="2.5"/>
<path fill-rule="evenodd" clip-rule="evenodd" d="M110.824 64.4131C108.874 65.1447 106.969 66.0338 105.128 67.0806C102.269 68.7072 99.5648 70.7149 97.0899 73.1049C96.0754 74.0846 95.1237 75.105 94.235 76.161M91.4851 79.8378C90.7785 80.9057 90.1281 82.0004 89.5342 83.1176C89.0956 83.9428 88.6877 84.7803 88.3106 85.6285" fill="white"/>
<path d="M111.263 65.5835C111.909 65.341 112.237 64.6204 111.994 63.974C111.752 63.3277 111.031 63.0003 110.385 63.2428L111.263 65.5835ZM105.128 67.0806L104.51 65.994L104.51 65.994L105.128 67.0806ZM97.0899 73.1049L96.2216 72.2057L97.0899 73.1049ZM93.2786 75.3562C92.8341 75.8844 92.902 76.6729 93.4302 77.1174C93.9584 77.5619 94.7469 77.4941 95.1914 76.9659L93.2786 75.3562ZM92.5275 80.5277C92.9085 79.9519 92.7507 79.1764 92.1749 78.7954C91.5992 78.4144 90.8237 78.5723 90.4427 79.148L92.5275 80.5277ZM89.5342 83.1176L90.638 83.7044L89.5342 83.1176ZM87.1684 85.1206C86.8879 85.7515 87.1719 86.4902 87.8027 86.7707C88.4335 87.0511 89.1723 86.7671 89.4528 86.1363L87.1684 85.1206ZM110.385 63.2428C108.373 63.9973 106.409 64.9143 104.51 65.994L105.746 68.1671C107.529 67.1532 109.374 66.2921 111.263 65.5835L110.385 63.2428ZM104.51 65.994C101.56 67.672 98.7724 69.7424 96.2216 72.2057L97.9582 74.0041C100.357 71.6874 102.977 69.7425 105.746 68.1671L104.51 65.994ZM96.2216 72.2057C95.176 73.2154 94.195 74.2673 93.2786 75.3562L95.1914 76.9659C96.0525 75.9427 96.9747 74.9538 97.9582 74.0041L96.2216 72.2057ZM90.4427 79.148C89.7138 80.2494 89.0431 81.3785 88.4305 82.5309L90.638 83.7044C91.2132 82.6222 91.8431 81.562 92.5275 80.5277L90.4427 79.148ZM88.4305 82.5309C87.978 83.382 87.5573 84.2459 87.1684 85.1206L89.4528 86.1363C89.818 85.3148 90.2131 84.5036 90.638 83.7044L88.4305 82.5309Z" fill="#75A4FE"/>
</svg>
