<svg width="250" height="200" viewBox="0 0 250 200" fill="none" xmlns="http://www.w3.org/2000/svg">
<rect width="250" height="200" fill="white"/>
<path fill-rule="evenodd" clip-rule="evenodd" d="M207 65C210.866 65 214 68.134 214 72C214 75.866 210.866 79 207 79H167C170.866 79 174 82.134 174 86C174 89.866 170.866 93 167 93H189C192.866 93 196 96.134 196 100C196 103.866 192.866 107 189 107H178.826C173.952 107 170 110.134 170 114C170 116.577 172 118.911 176 121C179.866 121 183 124.134 183 128C183 131.866 179.866 135 176 135H93C89.134 135 86 131.866 86 128C86 124.134 89.134 121 93 121H54C50.134 121 47 117.866 47 114C47 110.134 50.134 107 54 107H94C97.866 107 101 103.866 101 100C101 96.134 97.866 93 94 93H69C65.134 93 62 89.866 62 86C62 82.134 65.134 79 69 79H109C105.134 79 102 75.866 102 72C102 68.134 105.134 65 109 65H207ZM207 93C210.866 93 214 96.134 214 100C214 103.866 210.866 107 207 107C203.134 107 200 103.866 200 100C200 96.134 203.134 93 207 93Z" fill="#F3F7FF"/>
<path fill-rule="evenodd" clip-rule="evenodd" d="M126.167 57.4184L126.169 57.42C131.565 61.8639 137.273 64.3444 143.986 67.1746C148.979 69.2795 153.607 70.6309 157.871 71.2286C158.41 71.3041 159.107 71.3715 159.964 71.4307C161.673 71.5488 163 72.9944 163 74.7381V106.489C163 116.881 157.618 126.507 148.826 131.883L148.518 132.068C133.033 141.274 125.252 145.899 125.176 145.944C125.061 146.011 124.951 146.011 124.869 145.979C124.815 145.957 117.02 141.321 101.482 132.068C92.5082 126.731 87 117.002 87 106.489V74.4999C87 72.8464 88.1973 71.4457 89.8063 71.2168C96.4664 70.2694 101.869 68.922 106.014 67.1746C112.755 64.3326 118.429 61.8893 123.842 57.42C124.519 56.8606 125.489 56.8599 126.167 57.4184Z" fill="white" stroke="#1F64E7" stroke-width="2.5"/>
<path fill-rule="evenodd" clip-rule="evenodd" d="M155 119.648L154.886 119.852C152.723 123.69 149.624 126.979 145.794 129.347L145.521 129.514C131.797 137.764 124.901 141.909 124.833 141.95C124.732 142.01 124.634 142.01 124.562 141.981C124.514 141.962 117.605 137.806 103.835 129.514C95.8817 124.73 91 116.01 91 106.587V78.2795C91 76.594 92.1799 75.1665 93.7651 74.9341C99.5401 74.0872 104.235 72.893 107.851 71.3516C109.584 70.6126 111.238 69.8327 112.829 69C115.737 93.4473 132.689 113.35 155 119.648Z" fill="#E8F0FE"/>
<path d="M158 85.0253C158 93.5684 158 100.899 158 107.017C158 109.961 157.333 112.955 156 116M157.951 80.6063V77" stroke="#75A4FE" stroke-width="2.5" stroke-linecap="round" stroke-linejoin="round"/>
<path fill-rule="evenodd" clip-rule="evenodd" d="M110.023 101.373C108.8 100.243 106.903 100.33 105.785 101.567C104.668 102.803 104.753 104.721 105.977 105.851L120.096 118.889C121.808 120.47 124.465 120.349 126.029 118.618C126.095 118.544 126.095 118.544 126.158 118.469L146.307 93.9716C147.366 92.6837 147.192 90.7716 145.918 89.7008C144.644 88.63 142.752 88.806 141.693 90.0939L122.75 113.125L110.023 101.373Z" fill="white" stroke="#1F64E7" stroke-width="2.5" stroke-linecap="round"/>
</svg>
