<svg width="250" height="200" viewBox="0 0 250 200" fill="none" xmlns="http://www.w3.org/2000/svg">
<rect width="250" height="200" fill="white"/>
<path fill-rule="evenodd" clip-rule="evenodd" d="M207 65C210.866 65 214 68.134 214 72C214 75.866 210.866 79 207 79H167C170.866 79 174 82.134 174 86C174 89.866 170.866 93 167 93H189C192.866 93 196 96.134 196 100C196 103.866 192.866 107 189 107H178.826C173.952 107 170 110.134 170 114C170 116.577 172 118.911 176 121C179.866 121 183 124.134 183 128C183 131.866 179.866 135 176 135H93C89.134 135 86 131.866 86 128C86 124.134 89.134 121 93 121H54C50.134 121 47 117.866 47 114C47 110.134 50.134 107 54 107H94C97.866 107 101 103.866 101 100C101 96.134 97.866 93 94 93H69C65.134 93 62 89.866 62 86C62 82.134 65.134 79 69 79H109C105.134 79 102 75.866 102 72C102 68.134 105.134 65 109 65H207ZM207 93C210.866 93 214 96.134 214 100C214 103.866 210.866 107 207 107C203.134 107 200 103.866 200 100C200 96.134 203.134 93 207 93Z" fill="#F3F7FF"/>
<path d="M156.389 55V61" stroke="#75A4FE" stroke-width="2.5" stroke-linecap="round" stroke-linejoin="round"/>
<path d="M156.389 69V75" stroke="#75A4FE" stroke-width="2.5" stroke-linecap="round" stroke-linejoin="round"/>
<path d="M146.389 65H152.389" stroke="#75A4FE" stroke-width="2.5" stroke-linecap="round" stroke-linejoin="round"/>
<path d="M160.389 65H166.389" stroke="#75A4FE" stroke-width="2.5" stroke-linecap="round" stroke-linejoin="round"/>
<path d="M76.1118 121V125" stroke="#75A4FE" stroke-width="2.5" stroke-linecap="round" stroke-linejoin="round"/>
<path d="M76.1118 133V137" stroke="#75A4FE" stroke-width="2.5" stroke-linecap="round" stroke-linejoin="round"/>
<path d="M68.1118 129H72.1118" stroke="#75A4FE" stroke-width="2.5" stroke-linecap="round" stroke-linejoin="round"/>
<path d="M80.1118 129H84.1118" stroke="#75A4FE" stroke-width="2.5" stroke-linecap="round" stroke-linejoin="round"/>
<path fill-rule="evenodd" clip-rule="evenodd" d="M125.225 131.669L123 130.519L99.4462 142.686C98.0701 143.397 96.3778 142.859 95.6664 141.484C95.3891 140.948 95.2923 140.337 95.3903 139.742L99.6928 113.599L80.8333 94.9764C79.7315 93.8884 79.721 92.1139 80.8099 91.0129C81.2342 90.5839 81.7857 90.3031 82.3825 90.2123L108.595 86.2224L120.493 62.5457C121.188 61.1624 122.874 60.6041 124.258 61.2986C124.798 61.5693 125.236 62.0066 125.506 62.5457L137.404 86.2224L163.617 90.2123C165.149 90.4454 166.201 91.8748 165.968 93.4051C165.877 94.0014 165.596 94.5525 165.166 94.9764L146.307 113.599L150.609 139.742C150.861 141.269 149.825 142.711 148.297 142.962C147.701 143.06 147.09 142.963 146.553 142.686C140.383 139.499 135.897 137.182 133.097 135.735L125.225 131.669ZM129.97 134.12C129.529 133.892 128.867 133.55 127.985 133.094L129.97 134.12Z" fill="white"/>
<path d="M125.225 131.669L123 130.519L99.4462 142.686C98.0701 143.397 96.3778 142.859 95.6664 141.484C95.3891 140.948 95.2923 140.337 95.3903 139.742L99.6928 113.599L80.8333 94.9764C79.7315 93.8884 79.721 92.1139 80.8099 91.0129C81.2342 90.5839 81.7857 90.3031 82.3825 90.2123L108.595 86.2224L120.493 62.5457C121.188 61.1624 122.874 60.6041 124.258 61.2986C124.798 61.5693 125.236 62.0066 125.506 62.5457L137.404 86.2224L163.617 90.2123C165.149 90.4454 166.201 91.8748 165.968 93.4051C165.877 94.0014 165.596 94.5525 165.166 94.9764L146.307 113.599L150.609 139.742C150.861 141.269 149.825 142.711 148.297 142.962C147.701 143.06 147.09 142.963 146.553 142.686C140.383 139.499 135.897 137.182 133.097 135.735M129.97 134.12C129.529 133.892 128.867 133.55 127.985 133.094" stroke="#1F64E7" stroke-width="2.5" stroke-linecap="round" stroke-linejoin="round"/>
<path fill-rule="evenodd" clip-rule="evenodd" d="M151 103.12L142.144 112.009L145.836 134.805C146.002 135.834 145.316 136.805 144.303 136.975C143.908 137.041 143.502 136.975 143.147 136.789L122.939 126.179L102.73 136.789C101.818 137.268 100.696 136.905 100.225 135.979C100.041 135.618 99.9769 135.206 100.042 134.805L103.733 112.009L87.5524 95.7693C86.822 95.0363 86.815 93.8407 87.5369 93.0989C87.8181 92.8099 88.1838 92.6207 88.5794 92.5595L111.069 89.0803L119.019 73C121.059 89.4335 134.473 102.27 151 103.12Z" fill="#E8F0FE"/>
<path d="M122.152 69.8281L118.004 78.7234M115.759 83.5379L114.719 85.768L115.759 83.5379Z" stroke="#75A4FE" stroke-width="2.5" stroke-linecap="round" stroke-linejoin="round"/>
</svg>
