<svg width="250" height="200" viewBox="0 0 250 200" fill="none" xmlns="http://www.w3.org/2000/svg">
<rect width="250" height="200" fill="white"/>
<path fill-rule="evenodd" clip-rule="evenodd" d="M207 65C210.866 65 214 68.134 214 72C214 75.866 210.866 79 207 79H167C170.866 79 174 82.134 174 86C174 89.866 170.866 93 167 93H189C192.866 93 196 96.134 196 100C196 103.866 192.866 107 189 107H178.826C173.952 107 170 110.134 170 114C170 116.577 172 118.911 176 121C179.866 121 183 124.134 183 128C183 131.866 179.866 135 176 135H93C89.134 135 86 131.866 86 128C86 124.134 89.134 121 93 121H54C50.134 121 47 117.866 47 114C47 110.134 50.134 107 54 107H94C97.866 107 101 103.866 101 100C101 96.134 97.866 93 94 93H69C65.134 93 62 89.866 62 86C62 82.134 65.134 79 69 79H109C105.134 79 102 75.866 102 72C102 68.134 105.134 65 109 65H207ZM207 93C210.866 93 214 96.134 214 100C214 103.866 210.866 107 207 107C203.134 107 200 103.866 200 100C200 96.134 203.134 93 207 93Z" fill="#F3F7FF"/>
<path d="M163.673 74.4631L79.9924 81.7842C78.892 81.8805 78.078 82.8505 78.1743 83.9509L83.4908 144.719C83.5871 145.819 84.5571 146.633 85.6575 146.537L169.338 139.216C170.438 139.119 171.252 138.149 171.156 137.049L165.839 76.2812C165.743 75.1808 164.773 74.3668 163.673 74.4631Z" fill="white" stroke="#1F64E7" stroke-width="2.5"/>
<path fill-rule="evenodd" clip-rule="evenodd" d="M147.221 136.638L90.2462 141.618C89.1458 141.714 88.1757 140.9 88.0795 139.8L83.8918 91.9612C99.8436 112.633 121.834 128.406 147.221 136.638Z" fill="#E8F0FE"/>
<path fill-rule="evenodd" clip-rule="evenodd" d="M118.859 90.6986C129.529 87.8398 140.495 94.1714 143.354 104.841C146.213 115.51 139.881 126.477 129.212 129.336C118.543 132.194 107.576 125.863 104.717 115.194C101.858 104.524 108.19 93.5575 118.859 90.6986ZM134.245 99.1048L120.228 123.386C122.618 124.036 125.206 124.081 127.772 123.394C135.507 121.321 140.097 113.37 138.025 105.635C137.337 103.07 136.003 100.85 134.245 99.1048ZM120.266 95.3818C112.53 97.4545 107.94 105.405 110.013 113.141C110.698 115.697 112.025 117.91 113.774 119.653L127.787 95.3835C125.403 94.7396 122.823 94.6967 120.266 95.3818Z" fill="#E8F0FE"/>
<path fill-rule="evenodd" clip-rule="evenodd" d="M135.244 99.3629L120.742 124.48C123.215 125.153 125.893 125.2 128.547 124.489C136.549 122.345 141.298 114.12 139.154 106.118C138.443 103.464 137.063 101.168 135.244 99.3629ZM120.783 95.5112C112.781 97.6553 108.032 105.88 110.176 113.882C110.857 116.423 112.151 118.636 113.856 120.405L128.272 95.4375C125.888 94.8445 123.324 94.8302 120.783 95.5112Z" stroke="#1F64E7" stroke-width="2.5"/>
<path d="M135.019 90.589C136.315 91.2805 137.541 92.1005 138.677 93.0373M141.208 95.4894C143.368 97.9487 145.011 100.93 145.915 104.306C149.06 116.042 142.095 128.106 130.359 131.25C118.623 134.395 106.559 127.43 103.415 115.694C100.27 103.958 107.235 91.8944 118.971 88.7497C123.188 87.6199 127.446 87.795 131.318 89.0274" stroke="#1F64E7" stroke-width="2.5" stroke-linecap="round"/>
<path fill-rule="evenodd" clip-rule="evenodd" d="M125.661 47.3318C126.294 48.2274 126.665 49.3204 126.665 50.5001C126.665 53.5376 124.203 56.0001 121.165 56.0001C118.127 56.0001 115.665 53.5376 115.665 50.5001C115.665 49.3204 116.036 48.2274 116.669 47.3318C116.666 47.3879 116.665 47.4439 116.665 47.5001C116.665 49.9854 118.68 52.0001 121.165 52.0001C123.65 52.0001 125.665 49.9854 125.665 47.5001L125.661 47.3318Z" fill="#E8F0FE"/>
<path d="M86.8588 75.7409L90.4768 72.5101M93.1121 70.1568L116.68 49.1109M128.317 51.9348L157.248 69.5826" stroke="#75A4FE" stroke-width="2.5" stroke-linecap="round" stroke-linejoin="round"/>
<path d="M121.165 52C123.65 52 125.665 49.9853 125.665 47.5C125.665 45.0147 123.65 43 121.165 43C118.68 43 116.665 45.0147 116.665 47.5C116.665 49.9853 118.68 52 121.165 52Z" stroke="#1F64E7" stroke-width="2.5"/>
</svg>
