<svg width="250" height="200" viewBox="0 0 250 200" fill="none" xmlns="http://www.w3.org/2000/svg">
<rect width="250" height="200" fill="white"/>
<path fill-rule="evenodd" clip-rule="evenodd" d="M63 134H154C154.515 134 155.017 133.944 155.5 133.839C155.983 133.944 156.485 134 157 134H209C212.866 134 216 130.866 216 127C216 123.134 212.866 120 209 120H203C199.134 120 196 116.866 196 113C196 109.134 199.134 106 203 106H222C225.866 106 229 102.866 229 99C229 95.134 225.866 92 222 92H200C203.866 92 207 88.866 207 85C207 81.134 203.866 78 200 78H136C139.866 78 143 74.866 143 71C143 67.134 139.866 64 136 64H79C75.134 64 72 67.134 72 71C72 74.866 75.134 78 79 78H39C35.134 78 32 81.134 32 85C32 88.866 35.134 92 39 92H64C67.866 92 71 95.134 71 99C71 102.866 67.866 106 64 106H24C20.134 106 17 109.134 17 113C17 116.866 20.134 120 24 120H63C59.134 120 56 123.134 56 127C56 130.866 59.134 134 63 134ZM226 134C229.866 134 233 130.866 233 127C233 123.134 229.866 120 226 120C222.134 120 219 123.134 219 127C219 130.866 222.134 134 226 134Z" fill="#F3F7FF"/>
<path fill-rule="evenodd" clip-rule="evenodd" d="M167.558 125.965C166.03 127.156 164.376 128.24 162.615 129.205L162.726 138.644C162.734 139.384 162.139 139.991 161.396 140C161.094 140.003 160.799 139.905 160.56 139.722L152.041 133.192C148.848 133.925 145.48 134.316 142 134.316C121.565 134.316 105 120.814 105 104.158C105 87.5023 121.565 74 142 74C162.435 74 179 87.5023 179 104.158C179 108.768 177.731 113.137 175.462 117.044C174.617 118.5 173 121 171 123L167.558 125.965Z" fill="white"/>
<path fill-rule="evenodd" clip-rule="evenodd" d="M82.4417 111.965C83.9703 113.156 85.6239 114.24 87.3849 115.205L87.2742 124.644C87.2655 125.384 87.8608 125.991 88.6038 126C88.906 126.003 89.2005 125.905 89.44 125.722L97.9586 119.192C101.152 119.925 104.52 120.316 108 120.316C128.435 120.316 145 106.814 145 90.1581C145 73.5023 128.435 60 108 60C87.5655 60 71 73.5023 71 90.1581C71 94.7681 72.269 99.1366 74.5379 103.044C75.3833 104.5 77 107 79 109L82.4417 111.965Z" fill="white"/>
<path fill-rule="evenodd" clip-rule="evenodd" d="M163.5 99C167.253 99 170.853 98.5104 174.191 97.612C174.72 99.4262 175 101.34 175 103.335C175 107.334 173.877 112.703 171.87 116.092C171.5 116.717 171.1 117.329 170.671 117.926C169.994 118.868 169.511 119.533 169.086 120.067C168.081 121.329 167.398 121.853 165.227 123.561C163.778 124.7 160.894 126.347 159.202 127.257L159.683 132.691C159.686 132.999 159.635 133.851 159.202 133.979C158.733 134.118 157.874 133.518 157.764 133.435L153.679 129.576C150.854 130.211 145.348 131.075 142.27 131.075C133.168 131.075 124.933 128.106 119.001 123.312C134.324 119.627 146.038 109.201 148.84 96.3037C153.218 98.026 158.207 99 163.5 99Z" fill="#E8F0FE"/>
<path d="M144.675 74C145.796 74.0626 146.903 74.1659 147.994 74.3081M151.533 74.9159C167.342 78.3016 179 90.004 179 103.92C179 114.317 172.492 123.479 162.608 128.859L162.607 138.886C162.607 139.501 162.109 140 161.495 140C161.247 140 161.006 139.917 160.81 139.764L151.951 132.833C148.818 133.536 145.518 133.912 142.11 133.912C131.601 133.912 122.119 130.339 115.4 124.606L115 124.26" stroke="#1F64E7" stroke-width="2.5" stroke-linecap="round"/>
<path fill-rule="evenodd" clip-rule="evenodd" d="M75 88.1578C75 91.9991 76.097 98.8218 78.0583 102.078C78.42 102.678 78.8111 103.266 79.2302 103.839C79.8918 104.744 80.3635 105.383 80.7788 105.895C81.7614 107.108 82.4288 107.611 84.5506 109.252C85.9658 110.346 89.3001 112.381 90.9538 113.254L90.3243 119.688C90.3168 120.305 91.7773 119.841 91.9843 119.688L96.7073 115.131C99.4675 115.741 103.976 116.47 106.984 116.47C124.649 116.47 141 108.205 141 91.3405C141 88.6365 140.58 86.0967 139.801 83.738C136.407 84.5564 132.776 84.9998 129 84.9998C112.592 84.9998 98.8984 76.6245 95.7037 65.4829C83.6056 68.803 75 77.3989 75 88.1578Z" fill="#E8F0FE"/>
<path d="M82.4417 111.965C83.9703 113.156 85.6239 114.24 87.3849 115.205L87.2742 124.644C87.2655 125.384 87.8608 125.991 88.6038 126C88.906 126.003 89.2005 125.905 89.44 125.722L97.9586 119.192C101.152 119.925 104.52 120.316 108 120.316C128.435 120.316 145 106.814 145 90.1581C145 73.5023 128.435 60 108 60C87.5655 60 71 73.5023 71 90.1581C71 94.7681 72.269 99.1366 74.5379 103.044C74.7881 103.475 75.0505 103.9 75.3247 104.32M78 107C78.629 107.689 79.2964 108.356 80 109" stroke="#1F64E7" stroke-width="2.5" stroke-linecap="round"/>
<path d="M107.945 96.0898C109.156 96.0898 109.625 95.25 109.625 94.0195C109.625 91.9688 110.328 90.875 112.809 89.4102C115.309 87.9062 116.891 85.7969 116.891 82.7305C116.891 78.5508 113.453 75.6016 108.609 75.6016C104.859 75.6016 101.988 77.2227 100.836 79.9961C100.484 80.7578 100.328 81.4219 100.328 82.2617C100.328 83.2773 100.875 83.8633 101.871 83.8633C102.75 83.8633 103.18 83.4922 103.512 82.3008C104.156 79.957 105.875 78.6484 108.473 78.6484C111.344 78.6484 113.258 80.3672 113.258 82.9062C113.258 84.8984 112.379 86.168 110.113 87.5547C107.438 89.1562 106.207 90.8945 106.207 93.5312V94.0781C106.207 95.1914 106.734 96.0898 107.945 96.0898ZM107.926 104.195C109.195 104.195 110.152 103.219 110.152 101.969C110.152 100.699 109.195 99.7422 107.926 99.7422C106.676 99.7422 105.699 100.699 105.699 101.969C105.699 103.219 106.676 104.195 107.926 104.195Z" fill="#75A4FE"/>
</svg>
