<svg width="250" height="200" viewBox="0 0 250 200" fill="none" xmlns="http://www.w3.org/2000/svg">
<g clip-path="url(#clip0_151_743)">
<rect width="250" height="200" fill="white"/>
<path fill-rule="evenodd" clip-rule="evenodd" d="M207 65C210.866 65 214 68.134 214 72C214 75.866 210.866 79 207 79H167C170.866 79 174 82.134 174 86C174 89.866 170.866 93 167 93H189C192.866 93 196 96.134 196 100C196 103.866 192.866 107 189 107H178.826C173.952 107 170 110.134 170 114C170 116.577 172 118.911 176 121C179.866 121 183 124.134 183 128C183 131.866 179.866 135 176 135H93C89.134 135 86 131.866 86 128C86 124.134 89.134 121 93 121H54C50.134 121 47 117.866 47 114C47 110.134 50.134 107 54 107H94C97.866 107 101 103.866 101 100C101 96.134 97.866 93 94 93H69C65.134 93 62 89.866 62 86C62 82.134 65.134 79 69 79H109C105.134 79 102 75.866 102 72C102 68.134 105.134 65 109 65H207ZM207 93C210.866 93 214 96.134 214 100C214 103.866 210.866 107 207 107C203.134 107 200 103.866 200 100C200 96.134 203.134 93 207 93Z" fill="#F3F7FF"/>
<path fill-rule="evenodd" clip-rule="evenodd" d="M145.199 63.3293H154.304C155.961 63.3293 157.304 64.6725 157.304 66.3293V141.729C157.304 143.386 155.961 144.729 154.304 144.729H95.8665C94.2096 144.729 92.8665 143.386 92.8665 141.729V66.3293C92.8665 64.6725 94.2096 63.3293 95.8665 63.3293H104.004" fill="white"/>
<path d="M145.199 63.3293H154.304C155.961 63.3293 157.304 64.6725 157.304 66.3293V141.729C157.304 143.386 155.961 144.729 154.304 144.729H95.8665C94.2096 144.729 92.8665 143.386 92.8665 141.729V66.3293C92.8665 64.6725 94.2096 63.3293 95.8665 63.3293H104.004H104.969" stroke="#1F64E7" stroke-width="2.5" stroke-linecap="round"/>
<path fill-rule="evenodd" clip-rule="evenodd" d="M107.183 67.4775C107.842 70.0767 110.196 72 113 72L118.067 72.0004C119.126 95.8582 132.756 116.447 152.494 127.305L152.495 138.478C152.495 139.582 151.6 140.478 150.495 140.478H98.416C97.3114 140.478 96.416 139.582 96.416 138.478V69.4776C96.416 68.373 97.3114 67.4776 98.416 67.4776L107.183 67.4775Z" fill="#E8F0FE"/>
<path d="M114.072 123H146.672M114.072 85H146.672H114.072ZM102.072 81.5H108.86V88.2882H102.072V81.5ZM102.072 94.25H108.86V101.038H102.072V94.25ZM102.072 107H108.86V113.788H102.072V107ZM102.072 119.75H108.86V126.538H102.072V119.75ZM114.072 97H146.672H114.072ZM114.072 110H146.672H114.072Z" stroke="#75A4FE" stroke-width="2.5" stroke-linecap="round" stroke-linejoin="round"/>
<path fill-rule="evenodd" clip-rule="evenodd" d="M125.085 55.2754C128.246 55.2754 130.808 57.8377 130.808 60.9985H139.612C140.165 60.9985 140.612 61.4462 140.612 61.9985V65.0019C140.612 67.2129 138.82 69.0053 136.609 69.0053H113.561C111.35 69.0053 109.558 67.2129 109.558 65.0019V61.9985C109.558 61.4462 110.005 60.9985 110.558 60.9985H119.362C119.362 57.8377 121.924 55.2754 125.085 55.2754Z" stroke="#1F64E7" stroke-width="2.5" stroke-linejoin="round"/>
<path fill-rule="evenodd" clip-rule="evenodd" d="M125.085 58.6426C126.623 58.6426 127.871 59.8898 127.871 61.4282C127.871 62.1327 128.487 62.9413 128.605 63.611L137.751 63.6106C137.751 65.1429 136.509 66.385 134.977 66.385H115.288C113.755 66.385 112.513 65.1429 112.513 63.6106L121.565 63.611C121.683 62.9413 122.299 62.1327 122.299 61.4282C122.299 59.8898 123.546 58.6426 125.085 58.6426Z" fill="#E8F0FE"/>
</g>
<defs>
<clipPath id="clip0_151_743">
<rect width="250" height="200" fill="white"/>
</clipPath>
</defs>
</svg>
