<svg width="250" height="200" viewBox="0 0 250 200" fill="none" xmlns="http://www.w3.org/2000/svg">
<rect width="250" height="200" fill="white"/>
<path d="M125 151C153.167 151 176 128.167 176 100C176 71.8335 153.167 49 125 49C96.8335 49 74 71.8335 74 100C74 128.167 96.8335 151 125 151Z" fill="#F3F7FF"/>
<path fill-rule="evenodd" clip-rule="evenodd" d="M104.822 87.3389C104.326 85.2036 103.928 82.8083 103.628 80.153C103.332 77.5394 103.157 74.8985 103.102 72.2303C102.887 61.8159 111.156 53.1992 121.57 52.9844C121.969 52.9762 122.368 52.9806 122.766 52.9977C124.059 53.0531 128.647 52.9977 129.999 52.9977C138.379 52.9977 145.532 59.0529 146.916 67.3179C147.627 71.5674 147.853 75.529 147.593 79.2026C147.297 83.3804 147.297 84.7504 145.796 88.3902C145.443 89.2484 105.526 90.3689 104.822 87.3389Z" fill="white"/>
<path fill-rule="evenodd" clip-rule="evenodd" d="M122.368 52.9849L122.766 52.9978C124.005 53.0508 128.27 53.0022 129.813 52.998L129.999 52.9978C130.582 52.9978 131.16 53.0271 131.73 53.0846C122.428 56.6135 115.92 65.7184 116.178 76.2293L116.212 77.3171C116.253 78.4039 116.315 79.4877 116.398 80.5684C116.627 83.5446 116.996 86.2378 117.505 88.6482C117.548 88.8501 117.766 89.0452 118.139 89.2332C110.938 89.0349 105.088 88.4825 104.822 87.339C104.326 85.2037 103.928 82.8084 103.628 80.1531C103.374 77.9129 103.21 75.6526 103.133 73.3722L103.102 72.2304C102.887 61.8159 111.156 53.1993 121.57 52.9845C121.836 52.979 122.102 52.9791 122.368 52.9849Z" fill="#E8F0FE"/>
<path d="M125.887 107.663C134.213 107.663 140.963 100.913 140.963 92.587C140.963 84.2607 134.213 77.511 125.887 77.511C117.561 77.511 110.811 84.2607 110.811 92.587C110.811 100.913 117.561 107.663 125.887 107.663Z" fill="white"/>
<path fill-rule="evenodd" clip-rule="evenodd" d="M125.525 103.248C128.317 103.324 131.663 103.519 135.563 103.833L137.521 107.103L139.209 109.292C139.018 110.142 138.781 110.898 138.496 111.562C136.719 115.703 131.54 118.699 125.428 118.699C125.366 118.699 125.305 118.699 125.243 118.698C126.251 117.111 126.886 114.751 127.151 111.617C128.323 111.16 129.566 110.646 130.882 110.076C132.993 109.161 134.737 107.748 136.115 105.837L126.309 104.582L125.525 103.248ZM121.711 103.225C119.462 104.486 117.006 105.413 114.408 105.939C114.661 105.508 114.858 105.095 115.001 104.699C115.32 103.814 117.478 103.324 121.473 103.229L121.711 103.225Z" fill="white"/>
<path d="M104.822 87.3391C104.326 85.2038 103.928 82.8085 103.628 80.1532C103.332 77.5396 103.157 74.8987 103.102 72.2305V72.2305C102.887 61.816 111.156 53.1994 121.57 52.9846C121.969 52.9764 122.368 52.9808 122.766 52.9979C124.059 53.0533 128.647 52.9979 129.999 52.9979C138.379 52.9979 145.532 59.0531 146.916 67.3181C147.627 71.5676 147.853 75.5291 147.593 79.2028C147.297 83.3806 147.297 84.7506 145.796 88.3904" stroke="#1F64E7" stroke-width="2.5" stroke-linecap="round"/>
<path fill-rule="evenodd" clip-rule="evenodd" d="M116.126 75.9456C116.121 76.9001 116.121 80.6542 116.126 87.2078L116.127 88.1034C116.127 98.2108 124.321 106.404 134.428 106.404C134.794 106.404 135.158 106.394 135.519 106.372C132.627 108.289 129.158 109.404 125.428 109.404C115.321 109.404 107.127 101.211 107.127 91.1034L107.126 90.2078C107.121 83.3234 107.121 79.5283 107.126 78.8225C107.135 77.7187 107.994 77.0816 109.076 77.0816C109.991 77.0816 112.227 77.2188 115.888 76.0284L116.126 75.9456ZM129.039 67.376C129.959 68.2631 130.868 69.1032 131.767 69.8962C130.354 70.738 128.773 71.5195 127.026 72.2386C124.398 73.3204 122.34 73.7729 120.827 73.9594C124.483 72.1079 127.22 69.9134 129.039 67.376Z" fill="#E8F0FE"/>
<path fill-rule="evenodd" clip-rule="evenodd" d="M142.479 75.9425C139.155 76.4929 137.734 76.1536 135.557 74.5696L134.667 73.9045C132.878 72.5389 131.048 70.9805 129.175 69.2292C126.749 72.0841 123.185 74.467 118.502 76.3945C114.706 77.9572 112.147 78.3648 109.354 78.3339C109.197 78.3321 109.139 78.3316 109.076 78.3316C108.588 78.3316 108.379 78.5083 108.376 78.8324C108.37 79.5625 108.371 83.66 108.377 91.1035C108.377 100.521 116.011 108.155 125.428 108.155C134.845 108.155 142.479 100.521 142.479 91.1035V75.9425Z" stroke="#1F64E7" stroke-width="2.5"/>
<path d="M113.99 103.686V104.991C113.99 107.955 111.826 110.474 108.897 110.922L100.593 112.193C94.6438 113.103 89.7086 117.276 87.8209 122.991C87.4295 124.176 87.0761 125.268 86.7607 126.268" stroke="#1F64E7" stroke-width="2.5" stroke-linecap="round"/>
<path d="M113.99 103.686V104.991C113.99 107.955 111.826 110.474 108.897 110.922L100.593 112.193C94.6438 113.103 89.7086 117.276 87.8209 122.991C87.4295 124.176 87.0761 125.268 86.7607 126.268" stroke="#1F64E7" stroke-width="2.5" stroke-linecap="round"/>
<path d="M136.761 103.686V104.991C136.761 107.955 138.924 110.474 141.853 110.922L150.157 112.193C156.107 113.103 161.042 117.276 162.93 122.991C163.321 124.176 163.674 125.268 163.99 126.268" stroke="#1F64E7" stroke-width="2.5" stroke-linecap="round"/>
<path d="M130.808 118.14C129.247 118.509 127.56 118.71 125.799 118.71C119.373 118.71 113.929 116.029 112.061 112.323C111.761 111.729 111.512 111.052 111.311 110.292M136.761 115.489C135.929 116.109 134.97 116.657 133.911 117.118L136.761 115.489Z" stroke="#1F64E7" stroke-width="2.5" stroke-linecap="round" stroke-linejoin="round"/>
</svg>
