<svg width="250" height="200" viewBox="0 0 250 200" fill="none" xmlns="http://www.w3.org/2000/svg">
<rect width="250" height="200" fill="white"/>
<path fill-rule="evenodd" clip-rule="evenodd" d="M63 134H154C154.515 134 155.017 133.944 155.5 133.839C155.983 133.944 156.485 134 157 134H209C212.866 134 216 130.866 216 127C216 123.134 212.866 120 209 120H203C199.134 120 196 116.866 196 113C196 109.134 199.134 106 203 106H222C225.866 106 229 102.866 229 99C229 95.134 225.866 92 222 92H200C203.866 92 207 88.866 207 85C207 81.134 203.866 78 200 78H136C139.866 78 143 74.866 143 71C143 67.134 139.866 64 136 64H79C75.134 64 72 67.134 72 71C72 74.866 75.134 78 79 78H39C35.134 78 32 81.134 32 85C32 88.866 35.134 92 39 92H64C67.866 92 71 95.134 71 99C71 102.866 67.866 106 64 106H24C20.134 106 17 109.134 17 113C17 116.866 20.134 120 24 120H63C59.134 120 56 123.134 56 127C56 130.866 59.134 134 63 134ZM226 134C229.866 134 233 130.866 233 127C233 123.134 229.866 120 226 120C222.134 120 219 123.134 219 127C219 130.866 222.134 134 226 134Z" fill="#F3F7FF"/>
<path d="M90.5 141.737H157.521C162.492 141.737 166.521 137.707 166.521 132.737V115.5V97V93.1842V86C166.521 81.0294 162.492 77 157.521 77H90.3425C86.5389 77 83.1461 74.609 81.8668 71.027L81.5 70V132.737C81.5 137.707 85.5294 141.737 90.5 141.737Z" fill="white"/>
<mask id="path-4-inside-1_151_761" fill="white">
<path fill-rule="evenodd" clip-rule="evenodd" d="M81.2718 68.7709C81.864 68.6609 82.4505 68.989 82.6667 69.5511L82.9478 70.282C84.0989 73.2749 86.9745 75.2499 90.1812 75.2499H157.521C163.182 75.2499 167.771 79.839 167.771 85.4999V93.1841V95.9999C167.771 96.6902 167.212 97.2499 166.521 97.2499C165.831 97.2499 165.271 96.6902 165.271 95.9999V93.1841V85.4999C165.271 81.2197 161.802 77.7499 157.521 77.7499H90.1812C87.3143 77.7499 84.6475 76.5563 82.75 74.5601V128.737C82.75 133.017 86.2198 136.487 90.5 136.487H157.521C161.802 136.487 165.271 133.017 165.271 128.737V116C165.271 115.31 165.831 114.75 166.521 114.75C167.212 114.75 167.771 115.31 167.771 116V128.737C167.771 134.398 163.182 138.987 157.521 138.987H90.5C84.8391 138.987 80.25 134.398 80.25 128.737V69.9999C80.25 69.3975 80.6796 68.8808 81.2718 68.7709Z"/>
</mask>
<path fill-rule="evenodd" clip-rule="evenodd" d="M81.2718 68.7709C81.864 68.6609 82.4505 68.989 82.6667 69.5511L82.9478 70.282C84.0989 73.2749 86.9745 75.2499 90.1812 75.2499H157.521C163.182 75.2499 167.771 79.839 167.771 85.4999V93.1841V95.9999C167.771 96.6902 167.212 97.2499 166.521 97.2499C165.831 97.2499 165.271 96.6902 165.271 95.9999V93.1841V85.4999C165.271 81.2197 161.802 77.7499 157.521 77.7499H90.1812C87.3143 77.7499 84.6475 76.5563 82.75 74.5601V128.737C82.75 133.017 86.2198 136.487 90.5 136.487H157.521C161.802 136.487 165.271 133.017 165.271 128.737V116C165.271 115.31 165.831 114.75 166.521 114.75C167.212 114.75 167.771 115.31 167.771 116V128.737C167.771 134.398 163.182 138.987 157.521 138.987H90.5C84.8391 138.987 80.25 134.398 80.25 128.737V69.9999C80.25 69.3975 80.6796 68.8808 81.2718 68.7709Z" fill="white"/>
<path d="M82.6667 69.5511L80.3333 70.4486L80.3333 70.4486L82.6667 69.5511ZM81.2718 68.7709L80.8154 66.3129L80.8154 66.3129L81.2718 68.7709ZM82.9478 70.282L85.2811 69.3845V69.3845L82.9478 70.282ZM82.75 74.5601L84.562 72.8377L80.25 68.3014V74.5601H82.75ZM85 68.6537C84.3514 66.9671 82.5921 65.983 80.8154 66.3129L81.7282 71.2289C81.136 71.3388 80.5495 71.0108 80.3333 70.4486L85 68.6537ZM85.2811 69.3845L85 68.6537L80.3333 70.4486L80.6144 71.1794L85.2811 69.3845ZM90.1812 72.7499C88.0089 72.7499 86.0609 71.412 85.2811 69.3845L80.6144 71.1794C82.1369 75.1379 85.94 77.7499 90.1812 77.7499V72.7499ZM157.521 72.7499H90.1812V77.7499H157.521V72.7499ZM170.271 85.4999C170.271 78.4583 164.563 72.7499 157.521 72.7499V77.7499C161.802 77.7499 165.271 81.2197 165.271 85.4999H170.271ZM170.271 93.1841V85.4999H165.271V93.1841H170.271ZM170.271 95.9999V93.1841H165.271V95.9999H170.271ZM166.521 99.7499C168.592 99.7499 170.271 98.0709 170.271 95.9999H165.271C165.271 95.3095 165.831 94.7499 166.521 94.7499V99.7499ZM162.771 95.9999C162.771 98.0709 164.45 99.7499 166.521 99.7499V94.7499C167.212 94.7499 167.771 95.3095 167.771 95.9999H162.771ZM162.771 93.1841V95.9999H167.771V93.1841H162.771ZM162.771 85.4999V93.1841H167.771V85.4999H162.771ZM157.521 80.2499C160.421 80.2499 162.771 82.6004 162.771 85.4999H167.771C167.771 79.839 163.182 75.2499 157.521 75.2499V80.2499ZM90.1812 80.2499H157.521V75.2499H90.1812V80.2499ZM80.938 76.2825C83.297 78.7642 86.6142 80.2499 90.1812 80.2499V75.2499C88.0143 75.2499 85.998 74.3484 84.562 72.8377L80.938 76.2825ZM85.25 128.737V74.5601H80.25V128.737H85.25ZM90.5 133.987C87.6005 133.987 85.25 131.636 85.25 128.737H80.25C80.25 134.398 84.8391 138.987 90.5 138.987V133.987ZM157.521 133.987H90.5V138.987H157.521V133.987ZM162.771 128.737C162.771 131.636 160.421 133.987 157.521 133.987V138.987C163.182 138.987 167.771 134.398 167.771 128.737H162.771ZM162.771 116V128.737H167.771V116H162.771ZM166.521 112.25C164.45 112.25 162.771 113.929 162.771 116H167.771C167.771 116.69 167.212 117.25 166.521 117.25V112.25ZM170.271 116C170.271 113.929 168.592 112.25 166.521 112.25V117.25C165.831 117.25 165.271 116.69 165.271 116H170.271ZM170.271 128.737V116H165.271V128.737H170.271ZM157.521 141.487C164.563 141.487 170.271 135.778 170.271 128.737H165.271C165.271 133.017 161.802 136.487 157.521 136.487V141.487ZM90.5 141.487H157.521V136.487H90.5V141.487ZM77.75 128.737C77.75 135.778 83.4584 141.487 90.5 141.487V136.487C86.2198 136.487 82.75 133.017 82.75 128.737H77.75ZM77.75 69.9999V128.737H82.75V69.9999H77.75ZM80.8154 66.3129C79.0387 66.6428 77.75 68.1928 77.75 69.9999H82.75C82.75 70.6022 82.3204 71.1189 81.7282 71.2289L80.8154 66.3129Z" fill="#1F64E7" mask="url(#path-4-inside-1_151_761)"/>
<path d="M81.5 70.75C81.5 67.5744 84.0744 65 87.25 65H148C152.971 65 157 69.0294 157 74V76.5H87.25C84.0744 76.5 81.5 73.9256 81.5 70.75Z" fill="#E8F0FE" stroke="#1F64E7" stroke-width="2.5"/>
<path fill-rule="evenodd" clip-rule="evenodd" d="M107.955 82H91C88.7909 82 87 83.7909 87 86V129C87 131.209 88.7909 133 91 133H158C160.209 133 162 131.209 162 129V124.188C151.352 123.803 140.343 120.257 130.568 113.375C119.026 105.248 111.283 93.9337 107.955 82Z" fill="#E8F0FE"/>
<mask id="path-8-inside-2_151_761" fill="white">
<path d="M148 108C148 103.029 152.029 99 157 99H168C169.657 99 171 100.343 171 102V114C171 115.657 169.657 117 168 117H157C152.029 117 148 112.971 148 108Z"/>
</mask>
<path d="M148 108C148 103.029 152.029 99 157 99H168C169.657 99 171 100.343 171 102V114C171 115.657 169.657 117 168 117H157C152.029 117 148 112.971 148 108Z" fill="white"/>
<path d="M157 101.5H168V96.5H157V101.5ZM168.5 102V114H173.5V102H168.5ZM168 114.5H157V119.5H168V114.5ZM157 114.5C153.41 114.5 150.5 111.59 150.5 108H145.5C145.5 114.351 150.649 119.5 157 119.5V114.5ZM168.5 114C168.5 114.276 168.276 114.5 168 114.5V119.5C171.038 119.5 173.5 117.038 173.5 114H168.5ZM168 101.5C168.276 101.5 168.5 101.724 168.5 102H173.5C173.5 98.9624 171.038 96.5 168 96.5V101.5ZM157 96.5C150.649 96.5 145.5 101.649 145.5 108H150.5C150.5 104.41 153.41 101.5 157 101.5V96.5Z" fill="#1F64E7" mask="url(#path-8-inside-2_151_761)"/>
<path d="M157 111C158.657 111 160 109.657 160 108C160 106.343 158.657 105 157 105C155.343 105 154 106.343 154 108C154 109.657 155.343 111 157 111Z" stroke="#75A4FE" stroke-width="2.5"/>
<line x1="90.25" y1="84.75" x2="158.75" y2="84.75" stroke="#75A4FE" stroke-width="2.5" stroke-linecap="round" stroke-dasharray="5 5"/>
<line x1="90.25" y1="129.75" x2="158.75" y2="129.75" stroke="#75A4FE" stroke-width="2.5" stroke-linecap="round" stroke-dasharray="5 5"/>
<path d="M137.048 58.3811L92 74.9534L147.535 75.301L142.183 60.7541C141.421 58.6808 139.122 57.6184 137.048 58.3811Z" fill="white"/>
<path fill-rule="evenodd" clip-rule="evenodd" d="M147.346 75.2998L145 71H105L94.5361 74.9692L147.346 75.2998Z" fill="#E8F0FE"/>
<path d="M91.5684 73.7802C90.9205 74.0186 90.5885 74.737 90.8269 75.3849C91.0652 76.0328 91.7837 76.3649 92.4316 76.1265L91.5684 73.7802ZM146.362 75.7326C146.6 76.3805 147.319 76.7125 147.967 76.4741C148.614 76.2358 148.946 75.5173 148.708 74.8694L146.362 75.7326ZM92.4316 76.1265L137.48 59.5542L136.617 57.208L91.5684 73.7802L92.4316 76.1265ZM141.01 61.1857L146.362 75.7326L148.708 74.8694L143.357 60.3225L141.01 61.1857ZM137.48 59.5542C138.905 59.0299 140.486 59.7603 141.01 61.1857L143.357 60.3225C142.356 57.6013 139.338 56.2069 136.617 57.208L137.48 59.5542Z" fill="#1F64E7"/>
</svg>
