<svg xmlns="http://www.w3.org/2000/svg" width="48" height="48" fill="none" viewBox="0 0 48 48">
  <path fill="#F8A793" d="M23.763 29.463c7.33 0 13.271-5.942 13.271-13.271 0-7.33-5.942-13.271-13.271-13.271-7.33 0-13.271 5.942-13.271 13.271 0 7.33 5.942 13.271 13.271 13.271Z" opacity=".6"/>
  <path fill="#F7C9BD" d="M15.468 45.579c7.33 0 13.271-5.942 13.271-13.271 0-7.33-5.942-13.271-13.271-13.271-7.33 0-13.271 5.942-13.271 13.271 0 7.33 5.942 13.271 13.271 13.271Z" opacity=".6"/>
  <path fill="#FCAF9C" fill-rule="evenodd" d="M15.468 19.036c6.076 0 11.197 4.082 12.772 9.653a13.234 13.234 0 0 1-4.477.775c-6.075 0-11.197-4.082-12.772-9.653a13.235 13.235 0 0 1 4.477-.775Z" clip-rule="evenodd"/>
  <path fill="#FD7250" d="M32.532 45.579c7.33 0 13.271-5.942 13.271-13.271 0-7.33-5.942-13.271-13.271-13.271-7.33 0-13.271 5.942-13.271 13.271 0 7.33 5.942 13.271 13.271 13.271Z" opacity=".6"/>
  <path fill="#FEEBE6" fill-rule="evenodd" d="M24 22.142a13.243 13.243 0 0 1 4.74 10.166c0 4.08-1.842 7.731-4.74 10.166a13.243 13.243 0 0 1-4.74-10.166c0-4.026 1.793-7.634 4.624-10.068l.116-.098Z" clip-rule="evenodd"/>
  <path fill="#FD7250" fill-rule="evenodd" d="M32.532 19.036c1.41 0 2.768.22 4.043.627-1.526 5.648-6.684 9.8-12.812 9.8-1.41 0-2.77-.22-4.044-.627 1.526-5.646 6.684-9.8 12.813-9.8Z" clip-rule="evenodd"/>
  <path fill="#fff" fill-rule="evenodd" d="m24 22.142.012.01c.163.137.322.277.477.421l-.1-.091c.078.07.155.142.23.214l-.13-.123c.08.074.159.15.237.225l-.106-.102c.07.068.141.136.21.205l-.104-.103c.086.084.171.17.255.256l-.15-.153a13.385 13.385 0 0 1 .962 1.067l-.07-.085c.076.091.15.184.223.278l-.153-.193c.07.086.138.173.205.26l-.052-.067.182.239-.13-.171c.068.088.135.178.2.268l-.07-.097c.077.104.153.209.227.315l-.156-.218c.069.094.137.19.203.286l-.047-.068c.058.083.115.167.171.252l-.124-.184a12.887 12.887 0 0 1 .597.949l-.058-.1c.056.096.111.194.165.292L27 25.732a13.18 13.18 0 0 1 .868 1.833l-.063-.161c.035.087.07.175.102.264l-.039-.103c.04.103.078.206.115.31l-.076-.207c.04.108.08.217.117.326l-.041-.118c.033.092.064.185.095.279l-.054-.16c.039.112.076.225.112.34l-.058-.18c.034.104.067.208.099.313l.065.221a15.42 15.42 0 0 1-.037.014l.037-.014a13.19 13.19 0 0 1-1.766.497l.064-.013c-.149.032-.298.06-.449.087l.385-.074a13.03 13.03 0 0 1-.417.08l.032-.006c-.153.028-.308.052-.464.074l.432-.068a12.4 12.4 0 0 1-.47.073l.038-.005c-.133.019-.266.035-.4.05l.361-.045c-.154.022-.31.04-.466.056l.105-.01c-.169.018-.338.033-.509.045l.404-.035c-.155.016-.31.029-.467.04l.063-.005c-.156.011-.312.02-.47.025l.407-.02c-.144.009-.289.016-.434.021h.027c-.16.005-.322.008-.484.008l-.45-.008-.041-.001a13.378 13.378 0 0 1-.928-.066l.045.005a13.091 13.091 0 0 1-.424-.051l.379.046a13.332 13.332 0 0 1-.455-.056l.076.01a13.068 13.068 0 0 1-.485-.075l.409.064a13.283 13.283 0 0 1-.458-.073l.05.01c-.13-.023-.26-.048-.388-.074l.338.064a13.237 13.237 0 0 1-.458-.089l.12.025a13.333 13.333 0 0 1-.496-.111l.376.086a13.171 13.171 0 0 1-.44-.102l.064.016c-.137-.034-.274-.07-.41-.108l.346.092c-.14-.035-.279-.072-.416-.111l-.398-.12.07-.247c.028-.099.057-.196.088-.293l-.029.093c.04-.133.084-.264.129-.395l-.1.302a12.967 12.967 0 0 1 .547-1.432l-.079.179c.045-.104.091-.207.139-.31l-.06.13.113-.244-.053.115c.05-.11.103-.22.157-.328l-.104.213c.05-.105.101-.209.153-.312l-.05.1a13.748 13.748 0 0 1 .367-.686c.198-.346.411-.682.639-1.008l-.117.17c.059-.087.119-.173.18-.259l-.063.09c.053-.077.108-.154.163-.23l-.1.14c.074-.104.149-.207.226-.308l-.126.169a13.468 13.468 0 0 1 1.21-1.433l-.19.2c.074-.08.15-.158.225-.235l-.035.035.196-.197-.161.162c.077-.079.155-.157.235-.234l-.074.072c.067-.066.135-.132.204-.197l-.13.125c.096-.094.194-.186.294-.277l-.164.152a8.49 8.49 0 0 1 .22-.202l-.056.05a13.068 13.068 0 0 1 .387-.34l.03-.025Z" clip-rule="evenodd"/>
</svg>
