<svg width="32" height="48" viewBox="0 0 32 48" fill="none" xmlns="http://www.w3.org/2000/svg">
<path d="M15 24C15 22.4087 15.6321 20.8826 16.7574 19.7574C17.8826 18.6321 19.4087 18 21 18C22.5913 18 24.1174 18.6321 25.2426 19.7574C26.3679 20.8826 27 22.4087 27 24C27 25.5913 26.3679 27.1174 25.2426 28.2426C24.1174 29.3679 22.5913 30 21 30C19.4087 30 17.8826 29.3679 16.7574 28.2426C15.6321 27.1174 15 25.5913 15 24V24Z" fill="#1ABCFE"/>
<path d="M4 35.5C4 34.0413 4.57946 32.6424 5.61091 31.6109C6.64236 30.5795 8.04131 30 9.5 30H15V35.5C15 36.9587 14.4205 38.3576 13.3891 39.3891C12.3576 40.4205 10.9587 41 9.5 41C8.04131 41 6.64236 40.4205 5.61091 39.3891C4.57946 38.3576 4 36.9587 4 35.5H4Z" fill="#0ACF83"/>
<path d="M15 7V18H21C22.5913 18 24.1174 17.4205 25.2426 16.3891C26.3679 15.3576 27 13.9587 27 12.5C27 11.0413 26.3679 9.64236 25.2426 8.61091C24.1174 7.57946 22.5913 7 21 7H15Z" fill="#FF7262"/>
<path d="M4 12.5C4 13.9587 4.57946 15.3576 5.61091 16.3891C6.64236 17.4205 8.04131 18 9.5 18H15V7H9.5C8.04131 7 6.64236 7.57946 5.61091 8.61091C4.57946 9.64236 4 11.0413 4 12.5H4Z" fill="#F24E1E"/>
<path d="M4 24C4 25.5913 4.57946 27.1174 5.61091 28.2426C6.64236 29.3679 8.04131 30 9.5 30H15V18H9.5C8.04131 18 6.64236 18.6321 5.61091 19.7574C4.57946 20.8826 4 22.4087 4 24H4Z" fill="#A259FF"/>
</svg>
