<svg xmlns="http://www.w3.org/2000/svg" width="48" height="48" fill="none" viewBox="0 0 48 48">
  <path fill="#FD7250" d="M30 29a5 5 0 0 0 5-5c0-9.389-7.611-17-17-17S1 14.611 1 24s7.611 17 17 17c1.333 0 2.645-.153 3.916-.453-2.406-1.215-4.365-2.686-5.87-4.415-1.94-2.229-3.277-5.06-4.017-8.476A7 7 0 1 1 25 24c.001 2.125 2.705 5 5.001 5Z"/>
  <path fill="#F7C9BD" d="M18 19a5 5 0 0 0-5 5c0 9.389 7.611 17 17 17s17-7.611 17-17S39.389 7 30 7c-1.333 0-2.645.153-3.916.453 2.406 1.215 4.51 2.569 5.87 4.415C33.937 14.563 37 20.813 37 24a7 7 0 1 1-14 0c-.023-2.343-2.704-5-5-5Z"/>
</svg>
