<svg xmlns="http://www.w3.org/2000/svg" width="221" height="30" fill="none" viewBox="0 0 221 30">
  <g clip-path="url(#a)">
    <path fill="#26353b" fill-rule="evenodd" d="M113.4 13.79h6.028c3.322 0 5.126-1.603 5.126-4.261 0-2.658-1.804-4.26-5.126-4.26H113.4v8.52Zm0 2.619v10.163h-3.24v-24h9.35c5.044 0 8.242 2.423 8.242 6.957 0 3.987-2.46 6.254-6.396 6.762l7.164 10.28h-3.69l-6.961-10.162H113.4Zm35.132-13.838v2.736h-12.415v8.483h10.042v2.735h-10.042v7.271h12.512v2.776h-15.738v-24h15.641Zm3.594 0h20.108l-2.776 2.736h-5.712v21.265h-3.133V5.306h-8.487V2.571Zm24.633 0h17.332v2.736h-8.487v21.265h-3.133V5.306h-8.488l2.776-2.736ZM76.205 23.953c3.245 0 5.517-1.173 5.517-3.831 0-1.876-1.095-3.088-3.976-3.792l-4.462-1.133c-3.449-.86-5.964-2.54-5.964-6.176 0-4.065 3.49-6.45 8.195-6.45h8.604l-2.84 2.736h-5.764c-2.962 0-5.153 1.016-5.153 3.479 0 2.033 1.38 3.01 3.977 3.675l4.26 1.055c3.975.977 6.207 3.049 6.207 6.45 0 4.338-3.652 6.605-8.601 6.605H67.48v-2.618h8.724ZM89.33 2.571h17.333v2.736h-8.488v21.265h-3.133V5.306h-8.488L89.33 2.57Zm118.313 3.033c-5.285 0-9.584 4.215-9.584 9.396 0 5.181 4.299 9.396 9.584 9.396 5.285 0 9.585-4.215 9.585-9.396 0-5.181-4.3-9.396-9.585-9.396Zm0 21.825c-6.99 0-12.677-5.576-12.677-12.429 0-6.853 5.687-12.429 12.677-12.429 6.991 0 12.677 5.576 12.677 12.43 0 6.852-5.686 12.428-12.677 12.428Z" clip-rule="evenodd"/>
    <path fill="#FD7250" fill-rule="evenodd" d="M12.249 7.218h33.518L53.296 0H19.778l-7.53 7.218ZM48.42 18.61H.368l7.529-7.218H55.95l-7.529 7.218ZM36.541 30H4.276l7.528-7.218H44.07L36.541 30Z" clip-rule="evenodd"/>
  </g>
  <defs>
    <clipPath id="a">
      <path fill="#fff" d="M0 0h221v30H0z"/>
    </clipPath>
  </defs>
</svg>
