<svg xmlns="http://www.w3.org/2000/svg" width="180" height="26" fill="none" viewBox="0 0 180 26">
  <g clip-path="url(#a)">
    <path fill="#F3F5FB" d="M65.649 16.864c0 2.206-1.856 3.18-4.507 3.18h-7.125v2.174h7.125c4.043 0 7.025-1.882 7.025-5.484 0-2.823-1.822-4.543-5.07-5.355l-3.48-.876c-2.12-.551-3.247-1.363-3.247-3.05 0-2.045 1.79-2.889 4.209-2.889h4.708l2.32-2.271h-7.028c-3.844 0-6.694 1.98-6.694 5.354 0 3.018 2.055 4.414 4.871 5.128l3.645.94c2.353.585 3.248 1.591 3.248 3.149Z"/>
    <path fill="#F3F5FB" fill-rule="evenodd" d="M91.522 13.781v8.437h-2.646V2.293h7.637c4.12 0 6.733 2.012 6.733 5.776 0 3.31-2.01 5.192-5.225 5.615l5.852 8.534h-3.015l-5.685-8.437h-3.65Zm0-2.175h4.924c2.713 0 4.187-1.33 4.187-3.537 0-2.206-1.474-3.537-4.187-3.537h-4.924v7.074Z" clip-rule="evenodd"/>
    <path fill="#F3F5FB" d="M120.218 2.293v2.271h-10.14v7.042h8.202v2.272h-8.202v6.036h10.219v2.304h-12.854V2.293h12.775Zm19.359 0h-16.424v2.271h6.933v17.654h2.559V4.564h4.665l2.267-2.271Zm3.697 0h14.156v2.271h-6.932v17.654h-2.559V4.564h-6.933l2.268-2.271Zm-71.411 0H86.02v2.271h-6.933v17.654h-2.559V4.564h-6.932l2.267-2.271Z"/>
    <path fill="#F3F5FB" fill-rule="evenodd" d="M158.145 12.612c0 5.689 4.645 10.318 10.354 10.318 5.71 0 10.354-4.629 10.354-10.318 0-5.69-4.644-10.319-10.354-10.319-5.709 0-10.354 4.629-10.354 10.319Zm2.526 0c0-4.302 3.511-7.802 7.828-7.802s7.829 3.5 7.829 7.802c0 4.301-3.512 7.8-7.829 7.8s-7.828-3.499-7.828-7.8Z" clip-rule="evenodd"/>
    <path fill="#FD7250" d="M9.976 6.069h27.3l6.132-6.07h-27.3L9.976 6.07Zm29.462 9.577H.3l6.132-6.069H45.57l-6.132 6.069Zm-9.676 9.577H3.482l6.132-6.069h26.28l-6.132 6.069Z"/>
  </g>
  <defs>
    <clipPath id="a">
      <path fill="#fff" d="M0 0h180v25.223H0z"/>
    </clipPath>
  </defs>
</svg>
